<svg id="Layer_1" data-name="Layer 1" xmlns="http://www.w3.org/2000/svg" viewBox="0 0 1329 618.1"><defs><style>.cls-1{fill:none;stroke:#fff;stroke-miterlimit:10;stroke-width:2px;}.cls-2{fill:#fff;}</style></defs><title>world-map</title><path class="cls-1" d="M989.8,425.6c-1.8-5.1-3.4-10.3-5.6-15.2-1.3-2.9-3.7-5.3-5.7-7.8a26.4,26.4,0,0,0-4-3.1c.7-6,1.3-11.7,1.8-16.2-2.7-7.3-5-13.8-7.5-20.6l-4.4,3.4h-5.5l-2.2-2.5c.9-5.2-1.7-9.1-3.9-13.2-.5-1-1.2-2.3-2.2-2.6-4.3-1.6-6.3-5-8-8.9-.4-1-1.5-1.7-2.3-2.5l-13.5,3.9c-.4,2.4-.6,4-.9,5.5a63.8,63.8,0,0,0-15.8,15.3c-1.1,1.5-3.1,2.3-4.7,3.5a19.9,19.9,0,0,0-4.1,4.1c.3,11.2.7,22.2-7.9,31.8l-6.9-1.3c-6.1-13.5-11.7-25.7-17.2-38a40.9,40.9,0,0,1-3.5-20.5c-2.7,2.9-8.2,3.5-11.7,1.6s-3.5-3.3-2.8-6.8l-12.9-11.2-13.9-.7a10.2,10.2,0,0,0-3.9,0c-5.7,1.7-11.1.1-16.5-1.3-1.3-.3-2.4-1.4-3.5-2.1-1,2.5.2,4.1,2.2,5.4l11.2,7.2v5.9l-10.8,15.5a14.4,14.4,0,0,1-9.6,6.3c-2.4.4-5.4,1.8-6.7,3.7-3.2,4.8-8.1,6.5-12.9,8.6a75.1,75.1,0,0,1-7.7,3.4l-16.4,5.3c.3,4.3,3.8,7.3,8.8,6.1s11.9-3.4,17.9-5.1c1.2-.4,2.5-.6,3.8-.9,2.5,5.5,2.6,10.4-.1,15.5-4.3,8-8.4,16.1-12.6,24.1a10.3,10.3,0,0,1-2.5,3c-7.3,5.6-14.7,11.1-19.8,19.1-2.3,3.6-5.7,6.4-8.6,9.7-6.5,7.4-5.9,15.4-2.1,23.8,1.3,2.9,3.2,6,3.4,9.1s.1,8.6,1,13-2.9,12-7.5,14.6l-6.6,3.4a9.2,9.2,0,0,0-2.8,1.9c-3,3.8-5.8,7.6-8.7,11.4.9,3.1,2.3,6.4,2.6,9.7.5,4.8-1.1,8.6-6.3,10.5-2.8,1.1-6.1,2.2-6.4,6.1s.7,5.2.9,6.9c-5,5.9-9.8,11-13.9,16.5s-10.9,9.9-17.7,13a6.7,6.7,0,0,1-4.4.2c-4.8-2-9.3-.5-13.9.5a19.9,19.9,0,0,1-5.4.6c-3.6-.2-6.3-2.4-6.1-5.9.4-8.3-4-14.6-8.5-20.5s-4.2-9.2-4.6-14.2a59.8,59.8,0,0,0-7.9-25.8c-4.7-7.8-7.1-15.8-3.3-24.8,2.1-5.1,3.8-10.4,5.8-16-1-4.3-2.1-9.2-3.3-14.1h.2a101.9,101.9,0,0,0-3.8-11c-1.3-3-2.7-6.3-5-8.3-7-6.1-8.3-13-5-21.4,1-2.7,1.1-5.7,1.6-8.9h-5.9v-5.2c-2.9-3.2-7,.4-10.7-1.3a25.4,25.4,0,0,0-2.6-4.8c-2-2.8-6.8-4.1-10.2-3-5.4,1.8-10.8,3.8-16.3,5.5-2,.6-4.5,1.2-6.3.5-4-1.5-7.8-.8-11.2.5-9.7,4.1-17.3.4-24.2-6a35.4,35.4,0,0,1-8.8-12.2c-2.3-5-5.3-10.6-11.1-13.3-1.3-.6-2.1-2.5-3.2-3.9s.4-4.2.6-5.8c-.7-3.1-1.3-5.8-1.8-8.2,6.1-6.8,7.1-13.7,3.3-21.4-2.3-4.5-.4-8.8,1.6-12.7a76.9,76.9,0,0,1,8.7-14.3c3.4-4.4,7.7-8,11.7-11.9s5.2-4.6,7.8-6.9c.1-1.3.1-2.5.3-3.6.8-4.7,2.4-8.7,6.7-11.5s6.9-5.9,10.3-8.8l-.4-1.7c2.6.7,5.5.9,7.7,2.2s7,2.1,10.2,0c8.3-5.2,16.8-8,26.7-5.9a17,17,0,0,0,11.2-1.4c3.4-1.7,7.2-2.7,10.9.4q.6,5.5,1.2,11.4l-1.2.5,5.5,4.3c5.4,2.8,13.4,1.2,15.7,9.2l11.6,3.1,2.4-2.3c.5-2.9,1-5.2,1.4-7.6,5.9-.9,10.9-.7,15.8,2.2,6.9,4,14.5,5.2,22.4,5.3,4,.1,8.1,0,12.1,0a13.4,13.4,0,0,0,3.5-.3,17.7,17.7,0,0,0,2.9-1.6c1.4-6.7,4.2-13.3,3.1-21l-3.8,1.1c.2,1.7.4,3.1.6,4.3-3.6,4-3.9,4.1-8.7,3.7-.2-.2-.6-.5-.6-.7s0-2.3,0-3.7l3-1.5-7.6-2.6-9.9,1c-1.5.9-2.7,3.2-5.7.9l.7-2.8-3.6-8.9.5-.2-3.6-3.8v-4c-4.8-4.2-6.3,3.8-10.5,1.7,2.8,5.6,4.7,10.7-.2,15.8h-3.5c-5.2-4.5-5.8-6.1-3.5-9.2-2-1-4.5-1.5-5.9-3.1s-2.1-4.4-2.4-6.7a10.9,10.9,0,0,0-9.1-9.9,8.1,8.1,0,0,1-3.7-1.5c-2.7-2.4-5.1-5-8.9-6-1-.2-1.6-1.9-2.9-3.5-1.2,4.2,2.5,4.2,3.7,5.8a48.4,48.4,0,0,0,5.6,6.3,37.9,37.9,0,0,0,6.6,4.4c2.2,1.3,4.6,2.4,6.9,3.6v3.4l-5.5,1c-.1,1.8-.3,3.6-.4,6.3l-5.5,3.2c-.4,1.3-1,3-1.6,4.5-5.2.5-9.8-2-11.1-6.1,3.4-3,7.2-1.9,11-.9,1.1-4.4-.3-7.6-4.7-10.3-1.7-1-3.6-1.6-5.3-2.6-4.5-2.8-9.2-5.2-11.2-10.6-.4-1.1-1.4-1.9-2.6-3.3-5.6,6.1-13.2,5.4-20.4,5.4-.3,2.4-.5,3.9-.7,5.1-6.4,4.7-13.9,8-13.9,17.1-3.7,4.8-8.3,6-13.8,7.1s-12.1,1.9-17.7-2.2c-1-.7-2.8-.3-5.2-.5.4-4.8.8-9.4,1.2-13.9s.6-7.6,1.2-11.3a58.8,58.8,0,0,1,1.8-6.4l23.3,2.6c4.3-3.3,4.5-7.4,3.7-11.6s-6-5-9.5-7.2V216c2.3-.1,4.5.1,6.5-.4s3.5-1.7,5.6-2.8c3.8.6,7-1.2,9.5-4.5l.6-.6,9.3-6.9a20.7,20.7,0,0,0,2.4-1.7c2.9-3.4,6.5-5.1,10.8-4.4,2.5-1.4,3.3-2.9,2.4-5.8-1.5-5.2-.1-8.6,3.7-10.6l1.9-.5,2.1.3c.3,1.9.5,3.6.8,5.9l4.4-2-2.3-3.6c-.7-1.1-1.6-2.1-2.1-2.8L600,177.8c-1.8-1.8-4.2-3.2-4.7-5.1a27.9,27.9,0,0,1-1.1-11.1c.4-3.3,3.9-4.7,6.8-5.7,7.4-2.5,13.7-6.2,17.8-13.1,1-1.7,2.7-3,4-4.5s2.9-3,4.5-4.4a13.8,13.8,0,0,1,4-2.8c10.5-3.9,21-7.9,32.5-6.3,2.9.4,6,.6,8.7,1.8a81.1,81.1,0,0,0,19.3,5.2c4.5.8,8.8,2.6,13.2,4.1,1.2.4,2.1,1.5,3.1,2.2s.1,2.9.2,4.4l5.7-1.2V135h7.5l2.1,4,4.1-1.7c3.1-1.4,6.1-3.2,9.4-4a15.6,15.6,0,0,1,8.3-.2c2.9,1.1,5.5.6,8.2.3s3.9-.6,6.6-1.1c7.2-6.4,15.3.1,24,.3-5.1-2.4-7.3-5.8-6.2-11.3,2.6-3.5,6.5-3.5,10.6-3.6s5.8,4.4,8.8,6.7c.3-.7.5-1.4.9-2.4,4.8-.2,9.5-.7,13.5-4.4,2.1-2,5.4-2.9,8.4-3.7s3.9-.1,6.1-.1c.3-1.7.5-2.9.8-4.8,8.2-2.2,16.6-4,25.7-3l6.9-5.1c5.8-.5,11.4-.7,15.6,3.3,8.5-.5,16.5-1.8,23.8,3.1v4.4l-3.5,2.6c.2.2.3.4.5.4h10.6c3.2,0,6.5-.1,9.7.1s6.2.9,9.3,1.2a74.8,74.8,0,0,0,8.2.2c7.3-.4,14.6-1.7,21.5,1.7,1.6.8,2.9,2.1,4.5,3s4.9,2.6,7.5,4c4.2-2.4,8.3-2.6,12.9-1.4,2.9.7,6.8,1.4,7.8-3.7.2-.9,3-2,4.6-1.9,5.4.1,10.8.8,16.3,1.2a43.8,43.8,0,0,1,17.3,5.1c1.2.7,2.9.4,4.4.5l11.8,1h.5c8.1-2.9,15.1,1.3,22.3,3.6a8.3,8.3,0,0,0,4.4.3c7.2-2.1,14.1-.3,21.4.7l1.9-3c7.7.9,15.8,1.8,24,2.9a73.8,73.8,0,0,1,19.5,5.1c1.9.8,4.3.3,6.3.8,4.6,1.2,9.1,2.6,14.4,4.2,7.3-2.5,13.4,1.8,17.4,8.5-1.2.8-2.3,2.2-3.5,2.3a33.8,33.8,0,0,1-7.8-.7c-4.5-1.1-8.8-2.4-13.3-3.7l-2,4.1,12,5.1c-.1,1.5-.2,3.1-.4,5.6-8.1-2.6-12.1,2.4-15.9,8.1l-8.1-1.9-10.1,3.4c.6,6.8,7.7,5.3,10.8,10.4,5.8,6.7,1.9,16.1,4.2,25.3l-8.3.5a3.6,3.6,0,0,1,.4-.9c-3.1-2.7-6-5.7-9.2-8.1-4.8-3.5-8.3-8-11.7-12.7-2.2-3-2.3-5.8-.9-9.2a117.2,117.2,0,0,0,3.6-11.4l-3.6-4.4c-.4,2.3-.7,3.7-1,5.4h-5l-10.8-3.9c-.5,4.1-.8,7.2-1.2,10.7-3.3,2-6.8,1.7-10.7.6s-5.4-.5-8.1-.5h-12.8c-6,1.9-6.1,2.1-10.7,16.4,3.7,2.3,7.2,4.5,12.2,2.7a8.3,8.3,0,0,1,8.7,2.6,25.3,25.3,0,0,0,2.6,2.3l7.1-1.3c2.8,3.2,5.2,6.5,8.2,9.2s6.6,4.8,10.1,7.3c-.3,2.3-.6,4.1-.9,6.5,1.9,2.8,6.7,4.8,5.4,10.4H1098l-.9.7-5.4-9.7a81.7,81.7,0,0,0-6-8.9c1.3,10.9,1.4,21.4-4.6,31.7-2.6,2.1-6,2.1-10.4.4-.7,4.1-1.4,7.7-2.2,12.1l-3.2,3c6.2,5.4,16.2,8.2,14.8,19.6-3.3,2.3-6.6,4.6-11.2,4.3-3.9-6.4-4.9-15.2-14.7-16.1-.3-1.5-.5-3-.8-4.8l-3.6-2.6-9.3,3.3c-1.2-3.1-2-5.3-3-8.1l-8,7.5c2.3,2.5,4.6,4.4,8.9,3.7s6.5.6,10.1,1c.3,1.6.6,3,.8,4l-8.5,7.1c5.4,6.4,10.2,12,15.3,18.2v3.9l3.6,1.6c-.9,4.6-1.2,9.2-2.7,13.5s-2.3,10.4-6,15-7.9,5.4-12.6,6.9-12.4,1.9-16.5,7.6c-.7,1-2.8,1.2-4,1.6l-3.4-5.1c-5.2-.2-7.3,3.7-10.3,6.5.5,4.9,3.9,7.8,7.3,10.6,8.5,6.9,11.1,16.1,10.5,26.4-.1,1.9-2.3,3.8-3.9,5.3s-3.1,1.8-5,2.7c-2,3.7-4.2,7.5-10,6.1-.2-1.9-.4-3.8-.6-6.1l-3.6-.7-15.1-13.8L982.2,392c.9,1.1,2.4,2,2.5,3.1,1.2,7.1,7.2,9.9,11.9,13.8a3.6,3.6,0,0,1,1.1,1c2.8,6.7,5.6,13.3,5.6,21.3h-5.9Zm-189.6-109c5.5,5.6,12.4,5.4,19.4,4.7a40.3,40.3,0,0,1,4.9-.3c4,.1,8.1.4,14.1.8l16.1,12.8-1.6,3.3,2.1,2.7h6.7l3.3-3.6c3,1.3,3.2,3.6,3.1,6a34.9,34.9,0,0,0,3.1,16.9c4.3,10,9.2,19.7,13.7,29.6,1.2,2.7,2,5.5,2.9,7.9,5.5.3,9.1-2.9,9.7-8.3s1.4-13.6,1.9-19.1l24-26.8c1.6-8.7,10.7-6.5,17.1-9.7,4.6,5.5,8.4,11.6,14.2,15.7.6.4.8,1.4,1.1,2.2,1.5,3.9,2.9,7.8,4.5,12.2h3.8l4.4-3.8c6.7,6.2,4.5,16.3,10.3,21.7-.7,6.5-1.3,12.2-1.8,17.5,5.9,4.1,9.7,8.8,10.9,15.4a33.9,33.9,0,0,0,3.3,8.7,9.3,9.3,0,0,0,9.4,4.8c-.4-1.9-.7-3.8-1.2-5.7-1.8-6.8-4.2-13.1-10.9-16.9-2.1-1.2-3.6-3.8-4.9-6a66.3,66.3,0,0,1-4.1-8.4c2.1-4.3-1-10.9,3.8-16.3l15.4,13.1a3.5,3.5,0,0,1-.5.8l5.1.6c.9,2.1,1.8,4.3,2.8,6.9.9-.6,1.8-.9,2.2-1.5,2.1-3.6,5.2-5.8,8.8-7.7a6,6,0,0,0,2.3-4.4c0-9-2.2-17.2-9.4-23.4a37.9,37.9,0,0,1-5.3-5.3c-1.6-2.2-4-4.2-2.7-7.8,3.8-2.8,6-8.7,12.3-8l5.7,5.2c4.6-7.2,12.2-7.9,19.2-9.7s10.4-3.9,12.2-9.7,3.5-12.3,5.1-18.5a6,6,0,0,0-.1-2l-3.3-3.1c.2-2.1.3-3.9.4-5.7l-1,.5-14.9-18,9.7-8.8-12-.7-.4,1-9.2-7.2,11.6-10.1,5.3,7.9,7-3.4c7,7.8,17.1,13.3,20.9,24.7l6.8-3.5c.6-4.6-1.2-7.9-4.5-10.5s-8-4.1-10.6-8.9l4.3-3.9c0-1.3-.1-3.1-.3-5.8l4.4-6.6,7.7.7c6.7-10.3,5.9-20.9,4-31.3l-5.7-6,2.7-2.5c8.6,6.7,14.1,15.3,18.2,24.8l4.7-.5c-2.8-3.3-5-6.1-7-8.5l1.5-5.2c-6.2-4.2-12.8-7.4-15.9-14.7l-6.2,1.9a23.7,23.7,0,0,1-3.5-2.7c-2.6-2.7-5.9-3.7-9.1-2.6-6.4,2.2-10.2-1.7-14.2-4.7,1.8-9.3,4.5-17.5,14.6-19.8,3.8.2,7.6.1,11.3.2s5.5.3,8.2.6,5.4.8,8.7,1.3c-1.3-5.8.3-9.5,5-12.1l10.6,3.9,4.6-5.8,6.2,6.8c-1.7,5.1-3.4,9.5-4.7,14a7.1,7.1,0,0,0,.8,4.7,19,19,0,0,0,4,5.7c5.2,5.1,10.7,10.1,16.2,15.2h4.2c-.5-3.5-1-6.7-1.4-10.1l1.6-3.4a57.7,57.7,0,0,0-3.6-7.5c-1-1.6-2.4-3.3-4.1-3.9a12.2,12.2,0,0,1-7.4-7.8c3-5.6,9.2-4.2,12.7-6.7l8,1.9-1.6-2.6c2.5-1.4,4.8-3.2,7.5-4.3s5.2-1.5,8.2-2.2c-4.4-2.9-10.1-3.2-13.7-7.4l5.2-6.3c8.1.9,14.6,5.5,22.9,4.2-4.5-6.1-9.7-7.4-14.8-5.5l-15.2-4.5c-1.9-.4-4.2.1-5.9-.6a73.8,73.8,0,0,0-19.5-5.1l-21.1-2.7-4.4,3.3c-6.4-1.2-12.7-2.5-18.8-1.7a21.6,21.6,0,0,1-12.9-1.6c-4.5-2.3-8.8-3.8-13.7-1.9a6.1,6.1,0,0,1-3,.1l-13.3-1a7.4,7.4,0,0,1-3.4-.5,47,47,0,0,0-17.8-5.3l-17-1.4c-2.7,5.4-5.6,7.3-10.6,6.1a17.9,17.9,0,0,0-13.3,1.3c-2.6-1.3-5.3-2-7.2-3.7-5.1-4.5-11-5.9-17.5-5.4-5,.3-10,1.4-14.8.7s-10.2-2.5-15.5-.8a4.2,4.2,0,0,1-2.5-.1c-5.6-2.4-11.2-2-16.7-.2a28.5,28.5,0,0,1-2.3-2.6l6.2-5.5c-.7-.9-1.1-2.1-1.8-2.2-6.5-1.4-13-2.1-19.6-.6-6.1-4-7-4.2-15.8-3.5l-7.2,5.4c-.1-.4-.1-.7-.2-1.1l-21.9,2.3-3.6,6.2c-2.2,0-4-.4-5.5,0-3.1.9-6.6,1.6-9,3.5s-7.1,4.8-10.4,4.6l-4.4,4c-2.7-3.1-5-5.6-7.4-8.5l-9.6,1.4c-.5,3.3-.7,6,2.1,7.6l6.9,4.3-3.2,2.8c-4.7-1-9.2-1.6-13.4-2.9s-9.1-1.2-12.5,1.8l-12.9,1.8c-9-4.4-16.2,1.3-23.2,4.6-3.2-1.1-4.1-5.2-8-3.5l.4,4-9.1,4.2c-1.3,1.3-2.8,2.8-4.2,4.4l-4.7-1.1c1.9,3.2-.2,4-1.9,5-4.7-1.7-15.5-10.7-15.7-13.2l1.3-1.7c7.3.9,13.4,1.7,19.6,2.3,1.9.2,3.8-.1,3.3-3.2-5.2-1.6-10.5-3.4-15.9-4.8-2.8-.8-6.3,0-8.7-1.3-7.8-4.1-16-5.1-24.7-5.3s-17,4.7-25.5,7.1c-.6.1-1,.8-1.4,1.3-3.1,4.2-7.3,7.3-10.7,11.4s-10.1,9.9-17.4,11.6c-1.8.4-3.3,1.9-5.4,3.2,1.8,4.4,0,9.5,4.6,13.5l12.8-2.2,7.2,9-7.5,5.2-4.1-6.7c-5.2,3.3-.8,8.1-1.5,11.5l-4.4,5.5c-5.2-.9-8.3.9-11.5,3.9-4.8,4.4-10.1,8.3-15.3,12.4a11.5,11.5,0,0,1-3.2,1.4L559.4,219c12.6,7.8,13.8,14.9,4,23.1-7.7,1.3-15.1-3.5-22.6-1.4-1,8.7-1.9,17-2.9,25.7,6.1,0,9.7,6.9,16.3,3.4,4.8-2.5,11.5.1,15.3-5.4.8-7.2,2.3-9.2,13.9-18.2,1-4.2,3.8-7.5,6.5-6.8,6.7,1.6,11.9-1.2,17.7-5.1,1.5,1.8,3.6,3.3,4.4,5.3,1.9,4.6,5.6,6.9,9.6,8.8,6.3,3,11.5,6.8,13.9,13.8.2-2,.3-3.9.5-6.2l4.6-3c-10-3.8-16-11.9-23.3-19.1l4.2-4c4.1,3.2,7.8,6.3,11.6,9.2a8.9,8.9,0,0,0,3.1,1.5c8.4,2.3,11.4,5.6,12,13.8.3,3.3,1.9,5,5.3,5.4,1.6.2,3.1,1.3,5,2.1l-3.3,4.2,3,4.2c6.9-4.8,1-9.4.8-14.4l9.9-5.4,5.8,3.1c-.2,2.2-.3,3.5-.4,4.7l3.9,4.2-.5.2,2.4,7.2c4.7,0,8.9,2.6,12-.4l10.6,3.1,7-3.8c1.3,1.3,2.6,2.4,3.1,2.8,1.6,5.9-1.5,16.3-2.6,20s-4.7,6.2-8.4,5.5-9.5-.1-14.2,0a41.7,41.7,0,0,1-22.6-5.8c-4-2.4-8.1-2.5-12.5-1.6-.2,1.9-.3,3.5-.5,5.1l-.5-.4-4.2,5.4c-3.8-1-7.1-1.3-9.8-2.7s-5-4-8.2-6.7c-10.1-2-12.2-3.2-16.5-9-.4-4.9-.8-8.3-1.2-12.6-3.2.7-5.9.8-8.1,1.9-4.2,2.2-8.4,1.5-12.7,1.4-1.6-.1-3.2-.9-4.8-.8a36.1,36.1,0,0,0-19.6,6.2c-3.9,2.7-7.7,2.8-11.8.3-1.7-1.1-3.9-1.3-5.9-1.9l1.4,2.2c-2.9,2-5.6,4.4-8.7,6-6.2,3-8.4,8-8.2,15.3-4.1,3.3-8.5,6.7-12.8,10.3a19,19,0,0,0-4.8,5,183.4,183.4,0,0,0-11.2,18.6c-1.8,3.3-3.4,7.3-1.2,11.3,4.1,7.8,2.8,14.8-3.2,21.8.5,2.4,1.2,5,1.7,7.2s-.3,4.9-.4,6.8c1.7,1.3,3.1,2,4,3.1,4.3,5.3,9.7,9.9,11.4,17a8.2,8.2,0,0,0,2.4,3.7c2.2,2,4.5,3.9,6.8,5.8,5.2,4.1,10.8,6,17.4,3.8,4.7-1.6,9.4-3,14.5-1.2,1.5.5,3.6,0,5.3-.6q8.1-2.4,15.9-5.4c2.9-1.2,5.6-1.1,8,.6s5.4,4.7,8.7,7.5l5.1-.7c2,1.9,6.6,1.4,5.7,5.6l5.3,3.9c-.7,3.3-1,6.6-2.1,9.7-2.7,7.7-1.6,14.1,4.9,19.6,1.9,1.6,4.1,4,4.4,6.3,1,6.8,6.9,12.1,5.4,19.5a2,2,0,0,0,.5,1.4c3.7,5.5,1.3,10.3-1.3,15.6a44.9,44.9,0,0,0-4.2,14.5c-.7,6.2,1.4,11.9,4.8,17.3,4.9,7.8,7.1,16.5,8.1,25.6.6,5.1,1,10.1,4.7,14.7s9.3,12.9,8.3,21.3c2.8,2.8,4.5,3.4,8.1,2.4s10-3.1,15.3-.8a3.7,3.7,0,0,0,2.9,0c5.9-2.3,11.5-5.1,15.7-10s9.4-11.5,14.5-17.9c.2-2.9-2.8-7,.8-10s6.4-4.5,9.8-6.9c3.5-5.5.2-10.8-1.7-15.4,3.4-4.4,6.1-8.4,9.2-12a22.2,22.2,0,0,1,5.3-4.3,81,81,0,0,1,7.8-3.9c4-8.3,4.5-5.7,2.8-15.2-.4-2.4.1-4.8-.1-7.2a23.7,23.7,0,0,0-1.1-5.8c-.7-2.1-2-4.1-2.9-6.2-3.5-8.1-3.6-15.9,2.5-23,3.9-4.5,7.6-9.1,11.6-13.5s6.7-6.8,10.1-10.1,7.4-5.6,9.6-9.2c5-8.2,9.1-16.9,13.3-25.5,1.6-3.3,1.7-6.8.2-9.4l-18.3,4.4c-7.4,1.7-12-1.2-14-8.6a11.2,11.2,0,0,0-2.5-4.7,109.9,109.9,0,0,0-8.7-8c-3.2-2.7-6.1-5.5-6.8-9.9a11.9,11.9,0,0,0-2.1-3.8c-3.5-4.9-8.5-9.2-6.9-15.3l-15-27.5,6.4-7.7,3.1,7.5c1.1,2.4,1.9,5,3.4,7.1,5.7,7.9,13.4,14.6,15,24.9a6.1,6.1,0,0,0,1.5,2.6l12.3,15.5,3.8,16.9c4.8-1.2,8.8-1.9,12.6-3.3s7.7-3.9,11.7-5.2,8-4.5,11.4-7.6a18.8,18.8,0,0,1,8-4.5,11.8,11.8,0,0,0,7.2-4.6c3.2-4.6,6.7-9,10-13.4l.5-.8v-5l-13.7-9.9c-.1-2.3-.2-3.6-.3-4.9Zm-55.6,47-6.8-10.3a12.5,12.5,0,0,0-2.5-3c-4-2.8-5.5-6.8-6.6-11.2a19.8,19.8,0,0,0-2.4-5.8c-5.4-8.1-13.6-14.4-15.5-24.1l-3.2,3,14.6,26.7c-.6,4.6,1.4,8.6,4.8,12.4s3.1,5.7,4.7,8.4a28.5,28.5,0,0,0,4.2,5.9c3.3,3.1,7,5.9,10.3,8.7C745.6,370.7,745.1,366.8,744.6,363.6ZM686.7,142.7c1.6,4.6,4.7,7.7,9.4,8.7-.5-1.3-.9-2.6-1.8-4.9l9.1,1a25,25,0,0,0,1.4-2.5ZM629,268.9l.7-1.3c-1.1-3.9-4.1-1.8-6.2-2.4l-.3,1.1Zm71.6,9,.8.8c1.3-.6,3.4-.5,2.2-3.6Z" transform="translate(-19 -69)"/><path class="cls-1" d="M119.3,189.7c.2-1.9.5-3.8.7-6.2l-7.9-.6v-5.4l3.9-.8,2.7,3.1.8-.9c-1.2-2.8-4.3-2.9-6.6-4.2a63.4,63.4,0,0,1-7.1-4.9c-4.6-.9-9-1.5-13.2-2.9-2.7-.8-4.7-.3-7.2.6-4.9,1.7-9.7,4.3-15.2,1.7L59.8,175l.5,4.7-11.4,3-1.8-3.1c-8.9,3.2-16.8,9-27,7.4-.7-4.3,2.9-4.2,4.9-5.1,4.5-2.1,9.1-3.8,14.1-5.9l-5.9-2.6-.4-3.7,5.9-4.1v-5.7c2.7-4.4,7.2-4.4,11.4-5.2l10.8-2v-1l-9.3-1.9-.9-3.9c6.7-5.8,14.8-3.4,22-4.4-.4-2.9-.7-5.1-1-7.9l7.3-1.8c2.9-.7,5.9-1,8.6-2,5.8-2.1,11.5-4,17.7-4.1a32.6,32.6,0,0,0,8.3-1.1c6-2,11.8-.3,17.7.3s12,1.8,18,2.8,9,1.8,13.4,3,10,.9,15.1-.3,12.9-2.5,19.3-3.6a2.6,2.6,0,0,1,1.5,0c6.9,3.1,14.5.9,21.4,3l11.1,3.7.5,3.3,4.3-.5,4-.7c-4.2-1-9-1.7-11.5-7.6h11.1v-.9h-8.5a10.4,10.4,0,0,1,.3-2.8c.3-.4,1.2-.5,1.6-1.5l-7.9,2.1-7.6,2-3.1-6.1c11.4-7.9,22.2-13.8,34.9-7.6,3.1,1.9,5.8,3.4,8.1,4.7,3.5-1.3,6.5-4.1,8.9-.6l10.6-2.1c-.8,3.7-1.3,6.2-1.9,9.1l3.2,2.2v3.3a19.9,19.9,0,0,1-14.2,4.5,4.5,4.5,0,0,1-.1,1.1l8.4.4c3.2.2,6.6-1.1,9.5,1.7.3.3,1.4,0,2.3-.6l-3.8-1.7c-.1-1.4-.2-2.7-.2-3.8,3.2-3.6,7.2-2.5,10.9-2.6l3.5-4.5h-4.9c-1.2-2.8-6-2.5-5.4-7.3l5.9-.4c6.9-4.4,11.9-5,14.5-2.2l15.8-2.1c.5,2.3.8,3.8,1.1,5.3l-.7.6-16,3.4-1.3-3.3-1.5,3.2,5.4.6c-.1,2.5-.3,4.9-.4,7.9l6,1.5c.2,1.6.4,3.2.6,5.4l7.9-6.8h11.4c.2,2.1.4,3.8.6,5.5-4.7,10.5-14.5,8.4-24,9l10.7,4v6.2c-3.3,3.1-5.8.1-7.9-.4l-9.6,1.1c-.4-1.3-.8-2.1-1.2-3.4l-15.1,2.8c-.9,3.7-4.6,4-7.7,5.4a65,65,0,0,0-17.3,11.2c1.4,5.3,3.4,9.2,9.5,9.4,1.8.1,3.6,1.5,5.4,2.3l13,5.9c1,3.3-1.3,6.5-2.9,10.4.6,1.1,1.3,2.6,2,4.1,3.9-.7,5.8-2.9,6.5-6.2,1-4.9,3.6-8.2,8.5-9.9a15.3,15.3,0,0,0,9.6-8.4v-7.9l1,.5c2.2-3,4.7-5.9,6.5-9.1a8.8,8.8,0,0,1,8.9-4.9c6.7.3,13.3.8,16.9,5.5s-.9,8,2.7,10.5c5.7-.6,8.4-7.2,14.9-7,3.4,7.8.9,17.3,7.2,24.8l5.1.4c5.3,3.9,4.2,8.6-2.7,12.9.3,2.3.5,4.4.7,6.4a57.2,57.2,0,0,1,6.6,5.7c.8.8.4,2.7.6,4.2-8.5,3.6-16.6,2.1-25.1.8-.1-1.1-.2-2.2-.3-3.5l9.6-9.4c-6.1.7-12.4,2.5-18.3,1.9s-9.3.7-13.9,2.5l6.6.6c1.4,4.3-1.7,6.4-4,9.3,2.1,7.3,8.9,3,13.1,5,.8,3.2-1.4,4.3-3.5,5.2-5.1,2.3-10.3,4.4-15.5,6.3-1.6.6-3.5.1-5.7.1-.2-2-.4-3.6-.6-5.3l-15.8,7.2c-.8,5.5-4.5,7.6-9.4,8.6s-7,2.1-9.2,5.5c-.7,1.1-2.2,1.8-3.4,2.5-3.3,1.7-6.1,3.9-7.2,7.7l-3.2.3a12.1,12.1,0,0,0-.1,1.9c.7,9-4.4,12.1-10.2,15.1s-13,7.2-17.2,13.7a14.5,14.5,0,0,0-1.4,2.9c.1,8,4.3,15.5-.6,22.7-5.2.8-6,.6-7.3-4.1s-1.7-8.3-2.6-12.4l1-.6-3.7-3.2-.2.6-14.2-3.9-7.5,6.4a68.6,68.6,0,0,1-10.1-2.6c-2.4-1-4.3-1.2-6.4.1l-14.6,8.6c-2.1,6.4-5.3,13.6-6.7,21.1s1.1,12.1,5.8,16.6a9.3,9.3,0,0,0,5.7,2.3c5.6,0,10.8-2.2,12.8-7.6s4.4-5.5,8-6.1,5.6,0,8,0c1.9,2.7,1.4,4.8.4,7.1-2.6,5.8-5.1,11.7-8,18.4,6.7.6,13.3-2.7,19.6,1.6,1.5,7.1-2.7,14.1-1.6,22.4l6.2,6.8,13.7-1.8,5.7,3.3c5.4-2.9,5-12.4,13.3-11l5.2-4.8h6.2l.9,2.5a34.3,34.3,0,0,1,5.4-.6c1.7.2,3.9.4,5,1.5,4.9,5,11.1,5.4,17.5,5.5,1.9,0,3.9.2,5.3.3l6.9-3.4v-1.4l.6-.6,4.2.4-4.4,7.8a21.1,21.1,0,0,0,2.5,2.6,25.6,25.6,0,0,1,7.2,7.1c3.2,4.6,7.7,7.7,13.9,7.2s11.5,1.3,15.3,6.4a25,25,0,0,1,3.1,5.5,39.8,39.8,0,0,1,2.6,7.3c.4,2,.1,4.2.1,6.5l5.1.5,3.3,4.3c5.3-2,9.9.6,14.6,3.5.2,1.2.5,2.5.7,3.5l21.9,2.5c3.3,4.8,7.4,8.4,12.8,9.3s6.4,3.6,6.8,7.6a20.1,20.1,0,0,1-4,15.3c-2.3,2.8-4,6-6.1,9s-4.6,6-5.9,7.7c.4,17-.9,31.9-10.7,44.5h-7.6c-5.7,3.3-12.2,5-16.4,10.7,2,6.1.7,11.7-2.9,17.1-1.1,1.7-1.1,4.1-1.7,6.6l-10.2,16.3-3,2.1h-9.4c2.1,4.5,5.4,9.2,1.4,14.2s-9.1,4.1-14.3,4.3c-.2,3.7,1,7.6-2.8,10.7l-6.8-.4,5.6,4.7c-.7,2.9-1.5,6.2-2.4,10.2l-3.4,4.9,6.1,5.7c.1,1.8.8,4.8.2,7.6s-2.4,5.3-3.5,7.7l2.5,6.9,19.1,10.9c.4.3.2,1.3.4,2.2-8.5,1.3-16.9,3.6-24.3-2.8-.1-1.7-.2-3.2-.3-5.1l-10-1.8c-2-1.9-4.4-3.4-6-5.6a51.1,51.1,0,0,1-6.4-10.4c-1.7-4.4-3.5-8.6-8.1-10.8-.1-1.2-.2-2.3-.3-3.6l4.1-3.4L295,629.8l1-.7c-1.7-1.4-3.4-2.7-4.9-4.2a7.3,7.3,0,0,1-2.3-3.7c-1.3-7.8-4.3-15.2-2.4-23.6,1-4.8-.6-10.1-1.1-15.2-.8-8.4-1.7-16.7-2.5-25.1a21.6,21.6,0,0,1,.6-4.7c-1.9-3.3-1.8-7-1.1-11.1,2.1-10.6-.7-18.6-9.5-25.2a82.1,82.1,0,0,0-11.7-7.3,15.5,15.5,0,0,1-7.1-7.2c-2.1-3.8-4.4-7.5-6.6-11.4s-3.9-6.8-5.5-10.3c-2.4-5.1-4.1-10.4-9-14-3.3-2.3-4-9.6-1.8-13.1.7-1.3,1.6-2.5,2.5-3.9-3.7-2.5-3.8-6.1-2-9.5a80.4,80.4,0,0,1,8.4-13.3c3.6-4.6,6.9-9.2,5.7-15.5a26.6,26.6,0,0,0-1-3.8c-.9-2.6-1.8-5.2-2.9-8.6h-3.7c-.5,1.7-1,3-1.7,5.2-2.7-.6-5.7-.8-8.3-1.9-5.1-2.1-10-4.8-13.9-8.9-1.5-1.5-2.2-3.7-2.9-5.8l-5.9-9.2c-2.8-.5-5.9-.9-8.8-1.7-4.7-1.4-8.8-3.5-11.5-7.9-1.1-1.9-3.5-2.9-5.4-4.4-7.1,4.8-13.3,1.5-19.4-1.4s-10.5-4.9-15.5-7.8c-3-1.7-5.4-4.3-7.6-6.2-1.5-5.4,2.7-10.5-.9-15.1s-6-7.9-8.6-12-2.3-5.4-3.9-7.7c-2.9-4.2-4.2-8.8-5.1-13.7a30.2,30.2,0,0,0-1.8-4.7h-1.5c-.3,1.2-1.1,2.5-.9,3.6a13.6,13.6,0,0,0,1.8,5.1c3,4.9,4.3,10.2,5.1,15.8.2,2.1,1.5,4,2.3,6s1.2,3.6,2,5.9l-5.2.7-5.7-7v-5.6c-3.4-3.5-8.7-6.4-5.1-12.8a23.1,23.1,0,0,1-3.8-16c.4-3-1.5-5.7-4.7-7s-4.2-3.7-4.5-7-1.6-6.4-1.9-9.6c-.4-5.2-.4-10.4-.6-15.6l1.3.2,6.4-11.5a7.7,7.7,0,0,1,1.4-2.5c6-5.3,9.8-12,12.8-19.1h7.4v-.5l-4.8-.3c-4-2.1-7.3-4.7-5.5-10.5l3.2-1.1c.8-5.6,1.5-10.9,2.2-16.1ZM220.4,396.9l1.3-.7,11.7,4.9,5.6-6.2-7,2.2c-8.5-4.7-12.3-9.7-9.8-19.4a97.3,97.3,0,0,0,1.7-10.6c-5.6-3.9-11.3-.5-16.4-.9l-3.6-3.2,9.3-21.8-.9-1.1-10.4,1.2a19.8,19.8,0,0,1-12.5,12.3c-4.3,1.5-8,.8-11.3-2.6-6.4-6.7-9.2-14.2-5.8-23.4,1.4-3.8,2.2-7.9,3.6-11.7s3.4-7.1,7.4-9,7.5-4.1,11.2-6.2a6.6,6.6,0,0,1,6.8-.5c3.2,1.4,6.8,2,10.1,3l2.5-3c2.9-3.5,6.4-4,10.6-2.3s5.9,1.7,10,2.9l4.9,4.5-.8.5c.8,4.9,1.7,9.9,2.5,14.6,4.1.7,4.7-1.6,4.6-3.8a83.4,83.4,0,0,0-1.5-13.2,8.1,8.1,0,0,1,1.1-6.5c4.6-7.6,11.9-12.1,19.4-15.8,5.4-2.7,8.4-5.9,8.1-12-.1-1.1-.1-2.3-.1-3.5a10.2,10.2,0,0,1,1.8-1.8c4.5-3.3,9.3-6.1,13.3-9.7s7.1-5.7,11.9-6.6c1.9-.4,3.4-2.7,5-4.2s3.2-3.9,5.2-5c6.1-3,12.5-5.6,18.8-8.4l2.4,2.8-4.7,4.3.6,1,19.2-7.6c-8.1.3-11.2-1.6-12.8-7.1l4.5-6.7c-3.3-.7-6.8.6-7.7-3.7,4-4.1,9.1-5.3,14.7-4.8,2.8.3,5.7,1,8.4.5a119.6,119.6,0,0,0,16.8-4.8c5.8-2.1,6.7-4,6.1-9.3l-5.9-.4c-7.3-6.7-6.6-16-8.1-25.4L348.9,177l-4.4-4.4v-8.4c-5.5-3.5-11.5-4.3-17.7-3.8a5.5,5.5,0,0,0-3.6,2.2c-2.6,3.3-4.9,6.9-7.9,11.2v5.1c-2.9,5-6.3,9.1-11.5,11a9.3,9.3,0,0,0-6.5,7.4c-1.1,4.5-4.2,7.2-9,9.2-1.7-2.3-3.4-4.6-4.7-6.5l3.2-8.8-14-7a13.6,13.6,0,0,0-2.3-.9c-7.3-.4-9.9-5.6-12.2-12.1,3.3-2.5,6.4-5.3,9.8-7.5,6.2-3.9,12.6-7.6,19.1-11.5l12.1-2.5-.4-.7,4.4-5c1.5,1.4,2.7,2.4,3.7,3.2l-3.1,4.9,13.7.9-.3-2.9-10.8-3.8c2.3-3.5,4.7-4.6,7.7-4.6s4.7.1,7,0c4.8-.2,9.2-4.6,9-9.2h-8.4l-9.5,7.9-2.3-6.2-6.1-4.1c.3-2.2.6-3.8.8-5.3-4.1-.4-10,1.9-10.4,3.9l2.2,4-6.8,5.2-2.9-2.9,2.6-4.1-7.8,1.2,5.9,4.3-4.7,4.3c-3.8-2.9-7.7-2.9-11.7-2a4.5,4.5,0,0,1-2.3,0c-5.8-2-11.7-3.2-17.7-.7a2.2,2.2,0,0,1-1.1.1c-1.7,1.4-3.1,2.7-4.6,4.1l-3.8-4.1-11.3,1.3-3.3-4.5-9.4-2.8c-6.4-1.8-13.3.1-19.4-2.8a1.7,1.7,0,0,0-1,0c-5.4.9-10.7,2-16,2.8s-10.3,2.6-15.1,1.8c-9-1.6-17.8-4.1-27.1-5s-18-4-27.4-1.7a26.7,26.7,0,0,1-6.3,1c-5.8.2-11.3,1.9-16.8,3.8-3,1.1-6.3,1.5-9.5,2.3l-5.2,1.6c.8,2.1,1.4,3.5,2.2,5.4l-5.7,3.4c-6.2-.8-11.6-.8-16.7,2.1,2.7,3.5,8.4-.1,10.2,4.8-3,5.1-8.3,4.8-13.1,5.7l-9.3,1.9-.3,7.3-5.5,5,6.6,3.4v1.3c-2.7,1.5-5.3,3.1-8.1,4.5s-5.5,2.5-8.3,3.8c15.1-5.6,30.8-9.5,44.5-18,5.4,2.7,10,.2,14.6-1.4,2.8-1,5.1-1.6,8.1-.6a96.1,96.1,0,0,0,12,2.6c4.1,2.3,7.9,4.2,11.5,6.5s7.4,4,5.6,9.4c-.4,1.2.4,2.9.7,4.6-2.7,6.6-3.9,14.3-2.7,19.2l-4.7,3.5c1.2,4.9,2.3,5.6,6.6,4.9l1.8-5.3h1.4l3.6,6-4.4,5.7h-6.8l.7.7-11.8,15.1a23.9,23.9,0,0,0-2.1,3.4c-2.1,3.8-4.3,7.6-6.4,11.5-3.8,9.2.7,18.1,1.6,27.6a29,29,0,0,1,3.6,2.5c2.6,2.3,6.1,5,5.4,8.4-1.3,6.1.9,11,3.3,15.3-.3,3-.5,5.2-.7,7.1l5.9,6.2c.1,2.4.2,4.2.3,6.1l4.5,4.6c-1.5-6.2-2.8-11.7-4.2-17.2s-6.3-10.2-5.8-16.7l4.1-3.7,5.1,5.5c.6,4.8,1.6,10.2,5.1,14.9,1.8,2.6,2.7,5.8,4.7,10.1,6.7,5.7,12,13.5,7.9,24.4,2.5,1.9,4.3,3.7,6.4,4.8,7.4,3.7,14.8,7.3,22.4,10.6,2.1.9,4.8.6,7.2.4a34.1,34.1,0,0,0,5.6-1.7c1.9,1.6,4.2,3,5.9,5a20.3,20.3,0,0,0,10.9,7.2c2.6.7,5.4,1,9.2,1.7l7.7,11.6.5,3.6.8-.7Zm137.5,38.6.5-1.2a31.8,31.8,0,0,0-.4-6.2c-.5-2.3-1.7-4.5-2.3-6.9-1.3-4.5-3.7-7.8-8.4-8.8-3-.7-6.2-.5-9.3-1.2s-6.4-1.3-8.5-3.1c-5.6-4.9-10.5-10.5-15.5-15.6,0-1.2.1-2.1.2-3.9l-4.5,3.2c-2.9-.2-5.1-.5-7.4-.5-6.1-.1-11.7-.9-16.5-5.4-3.2-2.9-7.3-2.2-10.4,1-.6,2.8,1,6.5-3.2,7.9-5.5-4.1-.8-8.1.4-12.3h-4.1l-4.8,4.5-4.1.6-8.8,10.8-8.1-3.5-.2.6,2.8,3.3a27.1,27.1,0,0,0,1.8,7.7c2.2,5.7,2.2,11.1-1.8,16.1-2.3,2.9-4.6,5.7-6.6,8.7s-6,8.4-5.3,13.8l2.9,3.8-4.2,6.6c.4,2.6,1,5.5,1.5,8.4,6,4.4,8.8,10.7,11.4,17.3a79.4,79.4,0,0,0,4.6,8.6c2.2,3.8,4.4,7.6,6.8,11.3A16.6,16.6,0,0,0,261,506c4,2.8,8.6,5,12.5,7.9,9,6.9,14,15.9,11.5,27.5-.9,4.1-.9,7.8,1,11a28.7,28.7,0,0,0-.7,5.3c.7,8,1.6,16,2.4,24.1.6,5.4,2.3,11.1,1.2,16.1-1.9,8.3,1.4,15.6,2.4,23.2a6.7,6.7,0,0,0,2,3.3c1.7,1.6,3.6,2.9,5.5,4.4l-.7.7.3,4.5.4-.2,2.7,7.2-3.9,4.7c2.6,3.7,6.1,6.8,7.1,10.5,2,7.3,6.8,11.9,12.1,16.4l10.8,1.3.9,1v6.3c11.5,3,11.5,3,15.4.6-2.7-1.7-5.1-4-8-4.8-5.3-1.5-8.6-4.2-9.4-9.7-.2-1.5-.7-3.5,0-4.6,4.9-7.4,4.1-13.7-3.9-18.8l4-6h-.4c.8-2.6,1.5-5.2,2.4-8l-5.1-5.9,2.7-2.8,6.2.4v-7.8l3.2-2.9c4.7-.2,10,1,12.4-3.8s-1.5-9.3-4.1-13.8l2.1-2.6.5,1.2,11,1.3,10.4-16.2c.9-3.2,1-5.8,2.2-7.6,3.5-5.1,4.6-10.5,2.6-16.3,4.5-6.8,11.6-9.8,19.1-13.4h6.5c6.4-7,11-28.9,8.5-40.8,3.2-4.7,6.1-9.7,9.7-14.1,5.6-6.9,9.4-14,5.7-23.2-6.9-.9-12-4.9-16.9-10.4l-21.1-2.2-.6,1-2.7-5.9c-3.9-3-8.1-3.5-12.8-1.7-1.1-1.7-2.1-3.2-3-4.4ZM237,123.8l6.1,3.2c-2.4,4.8-6.4,2.5-9.4,3.6v1.1l15.5,2.6c4.9-2.8,9-4.3,14.2-2.8a12.3,12.3,0,0,0,11.8-2.9c-1.4-1.4-2.7-2.6-3.6-3.6.9-2.7,1.6-4.4,2.2-6.1l-.9-1-6.8,2.7-3.4-2.5-5.6,2.4-9-5.1c-4.3-.7-9.7-3.4-16-1.4s-10.8,4.3-15.5,9c4.8.8,4.8.8,14-2.9C233.1,121.1,236.5,120.5,237,123.8Zm134.5,84.5-.7-.3-10.7,11.7c7.6,1.8,13.3,1.6,19.2-1.1-1.5-1.3-2.7-2.4-4-3.4l-4.5-3.3Zm-70.1-92.2-.5-1.3L288,119.6C292.3,123.6,298.6,121.8,301.4,116.1Zm5,.6a14.2,14.2,0,0,0,.4,2l11.4-2.6-.2-1.2ZM244,136.5l1.8,3,1.8-3.3Z" transform="translate(-19 -69)"/><path class="cls-1" d="M1133.9,492.4c1.5,4.5-2.4,6.8-3.6,10,1,3.4,7.1,8.4,15.1,12.3l3.9-4.9,3.4-4.8a33.2,33.2,0,0,1,4.1-17.9h4.6c.6,1.9,1.2,3.8,1.9,5.6s.8,3.4,1.9,4.4c6.4,6.3,6.7,13.9,5.2,22.4,5.8,4.6,8.4,11.6,11.6,18.4,2,4.2,5.3,7.8,8.2,11.9.1,10.9-1.5,21.6-8.2,30.7-2.4,3.3-6,5.6-9.1,8.4-1.5,1.4-3.2,2.8-4.6,4.3s-4.5,4.7-6.7,7.1l-8.7,10q-8.2-2.1-14.7,5.4l-7.8-2.8c-5.1,1.4-10.3-.5-15.6-4.5.1-2,.3-4.4.6-7.9-.1-.3-.6-1.7-1-3.2l-4.2-.2c-.2-1.5-.4-2.9-.5-4.4l-5,3.2c-2.9-6.4-6.1-12.1-13.3-14.6l-16.5,3a20.2,20.2,0,0,0-4.2,1.2c-5.3,2.9-10.7,5.3-16.8,5.3s-11.6,3.4-17.5,4.7a18.2,18.2,0,0,1-7.7,0c-4.4-1-4.8-1.8-4.8-6.7,5.1-4,6.8-9,5.1-15.6-.9-3.6-.3-7.6-.2-11.5s.7-10.2.9-15.3,1.5-10.6,8-12.7,10-4.2,15-6.3a6.5,6.5,0,0,1,2.3-.6c7.5,0,11.9-4.2,14.9-10.4.5-1.1,1.2-2,1.9-3.2l3.5-.6c6.6-6.1,10.3-15.2,21.1-13.7l5.5,4.5c1.3-4.9,3.1-8.6,7.6-10.7C1117.6,488.9,1125.6,486.9,1133.9,492.4Zm-5.3,13.5c-2.3-5.9,4.6-7.9,2.8-12-6.6-3.2-12.6-3.7-18.4.4a3.8,3.8,0,0,1-1.7.8c-4.1,0-5.4,2.7-6,6.1s-1.8,3.7-4.5,4.1l-4.7-4c-4.9-.1-9,1.2-12.6,5.7s-4.5,8.9-10.1,8.7c-4.9,7.1-9.3,14-19,13.7a5.5,5.5,0,0,0-2.3.9l-18.3,7.7c-.5,3-1.2,6.2-1.5,9.4q-.7,7.2-.9,14.4a59.3,59.3,0,0,0,.4,11.9c1,5.4,0,10-3.7,14.2-1,1.1-1.4,2.6-2.1,3.9,4.3,2.7,8.1,2.1,12,.8s8-3,12.2-3.8c6.3-1.1,12.7-1.2,18.4-4.8,2.8-1.8,6.5-2.5,9.8-3.2s9.1-1.3,13.8-2c6,3.1,11.2,7.2,13.5,14.1l5-3.6c1,1.9,1.7,3.5,2.6,5.2,2.9.2,2.9.2,4.7,6.5-.3,2.6-.5,4.6-.8,7.1,4.9,1.6,9.2,4,13.4,2l7.1,2.9c5.8-4.9,5.8-4.9,14.6-5.6l9.3-9.9c1.3-1.4,2.6-2.9,4-4.2l7.8-7.4c2.1-1.9,4.5-3.5,6.1-5.7,6.5-9,8.1-19.3,8.2-30.1-2.7-3.8-6-7.4-8.1-11.7-3.3-6.8-5.8-14-11.9-18.9.2-1,.2-1.7.4-2.3,1.3-7,.4-13.3-4.5-18.8-1.3-1.4-2-3.4-2.8-5.1s-1-2.6-1.5-3.9c-3.5,5-4.3,10.4-4.1,16.3l-9.9,12.4Z" transform="translate(-19 -69)"/><path class="cls-1" d="M457,88.4l13.1-1.6c5.3-.7,10.5-1.7,15.7-2.1s9.8-.2,14.7-.2a6.1,6.1,0,0,0,1.9-.1c12.6-3.6,24.4-.9,35.3,3.8h12.7l-2,4.6-12.2,1.8-4.8,5.2c-.1,1.4-.2,3.1-.3,4.4-5.4,7.2-11,13.6-21,14,2.7,2.8,8.2,2.8,6.8,8.7l-5.2,2-1,3.2c-8.2,1-16.2,4.5-24.9,4.3a14.8,14.8,0,0,0-9.4,3.5,23.8,23.8,0,0,1-14.3,6.1c-9.3.5-15,5.9-19.8,13l-2.6,4.2c-3.5,5-9.1,6.4-14.8,4.1s-11.5-6.4-11.2-14.4a84.2,84.2,0,0,0,0-8.7c0-4.4,2.5-7.2,6-9.4s4.6-3.2,6.3-4.4c1.9-4.8-.7-6.5-3.9-8.2,0-6.3-3.8-10.6-8.5-14.5l-5.6-1.4v1l-16.8-1c-.2-3.1-.4-5.4-.6-8.3L402,96.7c6-.5,11.4-3.1,16.8-5.5,9.3-4.1,18.8-5.6,28.9-3.6C450.4,88.2,453.2,88.1,457,88.4ZM537.9,91c-11.8-5.4-24-7.5-36.1-4.1-2.5-.2-4.3-.8-6-.6-9.2,1-18.3,2.2-27.4,3.4s-15.3,1.5-23,0a40,40,0,0,0-20,1.6c-9.5,3.1-18.1,8.8-28.7,8.1-1.9-.1-4,.9-2.9,4.6l10.4.7h9.3c5.3,5.2,10.7,9.2,11.2,16l4.6,4.9c-.1,1.6-.2,2.9-.3,4.9-2.9,2.2-6,4.6-9.2,6.8a8.4,8.4,0,0,0-3.4,8.8c.2,1.2.7,2.6.4,3.7-2.9,10.4,5,15.3,13.6,15.9a7.4,7.4,0,0,0,7.4-3.9,50.8,50.8,0,0,1,5.4-7.7c4.7-5.4,9.9-9.9,17.8-10.5,4.8-.4,9.6-1.6,13.6-5s8.6-6,14.4-4.9a13.1,13.1,0,0,0,4.4-.3l12.9-3,8.5-6.1-8.7-5.8c2.1-1.2,3.3-2.5,4.7-2.7,7.8-1,13.2-5.6,17.8-11.7l.3-4.9,7-7,10.4-1.7v-.4Z" transform="translate(-19 -69)"/><path class="cls-1" d="M360.9,108.7c-2.2,4.2-6.2,6.1-11.9,5.5l-23.6-2.1-.9-.3c-1.3-5.9,4-10.6,9.9-7.6s14.5,1.9,21.9,2.3c-5.1-1.8-12.3,3-16-5.3h12.8V97.1l5-.6,1.8-4.8,17.5,1.1v-.2l-15.2-1.7V87.7l61.2-5.1c1.4,2.7.3,3.8-1.5,4.7-9.2,4.6-18.7,8.1-29,9a18.7,18.7,0,0,0-5.3,1.3c-7.2,3.2-14.2,6.7-21.4,9.9A29.3,29.3,0,0,1,360.9,108.7Zm1.6-14.3-7.6,9,9.9,2.9v-1.2L390.5,94a3.6,3.6,0,0,1,1.5-.2c9.6-1.1,19-3.1,26.9-8.2l-47.7,3.8c3.5,1.1,7.6-1.3,9.8,3.5C375.2,98.3,368.4,93.1,362.5,94.4Zm-5.9,16.5v-1.5h-2.3c-6.9-.4-13.8,1.1-20.4-2.7-2.1-1.2-5.8-1.2-8.2,3.1C336.5,109.5,346.5,112.8,356.6,110.9Z" transform="translate(-19 -69)"/><path class="cls-1" d="M321.3,117.6c2.8-1.2,5.5-2.9,8.4-3.6s5.7-1.4,7.6,2.1c7-3.2,12.7-.8,17.1,3.5l8.1-1.1c2.3,6.3,8.4,6.7,13.6,8.7.1,2,.2,3.8.3,6.5l7.7,5.7c0,1.3.1,2.9.2,5.6l-3.9,2.8v1l-10.8-3.1c.2,3.7,2.2,7.7-1,11.3l-3.8.6c-.3,1.1-.7,2.2-1,3.2-9.8,2.2-16.2-2.3-20.7-10.1l-12.2,1.9c-.5-2.1-.9-3.4-1.3-5,4.6-2.9,9.1-1.9,13.7-1.2,7.3-6.4,7.5-6.5,15.3-4.7l-11.6-13.8c-4.3,2.3-7.7,3-11.7,1.7-2.5-.8-5.4-.3-8.1-.4s-7.1.8-9.8-2.2.5-6.5,3.3-8.8Zm38.6,3.7-5,.9a10.7,10.7,0,0,1-3.1-1.7c-3.6-3.7-7.7-4-12.3-2.5a5.7,5.7,0,0,1-3.4-.2,13.8,13.8,0,0,0-15.5,3.5c-1.6,1.8-1.9,3.4.3,5.5,4.3,0,9.2-.6,13.7.2s7.8,1.1,11.8-1.6c2.8,2.6,5.8,4.9,8.4,7.7s4.6,5.8,7.4,9.4c-2,.6-3.9,1.7-5.7,1.4-6.6-.9-8.6-.2-12,5.5,8.1,9.3,8.8,9.7,16.1,9.1l2.1-4.2,5.1.4c-.2-3.2-.5-6.1-.8-9.4l2.8-2.6c3.9,1.4,7.1,4.7,11.7,2,0-1.3.1-2.7.2-3.7l-7.7-7c-.2-2.2-.4-3.8-.6-5.5l-.8.9Zm-21.1,27.5h-5.9c0,.3.1.7.1,1Z" transform="translate(-19 -69)"/><path class="cls-1" d="M1120.1,279l-9.9,1.8-2.3,4.8c-3.2,1.9-4.4-1-6.2-3.3-.4,2.6-.6,4.3-1,6.5l-6.2.6c-.1,1.7-.4,3.6-.6,6l-3.9,1-6.4-8.6c.7-2.5,1.7-5.6,2.6-8.8l6.5-5.2h6.4c3.8-3.6,9.2-5.5,11.3-10.2-1.6-4.6-3-8.5-4.7-13-5-2.6-6-5.5-3.7-11.6-.5-2.8-1-5.2-1.4-7.5l1-1,19.4,9.1v3.1l-5.2,4.6-7.2-1c-.1,1-.2,1.8-.3,2.6s.9.7,1.3.7c6.6,1,10.4,5.4,10.7,12.1a19.4,19.4,0,0,0,1.1,6.3C1122.8,271.6,1122.7,275,1120.1,279Zm-20.8-2.7h-6.8l-4.3,4.5.5.7,11.8-2.6,5.1,4.5c1.7-2,3.3-4,5-5.9a3.5,3.5,0,0,0,.5.8l9.4-2.2c-2.6-7.7-1.7-15.5-5.5-22.6l-5.3-1.3-.9,1c1.4,3.3,2.9,6.5,4.4,9.9C1110.5,269.5,1104,272.1,1099.3,276.3Zm5.7-29.2,3.8-3.5,6.5,1.2,3.2-3.4-15.3-7.9,1.6,5.2C1103.8,241.4,1101.7,244.1,1105,247.1Zm-13.6,46.6c.8-4.3.1-7.4-4.2-9.7-.4,1.7-.8,3-1.1,4.1Zm6.4-10.3-1.6.4.9,3,1.5-.4C1098.3,285.4,1098,284.4,1097.8,283.4Z" transform="translate(-19 -69)"/><path class="cls-1" d="M1126.2,439l4.4,10.4,1.9-1.5c11.6-6.3,9.3-7.5,22.9-.6,3.4,1.7,7.3,2.2,10.6,4,5.2,2.7,10.2,6,15.6,9.2.7,2.9,1.4,5.9,2.2,8.9,1.7,5.5,5.5,9.5,10.5,12.4,2.1,1.3,3.6,2.9,2.4,6.2-6.3.6-11.8-2.2-17.5-5.1-2.1-4.3-4.9-8-10.5-9.9l-5.2,7.4-11.1-1.3-3.9-3.6-6.9-.6c-.3-1.4-.7-2.6-1-3.8l2.9-2.7c.8-4.7-8.8-10.5-23.3-14-.2-2.2-.4-4.6-.6-7s-6.2-1.5-5.7-5.9C1117.2,437.5,1121.6,438.9,1126.2,439Zm55.4,30.7c-1.1-2.7-1.5-6.2-3.5-8.1a43.8,43.8,0,0,0-11.2-7.2c-6.6-3.2-13.5-6.1-20.4-8.7a9.3,9.3,0,0,0-6.1.6,102.4,102.4,0,0,0-9.9,5.9c-2.1-3.4-4.2-6.8-6.6-10.9l-7,.4v1l5.7,3.9c-.1,2.2-.2,3.9-.2,4.7,9,5,19.6,6.1,24.2,16.4l-3.5,4.7,5.6.6,3.9,3.6,10.1,1.3-.7-1.4,7.4-6.9c3.5,3.1,7,5.2,9.2,8.3,4,5.6,9.8,6.4,15.8,7.4C1189.1,480.8,1183.3,476.9,1181.6,469.7Z" transform="translate(-19 -69)"/><path class="cls-1" d="M745.9,549.3c-.5-4.6-1-9.3-1.4-13.8,1.7-2.9,3.5-5.3,4.8-8a8.9,8.9,0,0,0,.6-4c.1-2.2-.1-4.3-.1-6.5,0-6.9,1.1-8.3,8.1-9.7,4.1-5.3,11.4-7.9,13.1-15.1,3.2-1.1,4.2.9,4.7,2.8,1.5,4.7,2.5,9.5.6,14.5-2.9,7.9-5.8,15.8-8.5,23.7-1,2.9-1.6,6-2.4,9s-1.5,5.3-2,7.4C755.5,554.7,750.6,554.5,745.9,549.3Zm27-54.5c-5.5,7.9-12.8,13.3-20.2,17.6v13.8l-5.7,9.6c.4,4.1,1,8.9,1.4,13.4,7.6,3.6,12.9.9,14.4-6.8a63.3,63.3,0,0,1,2.5-9.5q3.5-10.2,7.5-20.4C775,506.8,775.5,501.1,772.9,494.8Z" transform="translate(-19 -69)"/><path class="cls-1" d="M1052.2,405.9h6.9l5.2,6.5c.9,2.9-1.4,5.8-4.5,8.8l5.1,11.7h-1.6c-1.5,2.6-2.9,5.2-4.3,7.8l-7.3,14.5a40.6,40.6,0,0,1-5,0c-5-.9-9.9-2.1-14.9-2.8s-6.1-2-7.1-5.7-2.2-6.9-2.7-10.5.3-5.3.5-8.1l6.7-.4c1.5-5.6,8.3-5.5,11.1-11s8.1-6.6,12.4-9.7A3.1,3.1,0,0,1,1052.2,405.9Zm8.6,25.8h1.3c-.9-1.8-2-3.6-2.8-5.5s-1.3-3.8-1.8-5.4c2.7-3.1,5.1-5.5,3.9-9.6l-2.6-2.8h-4.6c-4.2,3.3-7.8,6.1-11.3,9h.1L1029.6,430l-5.4.6c.5,7,1.4,13.5,4.8,18.6l21.4,3.4Z" transform="translate(-19 -69)"/><path class="cls-1" d="M1069.7,430.5l21.2-1.2c.9,3.1-.4,5.5-2.7,7.3s-5,2.4-7.9.8-6.1-2.4-8.7,1.1l1.8,2,9.2-.8c1.9,4.7-3.7,4.4-3.5,7s.9,8,1.5,12.9l-6.7-1.6-2.4-5h-.8c.2,3.1.3,6.1.5,9.7l-6.5.5c-1-3.7-2.2-7.1-2.8-10.6a8.6,8.6,0,0,1,1.4-5.6,12.1,12.1,0,0,0,2.5-7.8C1065.6,435.4,1067.1,432.2,1069.7,430.5Zm7.3,2.5a31.3,31.3,0,0,0,4.8,2.5c3.3,1.1,5.5-.5,6.1-3.5l-10.9,1-7.3-.8c-.6,3.3-.9,5.9-1.5,8.4a21.6,21.6,0,0,1-2,5.9c-2.5,4.5-2.1,9.6,2.4,15.1-.2-3.4-.4-5.6-.6-8.3l3.8-3.7,5,7.1,1.3-.7c-.6-3.1-1.2-6.3-1.9-9.7l3.3-4.3-5.3,1.2-6.3-5.3Z" transform="translate(-19 -69)"/><path class="cls-1" d="M989.8,425.6l7.6,5.6,3.7,6.8h-.3c3.1,3.8,6.4,7.4,9.1,11.5,1.1,1.7,1.1,4.4,1.3,6.6s-.7,6.2-4.2,7.6-6.6-.2-9.3-2.8c-5.3-5-7.8-11.7-11.7-17.5-5.3-7.9-9.7-16.8-17.4-23.2-2.6-2.1-3.9-5.2-3.7-9.6a45.2,45.2,0,0,1,6.7.9c5.5,1.6,10.1,4.2,13,9.6C985.5,423.1,988,424.2,989.8,425.6Zm8.1,12.9c.6-3.9-2.6-5.8-5.3-7.8-4.4-3.2-8.7-6.4-12-11s-7.7-6-13.9-6.5c1.7,2.9,2.6,5.2,4.2,6.7,4.9,4.7,9.3,9.8,12.3,15.9.4.7,1.1,1.3,1.5,2,2.2,3.8,4.8,7.4,6.6,11.4a31.3,31.3,0,0,0,9.4,11.3c3.1,2.3,5.1,1.7,8.6-2.4-.8-2.8-1.1-6.6-2.9-9.5S1001.2,442.3,997.9,438.5Z" transform="translate(-19 -69)"/><path class="cls-1" d="M578.7,208.3l-17.5,2.4c-1.9.3-3.9.4-5.8.6-.1-3.7-.1-3.7,4.7-5.6l-3.7-2.4,3.1-6.6,4-2.2c.4-4.2-3.4-2.5-4.8-4-3.7-9.9-2-14.5,5.6-14.6a16,16,0,0,0,2.2,2.4,16.3,16.3,0,0,0,2.9,1.3c-.3,1.6-.7,3.2-1,4.7,5.5,2.4,5.6,8.8,9,13.1l4.5.7c.1,1.3.3,2.6.4,3.9l-.9-.2-2.1,5.9Zm1.2-7.4c-4.9-1.4-6.4-5.2-8.2-8.9-.9-1.9-2.7-3.3-4.2-4.9a26.1,26.1,0,0,0-2.5-2.3c.7-1.2,1.2-2.1,1.9-3.5l-5.7-3.6c-2.5,4.9-2.5,5-.8,9.5l6.7,6.1-7.7,8.4,4.5,3.2c-.3,1.2-.4,1.9-.7,2.9l12.9-2.4Z" transform="translate(-19 -69)"/><path class="cls-1" d="M1195.8,647.9c-.6,3.4-2.3,3.9-4.7,2.8-.2-6.6,2.5-11,8.7-13.5s13.5-6.1,20-9.5c3.1-1.7,5.8-4.3,8.8-6.3s4-2.4,7.5,1.2v5.2l-3.6,2.8-7.3,5-.3.4c-6.1,1-9.4,6.2-14.3,9.1S1201.6,649.2,1195.8,647.9Zm37.8-25.3c-3.7-1-5.3,1.6-7.3,3.1-5.4,4-10.8,8-17.3,10.2a121.4,121.4,0,0,0-11.6,5.3c-1.9.9-3.5,1.9-2.9,4.4,9,1.3,16.1-1.9,22.4-8.2,1.7-1.7,4.4-2.4,6.5-3.4l10.2-7.2Z" transform="translate(-19 -69)"/><path class="cls-1" d="M223.8,334c7.2-4.8,14.5-3.9,21.6-2.4,4.1,1,7.9,3.7,11.8,5.6l9.6,4.5c.1,1.3.3,2.5.4,3.6-6.3,4.2-12.5.2-18.8.9-.4-1.2-.7-2.3-1.1-3.8-3.4-1.9-6.9-5-10.8-5.8s-7.9,1-12.3,1.8C224,336.7,224,335.4,223.8,334Zm40.5,9.8c-14.3-10.3-29.9-13.8-37.9-7.9a38.6,38.6,0,0,1,5.4-1.5c2.1-.3,4.6-.9,6.2,0,4.7,2.5,9.1,5.7,14.4,9.2C255.5,343.2,259.8,346.4,264.3,343.8Z" transform="translate(-19 -69)"/><path class="cls-1" d="M1007,470.8v-5.5c5.3-2.9,10.5-1.3,15.7.2a16.3,16.3,0,0,0,6.6.5c3.6-.4,6.7-.2,9.8,2s6.4,3.1,9.8,4.7v4.8C1034.8,475.8,1021,474,1007,470.8Zm38.7,4,.3-.9c-2.5-1.1-5.2-1.8-7.2-3.4s-5.9-2.5-9.4-2a18.5,18.5,0,0,1-6.6-.3c-2.3-.4-4.4-1.6-6.7-1.8s-4.5.2-6.8.3v1.5c2,.8,4,2.1,6.1,2.4,8,1.2,16,2.1,23.9,3.2C1041.4,474,1043.6,474.5,1045.7,474.8Z" transform="translate(-19 -69)"/><path class="cls-1" d="M1249.7,593.7l5.2.6c.2,3.2.4,6,.6,9.8l7.3,3.8c.7,4.5.3,5-3.5,7.4a87,87,0,0,0-9.9,7.3c-3.3,2.5-6.6,4.4-10.9,3.4-2.1-3.2.9-4.8,2.2-7v-5.8l9-5.9Zm3.1,10.6c-.4,6.3-6,7-9.6,9.8v5.1l-2.8,3.8.7.9c8.4-1.6,12.8-9.3,20.2-13Z" transform="translate(-19 -69)"/><path class="cls-1" d="M1072.6,383.2l-5.9-1.7.6-7.1-3.3-3.5c-2.6-2.7-2.7-6-2-9.3s1.7-6,2.7-9.6l4.4-.3c5.6,4.9,6.4,8.5,3.2,15.4l4,4.3,6.5.9c.2,2.3.3,4.3.4,6.9l-9.6-1.1c-.1,1.8-.2,3.2-.3,4.6Zm-2.9-15.4c3.3-8.5,2.1-13-2.6-13-3.3,7.2-5.2,14.4,2.8,19.1l-.5,6.9,4.1-5.2,7,.5.3-1-4.8-1.4.3-.4Z" transform="translate(-19 -69)"/><path class="cls-1" d="M1215.5,466.5l4.8.5c.7,1.7,1.7,3.8,2.4,5.6l.4-1.1c4.8-1,7,1.1,6.6,6.7l-6-.5c-1.1,1.4-3.1,2.8-5,.6s-1.9-4-3.1-6.6l-6.3-.9c-.6-3-1.3-6.1-1.9-9.5C1212.8,460,1212.4,465.6,1215.5,466.5Zm4,2.8-2.1.2,2.8,7.5C1219.9,474.1,1219.7,472,1219.5,469.3Zm-6.3-.2.9-1.2-3.3-3-.8.9Z" transform="translate(-19 -69)"/><path class="cls-1" d="M536,145.3v4.5c-9.5,5.5-19.1,9.2-30.3,2l1.7-6.1c7-1,13.5-2.1,20.2-2.9C531.7,142.3,532.2,142.6,536,145.3Zm-2.1,3.7v-2c-1-.6-2-1.7-2.9-1.6-7.6,1-15.7-.5-22.8,4.2,5,4.5,10.2,5,16,2.5C527.4,150.8,530.7,150,533.9,149Z" transform="translate(-19 -69)"/><path class="cls-1" d="M268.4,350.5c.2-1.6.5-2.8.8-4.6,6.7.1,13.7-1.9,19.8,3.6v2.9c-8,4.4-16.3,3.5-24.6,2.7-1.8-.2-4.1-.7-3.2-4Zm1.8,1.7c5.9,3.3,10.8-.3,17-1.2-5.5-3.8-10.5-2.5-15.3-2.6C271.2,349.8,270.7,351,270.2,352.2Z" transform="translate(-19 -69)"/><path class="cls-1" d="M1193.9,451.4v-2.8c2.5-2.2,7.7-.1,12.2,4.9v4.9c-2.5,2.6-4.9,5.5-7.7,7.9a8.2,8.2,0,0,1-10.1.6,4.4,4.4,0,0,1-1.3-1.4,8.8,8.8,0,0,1-.2-2.2c2.2-.8,4.8-1.4,6.9-2.6s3.8-3.2,6.1-5.2C1197.8,454,1196.1,452.9,1193.9,451.4Zm9.5,1.7-5.8-2.9-.8,1,5.9,4.7-11.6,9.3C1197.1,466.8,1203.8,461,1203.4,453.1Z" transform="translate(-19 -69)"/><path class="cls-1" d="M1096,407.2c-2.8,2.8-5.2,6.5-10.9,4.4-.8-1.9-2-4.3-3.2-7l-6.1-.7c.3-2,.7-3.9,1.1-6.2,6.1.8,10.6-.9,12.4-6.8C1093.7,392.1,1096.5,399,1096,407.2Zm-17.3-6.4c4.6,1.8,5.6,2.8,8.6,9.5l7.1-3.6c-1.1-4.6-2.1-8.6-3.3-13.3C1087.5,398.1,1084,401,1078.7,400.8Z" transform="translate(-19 -69)"/><path class="cls-1" d="M538.7,205.4l1.2-13.2,7-4.2h9.6c3.1,5.6-4.1,9-1.8,14.8C548.9,202.3,545.4,207.8,538.7,205.4Zm16.6-14.9h-8.6l-4.2,3.4-.6,4.9c-.2,1.5-.4,3.1-.8,5.7l9.8-4Z" transform="translate(-19 -69)"/><path class="cls-1" d="M1082.2,390.4c-.3,2.2-.6,4.4-1,7.1l-5.2-1.1c-.2-2.2-.3-3.8-.4-5.4l-4-2.3c.3-1.8.7-3.6,1-5.5l.7-.5h3.7c.8-2.1,1.9-3.8,4.7-2.4s-.5,2.4-1.8,3.5-.9,2.6-1.4,4.2l3.2,1.7Z" transform="translate(-19 -69)"/><path class="cls-1" d="M260,313.1v5.2l-4.5,3.5-.6,6-6.6-2.8c.6-2.6,1.1-4.6,1.5-6.6l.3.2c-.1-1.7-.2-3.5-.3-5.5Zm-8.9,11,1.3.2.8-4.1-.8-.2C252,321.4,251.5,322.7,251.1,324.1Z" transform="translate(-19 -69)"/><path class="cls-1" d="M315.7,384.3l-2.9-.4c.6-5.3,3.8-9.3,6.1-13.9l-1.3-3.1c-1.7-2.5-5.6-1.9-4.4-5.8h6.6c1.2,3.1,2.4,6.3,3.5,9.5a26.7,26.7,0,0,0-7,13.1Z" transform="translate(-19 -69)"/><path class="cls-1" d="M1138.9,622.1c.6,8.2-7.6,14.3-16.2,12.5-1.4-2.1-1.1-4.1-.1-6.4a65,65,0,0,0,1.8-7.3Zm-2.1,2.5-10.1-1-2.6,8.6C1130.2,632.8,1134.1,630.4,1136.8,624.6Z" transform="translate(-19 -69)"/><path class="cls-1" d="M1079.1,477.9l-8.7,1.8c-.1,1.2-.3,2.6-.4,4-5.2.6-6.3-.1-7-4.5l1.8-.4,1.8-.3c.2-1.9.3-3.5.4-5.1C1074.1,471.9,1078.1,473.2,1079.1,477.9Zm-5.4-1.3c0-.4.1-.8.1-1.2l-3.9.2a3.8,3.8,0,0,0,.1,1Z" transform="translate(-19 -69)"/><path class="cls-1" d="M347.4,98.5,334.5,97c.6-1.9.7-3.7,1.6-4.6,3.4-3.5,12.9-4.5,17.9-2v4.2Zm-9.3-5.6v1.3c3,2.4,6.6,1.3,10.1,1.5l3.6-3.2a7.7,7.7,0,0,0-.7-1.6Z" transform="translate(-19 -69)"/><path class="cls-1" d="M909.8,408.8l-8.4,1.9c-1.2-6.3-3.1-11.8-.2-17.7h3.1C908.2,397.2,911.1,401.6,909.8,408.8Zm-2-2c-.4-4.8-.9-8.7-6-12,.6,5,1,8.9,1.5,13.3Z" transform="translate(-19 -69)"/><path class="cls-1" d="M1237,522.1l3.1-.2L1251,536v3.8l-4.7.6-9.3-10.2Zm2.7,3.2c-.6,5.5,4.2,11.9,9.6,11.7Z" transform="translate(-19 -69)"/><path class="cls-1" d="M1085.4,484.1h-4.8c-1.1-4.7,1.5-8.4,6.7-10.1s9.5-.1,10.7,3.1l-12.9,6.3Zm6.9-7.3c-4.4-1.1-7.7.4-10,4.5C1087.2,482.9,1088.1,476.4,1092.3,476.8Z" transform="translate(-19 -69)"/><path class="cls-1" d="M1296,520.2v-6.1l5-.6c.6-.9,1-1.7,1.4-2.4h8.7c-1.5,2.1-2.1,3.9-3.4,4.7C1299.4,521.3,1299.3,521.2,1296,520.2Zm1.3-2.5,3.5,1,4.9-6,.6.4Z" transform="translate(-19 -69)"/><path class="cls-1" d="M1081.7,389.7c.3-1.6.7-3.2,1.1-4.9l.4.2c-.1-1.6-.2-3.1-.4-4.6,6.4-1,9,1,9.2,7.3l-4.3,1c-.3,1.2-.5,2.6-.9,4.3l-3.4.2-1.2-2.8Zm8.2-5.2-3.6-2.5-1.5,6.1Z" transform="translate(-19 -69)"/><path class="cls-1" d="M1104.6,439.3l-6.1-.3c-1.6-5.2.5-9.5,1.4-13.9h6.6c-.6,2.2-1.1,4-1.5,5.8l-.4-.2Zm-3.9-2.8h1.9a34.2,34.2,0,0,1-.4-4.5,36.3,36.3,0,0,1,1-4.5l-1.3-.2C1101.3,430.3,1100.2,433.3,1100.7,436.5Z" transform="translate(-19 -69)"/><path class="cls-1" d="M1230.5,484.6l-4.1-.9c-.2-1.4-.5-2.8-.7-4.4l4.4-.9c.4-.9.8-2.1,1.2-3.3s1.3-.4,1.5-.2c3.3,3.6,3.7,8.2,4.5,12.7C1233.2,488.1,1233.2,488.1,1230.5,484.6Zm3.7.4.5-.3-2.4-4.7-2.5,1.4Z" transform="translate(-19 -69)"/><path class="cls-1" d="M1060.2,321.9h4c3,2.2,2.7,8.6-.5,14.9-2.9,1.2-4.7-.3-6-2.7C1055.3,329.5,1057.4,325.8,1060.2,321.9Zm1.8,12.8c1.2-3.4,2.6-6.6,1.2-10.3C1058.3,326.8,1057.8,331.1,1062,334.7Z" transform="translate(-19 -69)"/><path class="cls-1" d="M662.2,274.6l13.7.7v5.2l-11.1-1.2C662.7,279,661.6,277.9,662.2,274.6Z" transform="translate(-19 -69)"/><path class="cls-1" d="M1255.2,504.3l5.9-1.5c2.5,4.7,2.5,4.7-.6,14.1C1256.4,516.1,1254.2,511.1,1255.2,504.3Zm5.2,2.1-3,.9c-.3,2.4-.2,4.3,3,4.8Z" transform="translate(-19 -69)"/><path class="cls-1" d="M1066.1,386.2v6.2c-2.7,3.2-4.4,8.2-10.5,6.5C1054,393.3,1059.9,385.8,1066.1,386.2Zm-2.8,1.6c-2.8,2.9-5.1,5.1-5.9,8.3l1.1,1,5.3-4.7C1063.6,391,1063.5,389.8,1063.3,387.8Z" transform="translate(-19 -69)"/><path class="cls-1" d="M1025.1,345.7c-1.5,3.9-2.6,6.6-3.8,9.6l-7.1-.4c-.2-2.7-.4-4.9-.5-7C1016.8,344.7,1020.3,346,1025.1,345.7Zm-8.6,6.7c3.6,1,4.3-1.2,5-3.9h-5Z" transform="translate(-19 -69)"/><path class="cls-1" d="M602.3,250.1l7.5-.3v10.9l-5.6.6C603.6,257.6,603,254.3,602.3,250.1Zm5.1,2.3-1.7.2c-.8,2.1-.8,4.1,2.1,6.2C607.6,256.2,607.5,254.3,607.4,252.4Z" transform="translate(-19 -69)"/><path class="cls-1" d="M1052.5,479.5c-.3-2.2-.6-3.6-.8-5.4h11c.2,1,.4,2,.7,3.9Z" transform="translate(-19 -69)"/><path class="cls-1" d="M291,355.9v-4.8h7.4l4.1,4.9-.6,1Z" transform="translate(-19 -69)"/><path class="cls-1" d="M1101,448.4l11,1.4c-1,5.1-5.4,5.9-11,2.6Z" transform="translate(-19 -69)"/><path class="cls-1" d="M256,351.4v4.5h-9.4c-.3-1.5-.6-2.9-1-5.3Z" transform="translate(-19 -69)"/><path class="cls-1" d="M873,418.9h-5.6c-.3-1.9-.5-3.6-.7-5.3L873,409Z" transform="translate(-19 -69)"/><path class="cls-1" d="M118.7,190.4l-5.5.9c-.1-2.7-.2-4.5-.4-6.9l6.2-.8.3,6.1Z" transform="translate(-19 -69)"/><path class="cls-1" d="M745.6,489.3l4.1,3.4,4,.2c.2,1.2.3,2.4.5,4.1l-6.4.3C746.7,495,743.7,493.5,745.6,489.3Z" transform="translate(-19 -69)"/><path class="cls-1" d="M586,255v4.5l-8.6,2.6c-1.5-3.8,3.8-4,3.2-7.1Z" transform="translate(-19 -69)"/><path class="cls-1" d="M314.4,354.5c2.5,5.2-3.5,4.6-2.7,8l-1.4.2c-1.4-1.4-2.7-2.9-4.4-4.8Z" transform="translate(-19 -69)"/><path class="cls-1" d="M605,248.9v-6.5l5-.6v7.1Z" transform="translate(-19 -69)"/><path class="cls-1" d="M1341,502.3v-5.2h6c0,1.5-.1,2.9-.2,4.7Z" transform="translate(-19 -69)"/><path class="cls-1" d="M473,368.9c.9-3.9,1.3-4.2,6.8-3.8.1,1.1.2,2.3.3,3.8Z" transform="translate(-19 -69)"/><path class="cls-1" d="M1326.7,527.1c.4,4.7.4,4.7-4.6,4.9-.1-1.5-.2-3-.3-4.9Z" transform="translate(-19 -69)"/><path class="cls-1" d="M1330.1,515h4.4c.9,4.7.6,5-4.4,4.8Z" transform="translate(-19 -69)"/><path class="cls-1" d="M263.1,338.9c.5-4.2.5-4.2,5.7-3.8.1,1.1.2,2.3.3,3.8Z" transform="translate(-19 -69)"/><path class="cls-1" d="M466.1,361.2V357c1.3,0,2.6-.5,3.4-.1a13.6,13.6,0,0,1,3.1,2.8l-.6,1.2Z" transform="translate(-19 -69)"/><path class="cls-1" d="M1129,399.9v5l-3.8.2v-5Z" transform="translate(-19 -69)"/><path class="cls-1" d="M309.7,356.1c-3.8-.9-3.8-.9-3.4-4.8C310.1,351.3,310.1,351.3,309.7,356.1Z" transform="translate(-19 -69)"/><path class="cls-1" d="M319.7,359h-3.5c-.1-1.3-.2-2.5-.2-3.9h3.7Z" transform="translate(-19 -69)"/><path class="cls-1" d="M1309.1,483.2v-4.1l3.7-.3.3,4Z" transform="translate(-19 -69)"/><path class="cls-1" d="M1261.8,437.1h4.1c.1,1.2.1,2.2.3,3.7l-4,.3C1262,439.7,1262,438.7,1261.8,437.1Z" transform="translate(-19 -69)"/><path class="cls-1" d="M600.9,430.8v4.1l-3.7.3-.3-4Z" transform="translate(-19 -69)"/><path class="cls-1" d="M1293.9,429.2v3.6h-3.8v-3.6Z" transform="translate(-19 -69)"/><path class="cls-1" d="M800.2,459.1h3.6v3.8h-3.6Z" transform="translate(-19 -69)"/><path class="cls-1" d="M329.1,378.9h-4c-.1-1.2-.1-2.3-.2-3.7l4-.3C329,376.3,329,377.4,329.1,378.9Z" transform="translate(-19 -69)"/><path class="cls-1" d="M807,526.3v3.5l-3.9.2v-3.7Z" transform="translate(-19 -69)"/><path class="cls-1" d="M1285.7,400.8a16.4,16.4,0,0,1,.4,1.9,9.4,9.4,0,0,1-.2,2.2l-3.7.3-.3-4Z" transform="translate(-19 -69)"/><path class="cls-1" d="M263.9,323.6c.5,1.3,1,2.5,1.5,4-3.7,0-3.7,0-2.8-3.6Z" transform="translate(-19 -69)"/><path class="cls-1" d="M1226.1,405c-2.3.1-4.4,1-4.1-2.6C1224.1,401.6,1225.9,400.9,1226.1,405Z" transform="translate(-19 -69)"/><path class="cls-1" d="M261.6,328.3l5.4,1.9C263,332.7,263,332.7,261.6,328.3Z" transform="translate(-19 -69)"/><path class="cls-1" d="M629.1,273.4c-.9,2.6-.9,2.6-3.8,2.3C625.5,273,625.5,273,629.1,273.4Z" transform="translate(-19 -69)"/><path class="cls-1" d="M1335.3,511.1c-.2-3.4-.2-3.4,2.2-4.1C1338.4,509.1,1339.1,510.9,1335.3,511.1Z" transform="translate(-19 -69)"/><path class="cls-1" d="M797.6,319.3c-2.3,2-4.8,3.9-7,6.1s-4,4-6.7,3.1-5.5-3.1-5.3-7.5l-4.9,2-10.9-19.6c1.6-1.1,3.6-2.5,6.3-4.2,4.2,1.4,6.6,5.9,8.5,10.5,6.1,3.8,12,7,20.7,3.3l1.9,3.6Zm-21.3-7.4c-2.8-3.8-3-9.3-8.7-10.5l-2.2,2.3,7.7,12.4c3.7-1.9,4,4.7,7.6,3.2l1,5.5c5.1,2.1,7.6.7,13.1-7.7C787.5,318.5,782.1,315,776.3,311.9Z" transform="translate(-19 -69)"/><path class="cls-1" d="M629,268.9l-5.8-2.6.3-1.1c2.1.6,5.1-1.5,6.2,2.4Z" transform="translate(-19 -69)"/><path class="cls-1" d="M700.6,277.9l3-2.8c1.2,3.1-.9,3-2.2,3.6Z" transform="translate(-19 -69)"/><path class="cls-1" d="M244,136.5l3.6-.3-1.8,3.3Z" transform="translate(-19 -69)"/><path class="cls-1" d="M338.8,148.8l-5.8,1c0-.3-.1-.7-.1-1Z" transform="translate(-19 -69)"/><path class="cls-1" d="M1097.8,283.4c.2,1,.5,2,.8,3l-1.5.4-.9-3Z" transform="translate(-19 -69)"/><path class="cls-1" d="M1219.5,469.3c.2,2.7.4,4.8.7,7.7l-2.8-7.5Z" transform="translate(-19 -69)"/><path class="cls-1" d="M1213.2,469.1l-3.2-3.3.8-.9,3.3,3Z" transform="translate(-19 -69)"/><path class="cls-1" d="M251.1,324.1c.4-1.4.9-2.7,1.3-4.1l.8.2-.8,4.1Z" transform="translate(-19 -69)"/><path class="cls-1" d="M1073.7,476.6H1070a3.8,3.8,0,0,1-.1-1l3.9-.2C1073.8,475.8,1073.7,476.2,1073.7,476.6Z" transform="translate(-19 -69)"/><path class="cls-1" d="M1089.9,384.5l-5.1,3.6,1.5-6.1Z" transform="translate(-19 -69)"/><path class="cls-1" d="M1100.7,436.5c-.5-3.2.6-6.2,1.2-9.2l1.3.2a36.3,36.3,0,0,0-1,4.5,34.2,34.2,0,0,0,.4,4.5Z" transform="translate(-19 -69)"/><path class="cls-1" d="M1234.2,485l-4.4-3.6,2.5-1.4,2.4,4.7Z" transform="translate(-19 -69)"/><path class="cls-1" d="M607.4,252.4c.1,1.9.2,3.8.4,6.4-2.9-2.1-2.9-4.1-2.1-6.2Z" transform="translate(-19 -69)"/><path class="cls-1" d="M656.1,173.8l3.3,4.1c-.8,1-1.4,1.9-2.1,2.7l-6.7-.3c-.2,2.2-.4,4.2-.6,6.7l-7.3,6.5c-5.9-2.9-10.7.3-16,1.7-3.2-2-6.8-3-10.5-.6l-3.7-3.2,8.6-5.7a19,19,0,0,0,4.1-.1c2.5-.5,4.9-1.4,5.5-4.3,1-4.5,3.9-7.4,7.8-9.7,1-4.9-4.2-6-5.9-10.2,1.7-1.9,3.4-4.9,5.9-6.3s6.9-4.3,9.3-7.8a46,46,0,0,1,4.4-4.2l4.3,4.6c-3.4,5.3-9.2,9.2-6.8,16.6,4,3.1,8.6,3,13.4,1.8s7.8-1.7,11,2.2c-2.3,3.1-4.9,4.7-8.8,4.1a19.6,19.6,0,0,0-6.4,0C657.9,172.4,657.1,173.3,656.1,173.8Zm-29.8,18.3c4.7-.8,8.8-2.5,12.7-2.1s6.5-.8,8.5-3.6c.2-2.9.5-5.4.8-8.4h8.1v-.9h-6.7c.3-1.9.5-3.4.6-4.3l7.6-3c3.7-.8,8.4,1.3,12.7-1.4a38.3,38.3,0,0,0-7.6.5c-6.1.8-12,1.1-16.7-5.2.6-2.6.7-5.9,2-8.6s3.6-4.8,5.6-7.3l-2-1.6a12,12,0,0,0-2.3,2.1,24,24,0,0,1-10.7,9.2c-1.6.8-2.6,3-4,4.7l6.2,5.2v4.7a29.3,29.3,0,0,0-3.4,3c-1.4,1.5-3.1,3-3.7,4.8-1.8,5.6-5.3,8.4-11.2,8.4-1,0-2,.8-3.8,1.6Z" transform="translate(-19 -69)"/><path class="cls-1" d="M726.5,252.6c-5,1.8-8.8.8-12.5-1.3-5.3-2.9-11.1-3.4-16.9-2.9-2,.2-3.9,1.5-6.7,2.7l-6.6.5-6.8-5.4c1.8-9.4,6.9-16.2,14-21.3,3.8,1.9,6.7,3.9,6.8,9l8.4-1.1-3.7-5,10.3-5.1c6.5,3.2,1.5,7.3,1.4,11.1,5.4,4.3,12.6,5.8,17.3,12.3Zm-46.6-6.3,4,2.5h7c2-1.4,4.1-2.7,6.2-2.9,6-.6,11.9,0,17.3,3a14.6,14.6,0,0,0,11.6,1.4l3.1-4.8-17.8-10.7c1-3.5,1.8-6.2,2.8-9.8l-8.9,3.8,4,1.6c-.1,4.5-3.8,4.8-6.5,5.7a7.1,7.1,0,0,1-7.7-2.4c-.2-1.4-.4-2.8-.6-4l-3.6-2.3C685.3,232.6,680.7,238.1,679.9,246.3Z" transform="translate(-19 -69)"/><path class="cls-1" d="M747.4,235.4c4.2-3.7,8-7.2,12-10.3s6-1.8,8.8.3,3.1,2.4,4.1,3.2c-1,5.3-4.8,4.2-7.8,5.5q-.2,2.4-.3,5.4l8.8,6.1,4,.4,4.5,5.5-5.3,3.9c1.8,2.5,3.6,5.3,5.9,8.7V268l-6.6,5.5c-5.7-3.1-11.9-4.6-15-9.2-.3-4.9-.4-9-.9-13a9,9,0,0,0-2.1-3.8C754.3,243.5,751,239.7,747.4,235.4Zm31.1,15.9c-1-1.2-1.7-2.8-2.3-2.7-4.6.1-7.2-3.7-10.9-5.3s-4.1-4.5-3.5-7.9,2.8-4.7,6-4.7a8.1,8.1,0,0,0,1.9-.4c-3.4-4.2-5.8-5.2-9-3.1s-6.9,5.3-10.3,8c3.9,5.1,7.8,9.3,10.8,14.1,1.5,2.4,1.6,5.9,1.9,8.9s-.6,3.2-1.2,5.5l12.7,7c5.3-2.6,5.3-2.6,4.7-7.4-2.9-3.1-6-6.2-5.2-11.2Z" transform="translate(-19 -69)"/><path class="cls-1" d="M800,141.4c2.7-2.8,1.9-5.8.6-9.2l2.9-2.7,5.7,7c.3,3.9-3.3,5.6-7.1,7.8Zm3.9-8.3c.2,2.5.3,4.9.5,7.2C807.7,137,807.7,136.7,803.9,133.1Z" transform="translate(-19 -69)"/><path class="cls-1" d="M242.3,249.5l-3.9-3.9c4.3-7.8,7.3-16.1,16.6-17.8-9.5-2.9-9.5-2.9-15.8-.4l-3.6-2.7c5.8-6.2,12.9-8,20.6-9,3.4,2.9,7.3,5.3,5.1,11.4H270l5,6-6.3,4.2-.2-.5-6.1,4.6-3.8-3.6c.9-1.9,1.5-3.3,2.4-5.1l-4.2-.7c-4.7,1.4-6.9,4.5-8.5,8.6S244.7,245.9,242.3,249.5Zm-2.8-24.8a13.1,13.1,0,0,1,13-.5c2,.9,4.6.4,7,.5l.6-1.2-3.9-5.5C249.8,219.6,243.8,220,239.5,224.7Zm22,13c3.7,1.4,3.9-2.7,5.8-3.7l5.5-.9-3.2-3.6-5.6,1.1C263.1,233,262.4,235.1,261.5,237.7ZM250.1,232c-4.6,4.4-7.7,9.8-7.2,13.9C245.1,241.5,247.4,237.1,250.1,232Z" transform="translate(-19 -69)"/><path class="cls-1" d="M260.4,250.2l-3-3.3,8.9-5.4,3.2,3.5Z" transform="translate(-19 -69)"/><path class="cls-1" d="M281,235.4l3.3,3.2-5.1,3.9-3.6-3Z" transform="translate(-19 -69)"/><path class="cls-1" d="M360.5,440.3l-5,3.2-4.2-3.1,5.2-4.7Z" transform="translate(-19 -69)"/><path class="cls-1" d="M364.1,447.3l-4.5-3.8,3.8-3.2,4.2,3.2Z" transform="translate(-19 -69)"/><path class="cls-1" d="M509.3,126.5l-3.8,3.3-4.4-3.8,3.5-4.7Z" transform="translate(-19 -69)"/><path class="cls-2" d="M620.2,69a36.4,36.4,0,0,0-36.3,36.4c0,34.7,36.3,80,36.3,80s36.4-45.3,36.4-80A36.4,36.4,0,0,0,620.2,69Zm0,56.4a19.6,19.6,0,1,1,19.7-19.6A19.6,19.6,0,0,1,620.2,125.4Z" transform="translate(-19 -69)"/></svg>