<?xml version="1.0" encoding="utf-8"?>
<!-- Generator: Adobe Illustrator 22.1.0, SVG Export Plug-In . SVG Version: 6.00 Build 0)  -->
<svg version="1.1" id="Layer_1" xmlns="http://www.w3.org/2000/svg" xmlns:xlink="http://www.w3.org/1999/xlink" x="0px" y="0px"
	 viewBox="0 0 132 130" style="enable-background:new 0 0 132 130;" xml:space="preserve">
<style type="text/css">
	.st0{fill:#E3E3E3;}
</style>
<title>new-tab-icon</title>
<path class="st0" d="M56.6,70.8l53.3-56.7c1.4-1.4,3.6-1.5,5.1-0.2l3.7,3.5c1.4,1.4,1.5,3.6,0.2,5.1L65.5,79.2
	c-1.4,1.4-3.6,1.5-5.1,0.2l-3.7-3.5C55.3,74.5,55.2,72.2,56.6,70.8z"/>
<path class="st0" d="M132,26.5V5.6c0.1-2.5-1.9-4.5-4.4-4.6c-0.1,0-0.1,0-0.2,0h-20.9C102,0.9,98.3,4.4,98,8.8
	c0,0.4,0.1,0.9,0.4,1.2l9.2,10.4h0.2l7.1,7.1c0,0.1,0.1,0.2,0.2,0.2l7.3,6.3c0.8,0.7,1.8,1,2.8,0.8C129.1,34,131.9,30.5,132,26.5z"
	/>
<path class="st0" d="M128.5,82H125h-6.3c-0.9-0.1-1.6,0.6-1.7,1.5c0,0.1,0,0.1,0,0.2V105c0,6.6-5.4,12-12,12H27c-6.6,0-12-5.4-12-12
	V24c0-6.6,5.4-12,12-12h55c0.5,0.1,0.9-0.3,1-0.8c0-0.1,0-0.1,0-0.2V6V1c0.1-0.5-0.3-0.9-0.8-1c-0.1,0-0.1,0-0.2,0H12
	C5.4,0,0,5.4,0,12v106c0,6.6,5.4,12,12,12h106c6.6,0,12-5.4,12-12V83.5C130,82.7,129.3,82,128.5,82z"/>
</svg>
