<?xml version="1.0" standalone="no"?>
<!DOCTYPE svg PUBLIC "-//W3C//DTD SVG 20010904//EN"
 "http://www.w3.org/TR/2001/REC-SVG-20010904/DTD/svg10.dtd">
<svg version="1.0" xmlns="http://www.w3.org/2000/svg"
 width="833.000000pt" height="833.000000pt" viewBox="0 0 833.000000 833.000000"
 preserveAspectRatio="xMidYMid meet">
<metadata>
Created by potrace 1.11, written by Peter Selinger 2001-2013
</metadata>
<g transform="translate(0.000000,833.000000) scale(0.100000,-0.100000)"
fill="#000000" stroke="none">
<path d="M4155 7123 c-3 -10 -27 -72 -52 -138 -24 -66 -49 -129 -54 -140 -10
-24 -192 -499 -244 -640 -12 -33 -80 -208 -150 -390 -70 -181 -137 -357 -149
-390 -34 -90 -235 -613 -774 -2020 -19 -49 -44 -117 -56 -150 -39 -105 -527
-1379 -536 -1400 -5 -11 -27 -67 -49 -125 -22 -58 -42 -113 -46 -122 -7 -17 3
-18 128 -18 l135 0 37 98 c21 53 60 153 86 222 27 69 112 292 190 495 77 204
151 397 164 430 20 51 171 445 365 955 27 69 188 492 360 940 172 448 357 932
411 1075 55 143 102 267 106 275 3 8 7 17 7 20 2 8 58 152 71 185 7 17 23 56
35 88 13 32 24 56 26 55 3 -4 62 -155 99 -253 12 -33 93 -244 179 -470 182
-473 260 -676 415 -1085 62 -162 116 -304 122 -315 5 -11 29 -74 54 -140 25
-66 77 -201 114 -300 38 -99 151 -394 251 -655 100 -261 200 -522 222 -580 73
-193 85 -224 127 -335 24 -60 46 -119 51 -130 5 -11 35 -90 68 -175 l59 -155
-1532 -3 -1532 -2 -1 -120 0 -120 1714 0 1714 0 -26 68 c-14 37 -32 85 -40
107 -8 22 -18 49 -24 60 -5 11 -23 58 -40 105 -17 47 -36 94 -40 105 -5 11
-44 110 -85 220 -64 169 -135 355 -215 565 -18 47 -232 605 -305 795 -23 61
-115 301 -204 535 -89 234 -166 434 -171 445 -5 11 -46 117 -90 235 -45 118
-92 242 -105 275 -25 64 -219 571 -312 815 -30 80 -71 185 -90 234 -19 50 -64
167 -99 260 -36 94 -67 178 -71 186 -3 8 -7 17 -8 20 -1 3 -5 12 -8 20 -4 8
-47 123 -98 255 -50 132 -92 241 -94 243 -1 2 -6 -5 -10 -15z"/>
</g>
</svg>
