<svg id="Layer_1" data-name="Layer 1" xmlns="http://www.w3.org/2000/svg" viewBox="0 0 158.9 168.6"><defs><style>.cls-1{fill:#f68536;}.cls-2{fill:#9d5025;}.cls-3{fill:#201c1d;}.cls-4{font-size:29.48px;font-family:Verdana, Verdana;}</style></defs><title>aws-ec2</title><path class="cls-1" d="M53.2,106.9l-12.6,2.9V28.2l12.6,2.9v75.8" transform="translate(-7.7 -4)"/><path class="cls-1" d="M69,111.7l-15.8,4.5V21.9L69,26.4v85.3m20.1,5L69,124.1V14.1l20.1,7.4v95.2m53.9-9.5L89.1,134.1V4L143,30.9v76.3" transform="translate(-7.7 -4)"/><path class="cls-2" d="M78.4,9.4,89.1,4V134.1l-10.7-5.4V9.4M60.6,18.2,69,14.1V124l-8.4-4.1V18.2m-14,7,6.6-3.3v94.3l-6.6-3.3V25.2m-6,3-5.4,2.7v76.3l5.4,2.7V28.2" transform="translate(-7.7 -4)"/><path class="cls-3" d="M14.3,136.5c-2.6,0-5.5,1-6.1,4.3a.3.3,0,0,0,.3.5l2.7.3c.3,0,.4-.2.5-.5a2,2,0,0,1,2.2-1.6,1.6,1.6,0,0,1,1.5.7,3.3,3.3,0,0,1,.3,2v.4a22.8,22.8,0,0,0-5.1.9,4.8,4.8,0,0,0-2.9,4.6c0,2.9,1.8,4.4,4.1,4.4a5.4,5.4,0,0,0,4.5-2.1,6.2,6.2,0,0,0,1.5,1.9.6.6,0,0,0,.7-.1h0l2.1-1.9c.2-.2.1-.5,0-.8a3.7,3.7,0,0,1-1.1-2.6v-4.3c0-1.9.2-3.6-1.1-4.8a5.9,5.9,0,0,0-4.1-1.4Zm35.7,0c-2.6,0-5.5,1-6.1,4.3a.4.4,0,0,0,.4.5l2.7.3a.5.5,0,0,0,.4-.5,2.1,2.1,0,0,1,2.2-1.6,1.5,1.5,0,0,1,1.5.7,3.3,3.3,0,0,1,.4,2v.4a20.9,20.9,0,0,0-5.1.9,4.8,4.8,0,0,0-3,4.6c0,2.9,1.8,4.4,4.1,4.4a5.3,5.3,0,0,0,4.5-2.1,6.7,6.7,0,0,0,1.6,1.9.5.5,0,0,0,.6-.1h0l2.1-1.9a.6.6,0,0,0,0-.8,3.7,3.7,0,0,1-1-2.6v-4.3c0-1.9.1-3.6-1.2-4.8a5.9,5.9,0,0,0-4.1-1.4Zm-20.1.1a3.7,3.7,0,0,0-3.6,2.7h0v-1.9a.5.5,0,0,0-.5-.5H23.2a.5.5,0,0,0-.5.5v14.4a.5.5,0,0,0,.5.5h2.7a.6.6,0,0,0,.6-.5v-7.7c0-1.6-.1-3.9,1.8-3.9s1.7,2.3,1.7,3.9v7.7a.5.5,0,0,0,.5.5h2.7a.6.6,0,0,0,.6-.5v-7.7a8,8,0,0,1,.2-2.7,1.9,1.9,0,0,1,1.6-1.2,1.4,1.4,0,0,1,1.6,1.2,12.2,12.2,0,0,1,.1,2.7v7.7a.5.5,0,0,0,.5.5h2.7a.6.6,0,0,0,.6-.5v-9.1c0-1.6.1-3.3-.7-4.5a3.9,3.9,0,0,0-3.2-1.6,4,4,0,0,0-3.8,2.7c-.7-1.8-1.8-2.7-3.5-2.7Zm46.4,0c-3.9,0-6.1,3.5-6.1,8s2.2,8,6.1,8,6.3-3.5,6.3-7.9-2.2-8.1-6.3-8.1Zm15.6,0c-1.9,0-3,1-3.7,2.9h-.1v-2.2a.5.5,0,0,0-.5-.4H85.1a.5.5,0,0,0-.5.5v14.4a.5.5,0,0,0,.5.5h2.7a.5.5,0,0,0,.5-.5V144a6.5,6.5,0,0,1,.5-2.7,1.7,1.7,0,0,1,1.5-1.1c1.9,0,1.7,2.3,1.7,3.8v7.8c.1.3.3.5.5.5h2.8a.5.5,0,0,0,.5-.5v-9c0-1.4,0-3.3-.7-4.5a3.7,3.7,0,0,0-3.2-1.7Zm-32.8.3a.5.5,0,0,0-.5.5v2.1a.5.5,0,0,0,.5.5h4.7l-5.4,7.9a2.7,2.7,0,0,0-.3,1.4v2.1a.5.5,0,0,0,.6.5,10,10,0,0,1,9.5-.1.5.5,0,0,0,.7-.4v-2.2a.8.8,0,0,0-.5-.8,9.3,9.3,0,0,0-5.1-1.1l4.6-6.9c.4-.6.7-.9.7-1.2v-1.8a.5.5,0,0,0-.5-.5Zm17.2,2.7a1.6,1.6,0,0,1,1.8,1.3,12.3,12.3,0,0,1,.4,3.8c0,1.9-.1,4.9-2.2,4.9s-2.1-3.7-2.1-5.5S74.3,139.6,76.3,139.6Zm-60.6,5.2v.6a5.2,5.2,0,0,1-.5,3,2.2,2.2,0,0,1-1.9,1.3c-1,0-1.6-.9-1.6-2.1S13.7,144.8,15.7,144.8Zm35.8,0v.6a6.1,6.1,0,0,1-.5,3,2.3,2.3,0,0,1-1.9,1.3c-1.1,0-1.7-.9-1.7-2.1S49.5,144.8,51.5,144.8Z" transform="translate(-7.7 -4)"/><path d="M69.2,152.8v2h1.3v-2Zm-40.2.3v14.7h1.3v-1.4a3.1,3.1,0,0,0,1,1.2,2,2,0,0,0,1.3.4,3,3,0,0,0,2.4-1.5,6.7,6.7,0,0,0,1.1-4.1,8.5,8.5,0,0,0-.5-3,4.4,4.4,0,0,0-1.2-1.9,2.8,2.8,0,0,0-1.8-.6,1.9,1.9,0,0,0-1.2.4,2.7,2.7,0,0,0-1,1.1v-5.3Zm13.2,3.4a2.9,2.9,0,0,0-2.3.9,3.3,3.3,0,0,0-.8,2.2,3.2,3.2,0,0,0,.3,1.4,2.8,2.8,0,0,0,.9,1l2.1.9a3.1,3.1,0,0,1,1.4.6,1.1,1.1,0,0,1,.4,1,1.6,1.6,0,0,1-.5,1.2,2,2,0,0,1-1.4.4,1.7,1.7,0,0,1-1.4-.5,2.2,2.2,0,0,1-.6-1.7l-1.4.3c.3,2.3,1.4,3.4,3.4,3.4a3.2,3.2,0,0,0,2.4-.9,3.5,3.5,0,0,0,.9-2.5,5.9,5.9,0,0,0-.2-1.4,2.4,2.4,0,0,0-.8-.9,8.8,8.8,0,0,0-2.3-1,3.8,3.8,0,0,1-1.4-.6,1.1,1.1,0,0,1-.5-.9,1.2,1.2,0,0,1,.5-1c.2-.3.7-.4,1.3-.4a1.7,1.7,0,0,1,1.8,1.7l1.3-.2a3.8,3.8,0,0,0-.5-1.7,2.2,2.2,0,0,0-1-.9,2.9,2.9,0,0,0-1.6-.4Zm8.4,0a3.2,3.2,0,0,0-2.7,1.5,8.2,8.2,0,0,0,0,8.2,3.1,3.1,0,0,0,2.8,1.4,3.6,3.6,0,0,0,2.3-.8,4.9,4.9,0,0,0,1.3-2.6l-1.4-.2c-.4,1.4-1.2,2.1-2.2,2.1a2.1,2.1,0,0,1-1.7-.9,5.8,5.8,0,0,1-.8-2.7h6.1V162a6.6,6.6,0,0,0-1-4,3.2,3.2,0,0,0-2.7-1.5Zm8.5,0a1.3,1.3,0,0,0-.9.4,3.2,3.2,0,0,0-.9,1.5v-1.6H56v10.6h1.4v-5.6a8.3,8.3,0,0,1,.3-2.2,1.9,1.9,0,0,1,.5-.9,1.1,1.1,0,0,1,.8-.3,1.4,1.4,0,0,1,1,.4l.5-1.7a2.4,2.4,0,0,0-1.4-.6Zm16.9,0a3.3,3.3,0,0,0-2.7,1.4,7,7,0,0,0-1.1,4.2,6.7,6.7,0,0,0,1.1,4.1,3,3,0,0,0,2.6,1.4,2.9,2.9,0,0,0,2.3-1,5.2,5.2,0,0,0,1.2-2.9l-1.4-.2a3.4,3.4,0,0,1-.7,2,1.8,1.8,0,0,1-1.3.6,2,2,0,0,1-1.7-.9,6.5,6.5,0,0,1-.6-3.2,5.6,5.6,0,0,1,.6-3,2.1,2.1,0,0,1,1.7-1,1.7,1.7,0,0,1,1.2.5,3.4,3.4,0,0,1,.7,1.7l1.3-.3a3.7,3.7,0,0,0-1.1-2.5,2.7,2.7,0,0,0-2.1-.9Zm7.9,0a3.5,3.5,0,0,0-2.8,1.5,8.9,8.9,0,0,0,0,8.2,3.4,3.4,0,0,0,2.8,1.4,3.8,3.8,0,0,0,2.4-.8,5.8,5.8,0,0,0,1.3-2.6l-1.5-.2q-.6,2.1-2.1,2.1a2,2,0,0,1-1.7-.9,4.8,4.8,0,0,1-.8-2.7h6.1V162a6.6,6.6,0,0,0-1.1-4,3,3,0,0,0-2.6-1.5Zm8.2,0a3,3,0,0,0-2.3.9,3.3,3.3,0,0,0-.8,2.2,3.2,3.2,0,0,0,.3,1.4,2.8,2.8,0,0,0,.9,1l2.1.9a3.1,3.1,0,0,1,1.4.6,1.1,1.1,0,0,1,.5,1,2.1,2.1,0,0,1-.5,1.2,2.1,2.1,0,0,1-1.4.4,2,2,0,0,1-1.5-.5,2.6,2.6,0,0,1-.6-1.7l-1.4.3c.3,2.3,1.4,3.4,3.4,3.4a3.1,3.1,0,0,0,3.4-3.4,3.2,3.2,0,0,0-.3-1.4,2.4,2.4,0,0,0-.8-.9,9.4,9.4,0,0,0-2.2-1,3.8,3.8,0,0,1-1.5-.6,1.1,1.1,0,0,1-.5-.9,1.2,1.2,0,0,1,.5-1,1.7,1.7,0,0,1,1.3-.4,1.7,1.7,0,0,1,1.8,1.7l1.4-.2a5.8,5.8,0,0,0-.5-1.7,3.1,3.1,0,0,0-1.1-.9,2.9,2.9,0,0,0-1.6-.4Zm-31.6.3,3.1,10.6h1.3L68,156.8H66.5l-1.8,6.4c-.2.8-.4,1.5-.5,2.1s-.3-1.5-.5-2.2l-1.8-6.3Zm8.7,0v10.6h1.3V156.8Zm-45.5.1a3.2,3.2,0,0,0-2.7,1.5,6.7,6.7,0,0,0-1.1,4.1,6.9,6.9,0,0,0,1.1,4.1,3.4,3.4,0,0,0,2.8,1.4,2.9,2.9,0,0,0,2.2-.9,4.6,4.6,0,0,0,1.3-2.5l-1.4-.3c-.4,1.5-1.1,2.2-2.1,2.2a2.1,2.1,0,0,1-1.7-.9,4.8,4.8,0,0,1-.8-2.7h6v-.5a6.9,6.9,0,0,0-1.1-4.1,3.3,3.3,0,0,0-2.6-1.4Zm-15.6.2,2.5,10.7h1.5l1.6-8.2.3,1.8,1.3,6.4h1.4l2.5-10.7H17.9l-1.4,6.2-.4,2-.5-2-1.2-6.2H13l-1.3,6.3-.4,2.2-.5-2.3-1.3-6.2Zm88.3.2v.5h1.3v3.5h.6v-3.5h1.3v-.5Zm3.8,0v4h.5v-3.4l1.1,3.4h.5l1.2-3.4v3.4h.5v-4h-.7l-1,2.8c-.1.3-.1.5-.2.6l-.2-.6-1-2.8Zm-49.6.7a1.9,1.9,0,0,1,1.7,1,4.3,4.3,0,0,1,.6,2H48.3a3.8,3.8,0,0,1,.7-2.2A2.3,2.3,0,0,1,50.6,158Zm33.3,0a2,2,0,0,1,1.7,1,3.4,3.4,0,0,1,.5,2H81.6a3.8,3.8,0,0,1,.7-2.2A2.3,2.3,0,0,1,83.9,158Zm-60.2.4a2,2,0,0,1,1.7,1,3.4,3.4,0,0,1,.5,2H21.4a4.8,4.8,0,0,1,.7-2.2A2.3,2.3,0,0,1,23.7,158.4Zm8.8,0a1.7,1.7,0,0,1,1.5,1,4.7,4.7,0,0,1,.7,3,5.3,5.3,0,0,1-.7,3.1,1.7,1.7,0,0,1-1.5,1,1.5,1.5,0,0,1-1.1-.4,2.4,2.4,0,0,1-.8-1.3,7,7,0,0,1-.3-2.4,5.1,5.1,0,0,1,.7-3,1.7,1.7,0,0,1,1.5-1Z" transform="translate(-7.7 -4)"/><text class="cls-4" transform="translate(101 159.6)">EC2</text></svg>