<svg id="Layer_1" data-name="Layer 1" xmlns="http://www.w3.org/2000/svg" viewBox="0 0 136.2 157.2"><defs><style>.cls-1{fill:#36a2eb;}.cls-2{fill:#ffce56;}.cls-3{fill:#fe6184;fill-opacity:0.8;}.cls-4{fill:none;stroke:#e7e9ed;stroke-width:8px;}.cls-5{font-size:24.29px;font-family:Calibri-Bold, Calibri;font-weight:700;}</style></defs><title>chart</title><path class="cls-1" d="M144.1,80.6c-22,.4-17.4,14.3-32.9,17.8S93,60,77.2,60,58,100.8,38.3,128.8l-.5.8L80,154l64.1-37Z" transform="translate(-11.9 -1.4)"/><path class="cls-2" d="M144.1,79.3C136.7,69.9,131.7,59,121,59c-19,0-14,31-35,31S62.8,56.7,39,88a165.5,165.5,0,0,0-18.5,31.7L80,154l64.1-37Z" transform="translate(-11.9 -1.4)"/><path class="cls-3" d="M15.9,92.1C23.1,72.2,26.2,56,40,56c21,0,26,59,44,53s16-38,44-38c5.3,0,10.8,3.3,16.1,8.5V117L80,154,15.9,117Z" transform="translate(-11.9 -1.4)"/><path class="cls-4" d="M80,6l64.1,37v74L80,154,15.9,117V43Z" transform="translate(-11.9 -1.4)"/><text class="cls-5" transform="translate(29.1 123.8)">Chart.js</text></svg>