<svg id="Layer_1" data-name="Layer 1" xmlns="http://www.w3.org/2000/svg" viewBox="0 0 91.9 91.9"><defs><style>.cls-1{fill:#e84427;}</style></defs><title>git</title><path class="cls-1" d="M106.5,58,66.4,17.9a5.9,5.9,0,0,0-8.3,0l-8.4,8.3L60.3,36.8a7,7,0,0,1,8.9,8.9L79.4,55.9a7.1,7.1,0,1,1-2.7,11.7,7,7,0,0,1-1.5-7.7l-9.5-9.5v25a7.5,7.5,0,0,1,1.8,1.3,7,7,0,1,1-9.9,0,5.7,5.7,0,0,1,2.3-1.5V50a7.3,7.3,0,0,1-2.3-1.6,6.9,6.9,0,0,1-1.5-7.7L45.6,30.3,18.1,57.8a6,6,0,0,0,0,8.4l40.1,40.1a6,6,0,0,0,8.4,0l39.9-39.9A5.8,5.8,0,0,0,106.5,58Z" transform="translate(-16.4 -16.1)"/></svg>