<svg id="Layer_1" data-name="Layer 1" xmlns="http://www.w3.org/2000/svg" viewBox="0 0 200 200"><defs><style>.cls-1{stroke:#87ce02;stroke-miterlimit:10;stroke-width:5px;}.cls-2,.cls-8{fill:#88ce02;}.cls-3{fill:#efefef;}.cls-4{fill:#001423;}.cls-5{opacity:0.3;}.cls-5,.cls-7{isolation:isolate;}.cls-6{fill-opacity:0;}.cls-7{opacity:0.4;}.cls-8{stroke:#000;stroke-linejoin:round;stroke-width:1.59px;}.cls-9{fill:#fff;}</style></defs><title>greensock</title><rect class="cls-1" x="2.5" y="2.5" width="195" height="195"/><path d="M57.7,74c-3.3,1.6-12.2,8.7-13.9,10.8s-2.3-1.2-.4-6.6,5.1-10.4,11.3-15.5C58.3,59.8,66.2,55.5,71,53a166,166,0,0,1,25.1-8.6c.9-.2-1.2,1.7-1.5,2.7-1.7,5-35.8,26.4-35.8,26.4Z" transform="translate(0 0)"/><path d="M105.6,134.1c.6,3.6.1,3.8-3.6,4.3a9.5,9.5,0,0,1-7.3-1.8,4.1,4.1,0,0,1-.2-4.8c.6-1.2,1.2-1.6,1.5-3a6.7,6.7,0,0,1,.9-2.3c.2-.4.3-.9.3-4.1s0-9.2.4-11.8,11.6,1.2,11.6,1.2-2.7,6.7-3.4,8.3-.6,4.8-.6,5.5a4.4,4.4,0,0,1-.5,2c-.2,0,.7,1.8.3,2.7S105.6,133.6,105.6,134.1Z" transform="translate(0 0)"/><path d="M110,33.9c-.4-2.4,0-7.4.5-8.1,1.6-2.3,10.3-2.5,12.1.1s.7,3.9.6,5.7-.6,5.6-.7,6.8-9.5,2.4-11.6-.1C110.3,37.6,110,33.9,110,33.9Z" transform="translate(0 0)"/><path d="M129.2,127.8c4,2.9,7.1,3.4,9.1,4.4s1.5,3.1-1.9,3.7-7-.5-9.9-.5-9.3.3-11-.9-1.2-3.9-1.2-3.9,1.9-4.7,1.5-7.3a25.4,25.4,0,0,0-1.9-6.5c-1-2.4-1.7-8.4-.8-8.7s.7,0,1.8.3a23.4,23.4,0,0,0,5.1.6,36.8,36.8,0,0,0,6.3-.6c1-.1,1.8-.3,1.5,1.7s-1.3,5.8-1.4,8.8a44.7,44.7,0,0,0,.1,6.9C126.7,126.4,128.2,127.1,129.2,127.8Z" transform="translate(0 0)"/><path class="cls-2" d="M115.2,40.5C108,46.7,94,48.4,73.3,56.4,68,58.5,53.9,64.5,50.5,70.9c11.4-6.6,15.7,2.5,16.6,11.9s5.2,13.3,16.5,13.1,15.2,6.5,18.4,14.4c6.2-30.4,16.1-36.3,22.6-41.4C138.2,57.8,121.4,38.3,115.2,40.5Z" transform="translate(0 0)"/><path class="cls-2" d="M115.2,40.5c-17.3,6-34.4,7.5-54.5,19.9-4.8,3-14.9,9.7-16.9,22.4C51.2,74.7,68.1,64.5,88.9,58c10.5-3.3,18.2-5.4,27.5-9C115.7,44.8,115.7,43.1,115.2,40.5Z" transform="translate(0 0)"/><path d="M137.3,76.4s-1.3,4.3-3.8,5.6c0,0-1.8.7-5.5-1.3a4.8,4.8,0,0,1-1.7-3.3,2.8,2.8,0,0,1,1-2.3s1.1-1.8,2.3-1.7,3.4.3,4-.3S137.4,74.2,137.3,76.4Z" transform="translate(0 0)"/><path d="M110.5,35.2a40,40,0,0,1-.7,5.4c0,.4-2,.6-3.4,1.2,2.7,7.9,19.3,7.8,21.4,3.9a27.3,27.3,0,0,0-4.1-2.2c-1-.4-.9-.3-1-2.2s-.2-5.2-.3-6.1S112.1,34.3,110.5,35.2Z" transform="translate(0 0)"/><path class="cls-3" d="M111.2,35.2s0,1.9-.2,3.7a11.8,11.8,0,0,1-.3,2.1c0,.3,2.3,1.9,2.9,5.4,3.2,7,10.4,3.5,13.5.2a29.5,29.5,0,0,0-4.8-2.5c-.9-.4-.5-1.2-.5-3.1s-.4-4.5-.5-5.5S112.8,34.3,111.2,35.2Z" transform="translate(0 0)"/><path d="M110.5,35.2a18.6,18.6,0,0,1-.2,2.5,24.7,24.7,0,0,0,2.8,2.8c.6.5,2,.5,3.3.5s2.3.1,2.7-.2a11.3,11.3,0,0,0,3.4-2.8,17,17,0,0,0-.2-2.8C122.3,34.3,112.1,34.3,110.5,35.2Z" transform="translate(0 0)"/><path d="M116.5,40.2l-2.4-.2-.9-.4-1.5-1.1c-1-.8-1.1-1.3-1.1-1.5a29.2,29.2,0,0,0-.1-7.6s-.5-1.7,2-2.2a22.7,22.7,0,0,1,4-.5,21.7,21.7,0,0,1,4,.5c2.5.5,2,2.2,2,2.2a29.2,29.2,0,0,0-.1,7.6c0,.2-.1.7-1.1,1.5a9.3,9.3,0,0,1-2.4,1.5Z" transform="translate(0 0)"/><path d="M116.5,25c-4.3,0-5.2,1.1-6.4,2.5s-.1,2.3.4,6.4h.6a8.1,8.1,0,0,1-.4-2.5c.1-1.4.4-1.3.2-1.6s-.8-1.1.4-1.8,3,.6,5.2.6,4.1-1.2,5.3-.6.7,1.4.4,1.8.1.2.1,1.6a6.7,6.7,0,0,1-.3,2.5h.6c.4-4.1.7-6,.5-6.3S120.8,25,116.5,25Z" transform="translate(0 0)"/><path d="M137.3,76.6s-1.3,4-3.7,5.4c-.5-.3-.4-.7-.9-1.3s-.6-.3-.8-.5-.1-.5-.5-.8-.4,0-.7-.2a5.6,5.6,0,0,0-.5-.8c-.1-.2-.7-.2-.8-.4s-3.2-.9-3.1-1.5a6.4,6.4,0,0,1,.8-1.7s1.3-1.9,2.5-1.8,2.4.3,3.1-.3S137.5,74.5,137.3,76.6Z" transform="translate(0 0)"/><path d="M128.8,47.6s4.1-.9,6.9,1.7a7.7,7.7,0,0,1,1.8,8.3,6.4,6.4,0,0,1,1,6c4.4,3.7,2.5,9.3-1.4,13.1a5.1,5.1,0,0,0-4.6-3.6c.1-1.3-3.4-2.4-1.8-5.8-2.5-.6-2.4-2.3-2.8-4.4S128.8,47.6,128.8,47.6Z" transform="translate(0 0)"/><path class="cls-3" d="M127.3,49.5s4.7-2.4,7.6.3,2,5.8,1.1,7.9a5.9,5.9,0,0,1,1.4,6.1c-.2.7-1.6.7-2.7,2.4,2.6-1.5,4.3-1.1,4.9.8s-1.1,6.5-2.9,8.4v-.2a9.8,9.8,0,0,1-2.5,5c-1,1.1-1.8.9-2.9.7s-1.8-1-3.6-1.9-.5-1.3-.5-1.9.2-.4.4-.6a4,4,0,0,1,1.1-1.5,2.8,2.8,0,0,1,2.1-1.1,4.8,4.8,0,0,0,2.8-.5h0c0-2.3-2.6-2.4-1.7-6.3.1-.2.4-.5,1.5-.7-1.6-.3-2.3-.3-3.4-1.4a4.6,4.6,0,0,1-1.6-2.8C127.9,60.2,127.3,49.5,127.3,49.5Z" transform="translate(0 0)"/><path d="M113.4,45.3a11.7,11.7,0,0,0-6.3-4.1c-1.1-.4-1.8.5-2.9,1.2s-1.8-.9-2.6-.4a11.3,11.3,0,0,1-2.1,1.2,4.9,4.9,0,0,0-2.3.2,6.4,6.4,0,0,0-3.4,2.5c-.7,2.9,13.9.8,13.9.8Z" transform="translate(0 0)"/><path class="cls-2" d="M113.6,45.3c-2.1-.7-1.8-3.1-6.5-3.5-.9-.1-1.5.7-2.1,1.1a6.4,6.4,0,0,1,.8,1.4,5,5,0,0,0-2.7-1.7c-.9-.2-1.6.5-2.6,1s.3.6.6,1a2.8,2.8,0,0,0-2.8-.4A7,7,0,0,0,94.6,47c-.8,2.8,13.2-.3,13.2-.3Z" transform="translate(0 0)"/><path d="M125.9,46.4a11.3,11.3,0,0,0-.1-1.4c0-.1-.5-.4-.5-.6h-.1A2.5,2.5,0,0,1,127,44a3,3,0,0,1,1.3,1.4c1.5-.5,1.6.1,2.4.9s1.7.2,2.7,1.7a11.6,11.6,0,0,0-3.5.2C127.7,48.5,125.9,46.3,125.9,46.4Z" transform="translate(0 0)"/><path class="cls-2" d="M125.6,46.1s.4-.4.3-.4,1.7-.9,2.1.4c1.5-.6,1.7.2,2.5,1,1.8-.9,1.9.1,2.1.6l-2.7.2C127.7,48.2,125.6,46,125.6,46.1Z" transform="translate(0 0)"/><path d="M103.3,44.4a21.4,21.4,0,0,0,6.9,1.1c3.2-.2,8.5-.5,11.4,1.2a11.5,11.5,0,0,1,5.7-.3c2.8.7,7.8,5.4,6.3,10.4a3.8,3.8,0,0,1-2,1.2,6.7,6.7,0,0,1-.3,4.1,19.7,19.7,0,0,0-3.1,9.9h0c0,.7-.2,2.4-.3,3.2-5.1-.2-13-2.1-20.7-2,.1-.9.1-1.4.2-2.2h.2c-.4-2.2-.5-3.3-.9-4.9a23.6,23.6,0,0,1-7.4-6.9C97.2,55.7,103.3,44.4,103.3,44.4Z" transform="translate(0 0)"/><path d="M128.6,79.8s4.1,14.6-.7,20.7a8.8,8.8,0,0,1-.9,5.8c-.3,1.3-.6,2.5-.8,3.8-.8,5.4-2.3,7.7-2.7,16.4h-3.9s-.5-6.3-1.8-9.7c-.8-1.9-3.9-4.4-3.8-7s.5-3.6,3.9-6.2c.2-3.8-3.6-7.4-3-21.6Z" transform="translate(0 0)"/><path class="cls-3" d="M127.5,79.2c1,6.7,3.4,16.6-1,21.5a8.8,8.8,0,0,1,.1,3.7,13.6,13.6,0,0,1-.7,2.5,21.8,21.8,0,0,0-1.1,5.3c-.9,5.4-.9,5.7-1.3,14.4h-3.9s-.5-6.3-1.8-9.6-2.5-3.5-2.6-6.1,1.2-5.9,4.5-5.8c-.2-7.9-3.8-6.3-4.8-22.8Z" transform="translate(0 0)"/><path class="cls-3" d="M103.3,44.4a13.9,13.9,0,0,0,3.1.6,36.9,36.9,0,0,0,4.7,0c3.2-.3,7.6-.6,10.6,1.1a8.2,8.2,0,0,1,3.4-.4c.8,0,1.6.7,2.5,1,2.9.7,5.6,5.5,4.4,9.8-.2.3-1.1,0-2.1.3a9.2,9.2,0,0,1-.7,5.3,17.8,17.8,0,0,0-2.3,10.6c-6.9-.4-10-.8-16.8-1.1a47.7,47.7,0,0,1-1.1-6.1,6.2,6.2,0,0,0,2.2-1.7c-2,.4-2.8.2-3.9-.4a21.5,21.5,0,0,1-4.4-4.2c-.1-.1-.8,2.1-2.4,2.1s1.9-3.2,1.4-4.2C100.3,53.8,103.3,44.4,103.3,44.4Z" transform="translate(0 0)"/><path d="M128,73.8s.1,2.3.1,2.9.5,2.7.6,3.6-3.9,4-9.6,5.1S106,77.7,106,77.7s.9-3.3,1.3-4.6a2.1,2.1,0,0,0,.2-.6C108.1,71.6,128,73.8,128,73.8Z" transform="translate(0 0)"/><path class="cls-3" d="M126.5,74a17.5,17.5,0,0,0,.5,3.8,38.7,38.7,0,0,1,.8,4.4c0,3.8-4.9,3.2-9.1,3.3s-10.4-7.7-10.4-7.7a23.9,23.9,0,0,1,1.2-4.6h0c.1-.8.2-1.8.3-2.2a147,147,0,0,1,16.9.8,4.8,4.8,0,0,1-.2,2.2Z" transform="translate(0 0)"/><path d="M120.2,82.4s-3.4-7.7-13.8-5.4c-2.5,7-5.9,15.1-3.7,23.8-2.2,2.9-4.7,4.6-4.7,10s.3,6.4.3,6.4l7.7.4a25.7,25.7,0,0,0,3.4-6.7,13.1,13.1,0,0,0,.4-4.8,6.1,6.1,0,0,0,1.5-3.1,15.4,15.4,0,0,0,5.9-6.7C119.2,91.9,118.7,88.2,120.2,82.4Z" transform="translate(0 0)"/><path class="cls-3" d="M120.2,82.4c-.2-.7-2.8-7.8-12.5-5.7C102,91.9,104.1,98.2,105,101c-3.9,4.9-5.7,5.9-4.9,15.9h5.1c2.4-3.7,2.9-5.1,3.1-10,0-.2-.8.4-1.3,1,.4-2,1.5-2.4,2.4-3.6a4.3,4.3,0,0,0,.7-2.4c4.6-3.1,6.3-6.9,7.3-10.9S119.1,83.7,120.2,82.4Z" transform="translate(0 0)"/><path d="M104.1,71.9a15.8,15.8,0,0,1,3.3.6,3.3,3.3,0,0,1,2.1,1.5c.6.6,2,1.6,1.8,2.6a2.6,2.6,0,0,1-1,1.1,17.5,17.5,0,0,1-1.9,2l-.7.4-1,.7a3.7,3.7,0,0,1-1.8.5,4.6,4.6,0,0,1-2.7-1.2,1,1,0,0,1,.2-.8,9.6,9.6,0,0,1-1.8-2,3.1,3.1,0,0,1-.1-2.5C100.6,74.2,103.1,72.6,104.1,71.9Z" transform="translate(0 0)"/><path d="M105.7,135.6l-.2,1.7s-.6.7-5,.6-5.6-1.4-6-2.1l-.3-1.7s.9-1.3,1.1-1.3,6.3,2.1,9.7,2.6C105.4,135.4,105.4,135.6,105.7,135.6Z" transform="translate(0 0)"/><path d="M115.2,132.3c0,.7-.1.7-.1,1.4s2.8,1,6.5.9c5.5-.1,10.5,1.6,16.7.6V134h-.6l-21.8-1.7Z" transform="translate(0 0)"/><path d="M120,134.6h1.6c3.6-.1,6.9.6,10.5.8,1.9,0,4.3-.5,4.1-1.9L117.6,132C116.4,133.2,117.3,134.3,120,134.6Z" transform="translate(0 0)"/><path d="M98.6,107c.6.4,4.6,2.8,11.1,2.4-.1,1.3-.1,3.7-3,8-1.4,2.1-2.6,5.7-2.9,10.4.1,1,.7,1.9-.1,3.3a24.1,24.1,0,0,0,1.8,3.6c.5,1.1.8,2.3-2.7,2.3s-9.2-.3-8.4-3.1,1.5-2.9,1.6-3.5.1-2.4,1.2-3.5c1-3.3.7-6.5.5-9.4S97.3,109.5,98.6,107Z" transform="translate(0 0)"/><path d="M104.7,53.6c4.7-6.2.7-11.2-6.7-9.7-3,.6-6.1,2.7-6.3,6.5-.9.1-3.2.3-4.3,4.3s-1.3,3.8-2.8,5.3.1,3.4.8,5.1c2.4,5.6,9.9,6.1,14.9,10.4a7.5,7.5,0,0,0,4-3.6c-4.2-5.1-3.3-7-5-9.6A8.3,8.3,0,0,0,104.7,53.6Z" transform="translate(0 0)"/><path class="cls-3" d="M103.8,53.2a12.9,12.9,0,0,0,.9-1.6c.1,0,.8,1.2.9,1.2,1.7-2.9,2.2-7.1.2-7.5l-2.1-.5a7.7,7.7,0,0,0-4.6-.1c-2.8.5-5.7,2.6-5.7,5.6A5.5,5.5,0,0,1,96,53.5c-1-1.3-2.7-2.8-4.7-1.5s-1.1,4.5-4,7.8c-.9,1.1-.8,2.4.2,5,1.7,4.1,9.8,6.4,14.2,10.3a6.3,6.3,0,0,0,2.3-2.3,23.6,23.6,0,0,1-5-8.1,12.6,12.6,0,0,0-4.5-5.6,12.3,12.3,0,0,1,2.6,1.3,2.4,2.4,0,0,0,2.2.2C102.2,59.6,103.7,55.7,103.8,53.2Z" transform="translate(0 0)"/><path d="M132.3,54.3c-.2,2.4-2,1.2-3,.7a16.1,16.1,0,0,0-6.2-1.4,30.7,30.7,0,0,0-7.8.9c-3.6.9-4.6.9-6.2.1a48.2,48.2,0,0,1-4.3-3,2,2,0,0,0,.6,1.5,11.5,11.5,0,0,0,5.3,3.3,6.1,6.1,0,0,0,3.3-.2c5.9-1.4,12-1.7,17.2,1.5a2.2,2.2,0,0,0,1.6-.9C133.3,56,132.3,54.3,132.3,54.3Z" transform="translate(0 0)"/><path class="cls-4" d="M102.5,79.2a21.9,21.9,0,0,1,1.9,1.1,2,2,0,0,1-.9-.2l-1-.9Z" transform="translate(0 0)"/><path class="cls-3" d="M121.4,27.3c-.2-.6-1.6-1.7-5-1.7s-4.6,1.1-4.7,1.7-.2,2.3-.3,3.2,0,1,.1,2.6.3,1.6.4,3a7.1,7.1,0,0,0,1.3,3.5l.9.5a12.9,12.9,0,0,0,4.8,0,3.4,3.4,0,0,0,1.9-2.6c.2-1.3.5-2.3.6-3.2s.2-2.7.2-3.2A12.1,12.1,0,0,0,121.4,27.3Z" transform="translate(0 0)"/><path d="M114.5,108.3s3.5,1.5,12.1.1c0,0-2.4,12.2-1.3,18.3,0,0,1.1,1.6,9.4,4.6,0,0,3.6.9,3.5,2.8,0,0,.1.4-4.3.2s-8.7-.9-11.6-.9-6.1.1-6.6-.7.1-2.8.9-4,.7-2.2.6-4.4C117,118.5,112.6,112.4,114.5,108.3Z" transform="translate(0 0)"/><path class="cls-2" d="M113.8,109.4c-.4.6.1,3.1.7,5.5s2.1,3.9,2.5,7.9.4,4.5-.8,6.7-1.4,4.4,2.5,4.5a67,67,0,0,1,9.9.5c3.9.6,5.3.8,7.4.5s2.7-1.1,1.7-1.7-4.7-1.4-6.3-2.7-6-3.1-6.1-3.7a59.4,59.4,0,0,1,.1-10.3c.3-2.1.7-5.1.9-5.9s.8-1.5-.4-1.3a34.7,34.7,0,0,1-8.4.7C114.3,109.9,114,109.2,113.8,109.4Z" transform="translate(0 0)"/><path class="cls-5" d="M116,129.6a11.6,11.6,0,0,0,4,.9,6.6,6.6,0,0,0,.3,3.5c.7,1.3-5.2.5-5.2.5l-.3-4.6Z" transform="translate(0 0)"/><path class="cls-5" d="M133.4,135.2a1.6,1.6,0,0,0,.9-2.6c-.9-1.1-1.7-1.3-.5-1.3s5.5,2.5,5.5,2.5l-2.2,2Z" transform="translate(0 0)"/><path class="cls-5" d="M113.6,111.9a17.5,17.5,0,0,0,5.8.6,26,26,0,0,0,6.8-1c1.9-.6,1.1.7,1.1.7l-1,1a18.1,18.1,0,0,1-6.6.9c-4.8,0-6.2-.5-6.2-.5Z" transform="translate(0 0)"/><path class="cls-5" d="M113.8,115.2a17.2,17.2,0,0,0,5.7.6c2-.1,4.6-.1,6.5-.8s.3.9.3.9l-.3.5a17.8,17.8,0,0,1-6.5.9c-4.8-.1-5.7-.5-5.7-.5Z" transform="translate(0 0)"/><path class="cls-6" d="M114.5,108.3a24.9,24.9,0,0,0,12.2.6s-2.5,11.7-1.4,17.8c0,0,1.1,1.5,9.4,4.6,0,0,3.6.9,3.5,2.7,0,0,.1.4-4.3.3s-8.7-1-11.6-1-6.1.2-6.6-.7.1-2.8.9-4,.7-2.1.6-4.4C117,118.5,112.6,112.4,114.5,108.3Z" transform="translate(0 0)"/><path class="cls-6" d="M114.5,108.3a25.6,25.6,0,0,0,12.2.5s-2.5,11.8-1.4,17.9c0,0,1.1,1.5,9.4,4.6,0,0,3.6.9,3.5,2.7,0,0,.1.4-4.3.3s-8.7-1.4-11.6-1-6.1.4-6.6-.7.1-2.8.9-4,.7-2.1.6-4.4C117,118.5,112.6,112.4,114.5,108.3Z" transform="translate(0 0)"/><path d="M109.4,69.3c0,.4,5.1,3,8,3.5a40.8,40.8,0,0,0,9.6-.2v.9s-7,1.1-12.4-.4-4.8-1.7-4.8-1.7Z" transform="translate(0 0)"/><path class="cls-3" d="M98.5,125.2a10.7,10.7,0,0,0,5.4.7c.3-.1,0-4.5.7-6.6s2.8-5.1,3.6-10.1a30.8,30.8,0,0,1-7.5-1.5C98.6,114.1,99.3,119.7,98.5,125.2Z" transform="translate(0 0)"/><path class="cls-3" d="M102.9,129.3c.4.1.8.6.9.3s-.5-1.7-.5-2.5h0c-.6-.6-4.6-.6-4.4-.4s-1.1.8-1.4,2.5.9.1,1.9,0c-1.8,1.2-3.8,2.7-4.1,4s.2,2.4,2.2,3.4a24.1,24.1,0,0,0,5.3.4c1.8-.4,2.1-1.2,1.6-2.4A24.3,24.3,0,0,1,102.9,129.3Z" transform="translate(0 0)"/><path d="M103.6,44.2c2.2,1.2,5.2.9,6.3.8l3-.4c.3.1.3.3.3.3a8.7,8.7,0,0,1-3.2.6,14.1,14.1,0,0,1-6-.6C102.4,44.2,103.6,44.2,103.6,44.2Z" transform="translate(0 0)"/><path d="M125.9,45.4c.4.3,2.9,1.3,4,2.4s.5,1,.3.8a16.6,16.6,0,0,0-3.1-2.1,5.1,5.1,0,0,1-1.7-1C125.4,45.3,125.9,45.4,125.9,45.4Z" transform="translate(0 0)"/><path class="cls-3" d="M103.3,72.6a6.6,6.6,0,0,1,5.1,1.6c.6.7,1.7,1.4,1.6,2.1a2.9,2.9,0,0,1-.8,1.1l-.9,1-1.4,1.1-.7.5a2.1,2.1,0,0,1-2-.3c-.7-.3.1-.3-.6-.9s-2.8-2.1-2-4.5C101.6,73.9,102.4,73.3,103.3,72.6Z" transform="translate(0 0)"/><path class="cls-7" d="M86.6,57.6C80.7,60,65.7,67.4,61.4,69.7h0c3.5,2.3,5.2,7.6,5.7,13.1.1.5.1.9.2,1.5a8.7,8.7,0,0,0,.2,1,.3.3,0,0,0,.1.2C71.4,75,85.3,63.8,85.8,63s-.4-2.1.6-3.8S89.8,56.2,86.6,57.6Z" transform="translate(0 0)"/><path class="cls-7" d="M100.6,107.1c3-6.1,3.1-11.8,3-18.6,0-2.8,2-6.8,1-5.7-3.9,4.4-13.8,12.7-21,13.1C93.6,95.6,97.6,100.7,100.6,107.1Z" transform="translate(0 0)"/><path d="M55.6,75.3c3.8-2.7,23.1-13,27.8-14.4s3.2-3.3,3.2-3.3S67.7,65.7,56.4,72.7" transform="translate(0 0)"/><path class="cls-7" d="M110.7,56.4c-1.5-.6-2.7,1.1-2.3,2.8s3.9,3.6,3.7,9.9-1.2,7.2-1.2,7.2l-2.5-3.2s-.4-7-1.3-8.1-3.5-2.9-4.5-3.9,1.1-2.3,1-4.2a21,21,0,0,1,1.1-5.3Z" transform="translate(0 0)"/><path class="cls-7" d="M119.8,84.3c-.1,4.9,1,12.2,1.4,15.6s1.1,3.8,0,5.3-2.4,4-2.4,4l-4.5-.4s3.6-4.5,3.8-5.4-1.9-7.3-1.9-7.3Z" transform="translate(0 0)"/><path class="cls-7" d="M111.1,38.4a5.7,5.7,0,0,0,3.8,3.5c1,.4,5.1,1,6.8-.9s.2-3.1.2-3.1l-3.7,3-5-.9-.6-1.5Z" transform="translate(0 0)"/><path class="cls-8" d="M111.5,42.9a27,27,0,0,0,7.1,2.4c1.2.2,3.1-1.3,4-1.7s2.7-.7,4.7,1.1c.2.2-.5,1-.5,1a1.9,1.9,0,0,1-1-.3A4.4,4.4,0,0,0,124,45c-3.2.4-3.8,1.5-6.6.9s-3.6-1.2-6.5-1.1" transform="translate(0 0)"/><path class="cls-2" d="M110.9,43.1a62.6,62.6,0,0,0,7.5,2.2c1.2.2,3.1-.9,4-1.5s3.7-.2,4.7.9a2.6,2.6,0,0,1,.9,1.4c0,.2-.7,0-.7,0a5.9,5.9,0,0,1-1.4-.6A3.6,3.6,0,0,0,124,45c-3.2.3-3.9,1.5-6.7.8s-3.5-1.2-6.6-1" transform="translate(0 0)"/><path d="M100.7,104.3c-.1-.1.1-.2,0-.2a4.1,4.1,0,0,1-2.7-1.6c-2.8-4.1-6.9-6.8-14.4-6.6-11.2.3-15.6-4.3-16.5-13.1-.5-4.8-1.8-9.4-4.5-12l-1.5,1c3,2.6,4,6.8,4.6,12.7,1.1,8.7,8.2,12.8,16.4,12.9s11.7,1.9,14.9,6.3a5.3,5.3,0,0,0,3.1,2Z" transform="translate(0 0)"/><path class="cls-7" d="M131.1,62.2a7,7,0,0,0,1.8,3.8c.4.4.5.6.1.6l-3.3-.2-.7-1.3Z" transform="translate(0 0)"/><path class="cls-9" d="M25.8,150.9c3.9,0,7.5,1.4,7.5,2.5s-.8,2.2-1.4,2.2-2.3-1.7-6.1-1.7c-6.9,0-9.2,4.1-9.2,10.9s1.8,11.1,8.8,11.1a22.4,22.4,0,0,0,5.1-.5v-7.9H25.9c-.6,0-.8-.4-.8-1.2v-.6c0-.8.2-1.2.8-1.2h6.9c.8,0,1.1.4,1.1,1.2v10.4c0,2.3-4.2,2.9-8.7,2.9-7.9,0-12.2-4.4-12.2-13.8S17.6,150.9,25.8,150.9Z" transform="translate(0 0)"/><path class="cls-9" d="M38,164.1a20.1,20.1,0,0,0-.5-4.9c0-.8,1.7-1,2.2-1s1.1,1.6,1.4,2.6c1.3-1.9,2.9-2.9,4.5-2.9s2.3.6,2.3,1.5-.3,2.1-.8,2.1a9.5,9.5,0,0,0-2.2-.4c-2,0-3.6,2.4-3.6,2.4v14.4c0,.6-.5.9-1.6.9h-.1c-1.1,0-1.6-.3-1.6-.9V164.1Z" transform="translate(0 0)"/><path class="cls-9" d="M58.6,157.9c5.4,0,8.2,3.5,8.2,10.2,0,.5-.9,1.6-1.3,1.6H53c.4,4.4,2.2,6.4,6.1,6.4s5.3-1.7,5.8-1.7,1.3,1.5,1.3,2-3.1,2.5-7.1,2.5c-6.5,0-9.6-3.4-9.6-10.4S52.6,157.9,58.6,157.9Zm4.6,9c0-4.1-1.5-6.2-4.7-6.2s-5.2,2.1-5.5,6.2Z" transform="translate(0 0)"/><path class="cls-9" d="M79,157.9c5.4,0,8.1,3.5,8.1,10.2,0,.5-.8,1.6-1.3,1.6H73.4c.3,4.4,2.2,6.4,6.1,6.4s5.3-1.7,5.7-1.7,1.4,1.5,1.4,2-3.1,2.5-7.1,2.5c-6.5,0-9.6-3.4-9.6-10.4S73,157.9,79,157.9Zm4.7,9c0-4.1-1.6-6.2-4.8-6.2s-5.2,2.1-5.5,6.2Z" transform="translate(0 0)"/><path class="cls-9" d="M90.7,164.1a24.9,24.9,0,0,0-.4-4.9c0-.8,1.6-1,2.1-1s1.1,1.6,1.4,2.6a8.4,8.4,0,0,1,6.1-2.9c4,0,6.4,2.4,6.4,6.3v13.6c0,.6-.5.9-1.6.9h-.1c-1.1,0-1.6-.3-1.6-.9V164.5c0-2.4-1.4-3.8-4-3.8a6.8,6.8,0,0,0-5,2.7v14.4c0,.6-.5.9-1.6.9h-.1c-1.1,0-1.6-.3-1.6-.9V164.1Z" transform="translate(0 0)"/><path class="cls-2" d="M113.3,172c.7,0,2.7,1.9,5.8,1.9s3.7-.6,3.7-2.9c0-4.7-11.3-2.8-11.3-12.1,0-5.8,4.7-8.1,9.3-8.1s7.1,1.5,7.1,2.8-1.2,3.4-2.2,3.4-1.7-1-4.3-1-3.7,1.4-3.7,2.3c0,4.5,11.3,2.7,11.3,11.9,0,6.6-4.5,8.8-8.9,8.8s-9.2-2.2-9.2-3.5S112.5,172,113.3,172Z" transform="translate(0 0)"/><path class="cls-2" d="M140.9,157.8c6.3,0,9.5,3.8,9.5,10.6s-3.2,10.6-9.5,10.6-9.5-3.8-9.5-10.6S134.7,157.8,140.9,157.8Zm3.6,10.6c0-4-1.1-6-3.6-6s-3.6,2-3.6,6,1.1,6,3.6,6S144.5,172.3,144.5,168.4Z" transform="translate(0 0)"/><path class="cls-2" d="M163.1,157.8c2.8,0,6.5.9,6.5,2.8s-1.4,3-2.1,3l-.7-.3a6.3,6.3,0,0,0-3.4-.9c-3.2,0-4.5,2-4.5,6s1.2,6,4.3,6a7.8,7.8,0,0,0,3.8-.9,1.2,1.2,0,0,1,.7-.2c.9,0,2,2.2,2,2.9,0,2.2-5.6,2.8-6.8,2.8-6.7,0-9.9-3.5-9.9-10.5S156,157.8,163.1,157.8Z" transform="translate(0 0)"/><path class="cls-2" d="M172.6,150.3c0-.8.7-1.2,2.3-1.2H176c1.7,0,2.4.4,2.4,1.2v15.6h.2l4.7-7.1c.5-.7,1.3-.8,2.4-.8h1.5c1.5,0,2.2.3,2.2.7a1.3,1.3,0,0,1-.4.7l-5.4,7.8,6.4,10.2a4.1,4.1,0,0,1,.3.8c0,.4-.7.6-2.2.6h-1.7c-1.2,0-2-.1-2.4-.7l-5.4-9.1h-.2v8.5c0,.8-.7,1.2-2.4,1.2h-1.1c-1.6,0-2.3-.4-2.3-1.2V150.3Z" transform="translate(0 0)"/></svg>