<svg id="Layer_1" data-name="Layer 1" xmlns="http://www.w3.org/2000/svg" viewBox="0 0 104 161"><defs><style>.cls-1{fill:#e3e3e3;}.cls-2{fill:#c6c6c6;}.cls-3,.cls-5{fill:#ea1f46;}.cls-4{font-size:30px;fill:#f7f7f7;font-family:Calibri, Calibri;}.cls-5{font-size:53.66px;font-family:Wingdings3, Wingdings 3;}</style></defs><title>mp4</title><path class="cls-1" d="M65.3,1.3H4A2.2,2.2,0,0,0,1.8,3.7V159.8A2.3,2.3,0,0,0,4,162.3h99.5a2.4,2.4,0,0,0,2.3-2.5V29.3L77.7,1.3Z" transform="translate(-1.8 -1.2)"/><path class="cls-2" d="M77.8,27.7a1.6,1.6,0,0,0,1.5,1.6h26.5L77.8,1.2Z" transform="translate(-1.8 -1.2)"/><path class="cls-3" d="M.3,120H103.5a.5.5,0,0,1,.5.5v38a2.4,2.4,0,0,1-2.4,2.4H2.4A2.4,2.4,0,0,1,0,158.6V120.3A.3.3,0,0,1,.3,120Z"/><text class="cls-4" transform="translate(24.4 149.5)">MP4</text><text class="cls-5" transform="translate(34.2 84.4) scale(0.78 1)">u</text></svg>