<svg id="Layer_1" data-name="Layer 1" xmlns="http://www.w3.org/2000/svg" viewBox="0 0 853.2 979.93"><defs><style>.cls-1{fill:#fff;}.cls-2{fill:none;}.cls-3{fill:#339833;}</style></defs><title>nodejs</title><path class="cls-1" d="M129,353.66q-.84,73.2-1,146.42-.07,36.36,0,72.72,0,17.93.13,35.86c.08,15.79,1.28,32,5.54,47.19l.59,1.57,12.6,29.86c.66,1.2,1.3,2.31,2.07,3.44,7.08,10.36,14.74,21.22,24,30.06,15.64,15,32.09,29.16,48.89,42.8,24.85,20.18,50.28,39.83,76.53,58.17q26.31,18.38,53.9,34.81,14.16,8.43,28.64,16.34c18.26,10,37.6,21.37,58,25.13,28.35,5.21,49.86,6.88,78.33-1.19,5.23-1.48,10.23-3.8,15.24-5.87l34-14.08,67.07-27.76c30.79-12.75,61.62-25.4,92.23-38.57,19.27-8.3,38.35-17.14,56.56-27.59a302.26,302.26,0,0,0,27.07-17.4c25-18.11,49.31-34.94,64.61-62.71,12.34-22.39,19.59-47.59,18.69-73.35-.21-6.13-.73-12.26-1.11-18.39l-2.28-36.79-9-145.2-4.49-72.6c-.37-5.85-.6-11.71-1.1-17.55-1.08-12.74-1.78-25.78-5.15-38.09-6.43-23.47-12.12-31.26-25-48-14.78-19.14-14.06-17.72-38.15-35.21-1.58-1.15-3.17-2.26-4.82-3.31-4.69-3-9.47-5.78-14.26-8.56-35.07-20.34-72.15-37.15-106.34-59q-12.51-8-24.33-17l25.29,19.54c-9.34-7.22-17.84-15.18-26.48-23.21-1-.9-1.94-1.77-2.94-2.63a344.64,344.64,0,0,0-27.76-21.47,37.82,37.82,0,0,0-3.24-2.07,17.44,17.44,0,0,0-2-1L589.6,86.37c-23.42-8.77-56.37-7.64-80.08-.77-6,1.73-13.29,5.43-17.92,7.38-5.54,2.34-12.18,4.73-17.86,7.69a86.12,86.12,0,0,0-7.72,4.72c-4.8,3.18-9.64,6.29-14.64,9.16a299.34,299.34,0,0,1-32.48,15.91l29.86-12.6c-25.79,10.81-52.57,18.9-79,28-22.81,7.87-44.82,17.2-67,26.7a286.44,286.44,0,0,0-37.4,19.15l-25.29,19.55a93.66,93.66,0,0,0-25.85,40.23A62.16,62.16,0,0,0,205.67,283a94.71,94.71,0,0,0,2.23,49.85c13.9,38.57,31.55,75.6,50.9,111.68,14.51,27.06,29.42,54,41.44,82.25L287.63,497C308.44,546.49,314.75,600,323.7,652.59l12.6,29.86a94.34,94.34,0,0,0,32.19,35.07,62.4,62.4,0,0,0,27.58,16.07,94.11,94.11,0,0,0,48.16,10.77l33.23-4.47,29.86-12.6a94.34,94.34,0,0,0,35.07-32.19,94.13,94.13,0,0,0,22.38-42.51q26-119.9,61.68-237.37,10.21-33.53,21.22-66.8L419.2,378.28q3,6.77,5.89,13.59L412.49,362a711.15,711.15,0,0,1,48.89,179.91l-4.46-33.23A713.22,713.22,0,0,1,463,593.58a94.11,94.11,0,0,0,10.77,48.16A93.66,93.66,0,0,0,499.66,682a93.78,93.78,0,0,0,40.22,25.85A94.2,94.2,0,0,0,588,718.58l33.23-4.46A124.86,124.86,0,0,0,676.43,682L696,656.67A124.51,124.51,0,0,0,713,593.58c-.59-48.17-6.37-96.31-14.49-143.74a705.3,705.3,0,0,0-27.86-109.32C660.41,310.46,648,281.1,635.07,252.1l-19.55-25.3-25.3-19.54-29.86-12.6a94.67,94.67,0,0,0-49.84-2.24A62.23,62.23,0,0,0,479,201,62.4,62.4,0,0,0,451.39,217,62.88,62.88,0,0,0,429,239.45,94,94,0,0,0,406.6,282Q368.13,398.44,339.31,517.8q-8.21,34.07-15.61,68.33H564.77c-3.84-22.54-7.58-45.1-11.52-67.61-3.8-21.65-8.23-43.19-15.35-64-16.36-47.88-39.84-92.45-63.64-136.88-10.85-20.25-21.43-40.67-30.39-61.84l12.6,29.86q-4-9.52-7.5-19.22L391.52,407.58a293.13,293.13,0,0,1,39.68-20.12l-29.86,12.6c29.15-12.17,59.54-20.88,89.22-31.57a719,719,0,0,0,71-29.62c6.9-3.36,13.66-7,20.23-11,7-4.22,13.55-9.4,21-12.76L573,327.75a33.32,33.32,0,0,1,6-1.77l-33.23,4.46a26.69,26.69,0,0,1,4.73-.12l-33.23-4.47a25.05,25.05,0,0,1,5.83,1.59l-29.86-12.6a37.92,37.92,0,0,1,6.5,4l-25.3-19.55c5.42,4.4,10.2,9.55,15.4,14.2,8.9,8,18.45,15.11,27.9,22.4,15.19,11.74,30.39,22.95,46.82,32.88,24.27,14.67,49.7,27.26,74.64,40.72,13.73,7.42,28.49,14.58,40.94,24.05L654.88,414a29.28,29.28,0,0,1,3.09,3l-19.55-25.3a18.67,18.67,0,0,1,2.19,3.9L628,365.79a19,19,0,0,1,.78,3.16l-4.46-33.23c1.27,9.48,1.36,19.22,1.95,28.77l1.78,28.84L631.7,452,639,570.35l2,32.82c.65,10.44,2.58,21.66,1.4,32.08L646.91,602a15.51,15.51,0,0,1-.81,3.15l12.6-29.86a23.09,23.09,0,0,1-2.16,3.89l19.54-25.3c-3.35,4.18-7.71,7.39-11.92,10.66L689.46,545c-29.7,22.74-63.7,38.6-98,53.11l29.86-12.61c-29.05,12.25-58.24,24.17-87.37,36.23L489.87,640l-22.05,9.13c-7.2,3-14.36,6.42-22.09,7.73L479,652.41a32.78,32.78,0,0,1-6.86.08L505.33,657a40.9,40.9,0,0,1-8.41-2.36l29.86,12.6c-12.46-5.35-24.34-12.57-36.08-19.31s-23-13.58-34.32-20.75q-34.23-21.76-66.36-46.6l25.3,19.55Q397,585.9,379.41,570.8c-11.36-9.78-23.88-19.54-33.68-30.91l19.55,25.29a25.39,25.39,0,0,1-2.56-4.08L375.32,591a26.22,26.22,0,0,1-1.3-4.82l4.46,33.23c-.89-8.13-.39-16.49-.42-24.66q-.06-12.94-.08-25.9-.06-25.89,0-51.8,0-52.29.45-104.59.23-29.39.56-58.76a94.08,94.08,0,0,0-10.77-48.16,93.64,93.64,0,0,0-25.84-40.23,93.78,93.78,0,0,0-40.23-25.85A94.1,94.1,0,0,0,254,228.66l-33.23,4.46a124.82,124.82,0,0,0-55.16,32.15L146,290.57A124.45,124.45,0,0,0,129,353.66Z" transform="translate(-73.3 -10.04)"/><path class="cls-2" d="M793.7,326a45.92,45.92,0,0,0-8.8-7L525.5,165.8a55.58,55.58,0,0,0-10.4-4.3l-15.8-.1a44.46,44.46,0,0,0-10.4,4.2L223.6,318.9a54.31,54.31,0,0,0-8.9,6.9l-7.8,13.4a52,52,0,0,0-1.5,11.1V649.4a84.72,84.72,0,0,0,1,11.3,27.84,27.84,0,0,0,4.8,10.9c39.8,50,81.5,74.6,124,72.9,55.9-2.2,88.6-49.9,90-51.9a24.56,24.56,0,0,0,3.7-9.2,107.28,107.28,0,0,0,.8-11.3V364.4a5.76,5.76,0,0,0-5.7-5.7H382.3a5.76,5.76,0,0,0-5.7,5.7V662.8a15.73,15.73,0,0,1-4.1,9.6s-18.9,18.3-39.5,19.1c-22.7.9-70.4-42.1-70.4-42.1a14.81,14.81,0,0,1-4.2-9.5V365.6a11,11,0,0,1,4.9-8.5L502,219.3a10.6,10.6,0,0,1,9.8,0l233,137.6a11.15,11.15,0,0,1,4.9,8.6v269a11.15,11.15,0,0,1-4.9,8.6L510.5,785.3a11.36,11.36,0,0,1-10,.5l-98.9-47.9a5.69,5.69,0,0,0-7.6,2.6L375.8,778a5.69,5.69,0,0,0,2.6,7.6l111.9,54.2c2.8,1.3,7.6,3.3,10.5,4.3a20.62,20.62,0,0,0,6.2.8,24.31,24.31,0,0,0,8.5-1.6c2.9-1.3,7.4-3.6,10.1-5.2L785,680.8a54.72,54.72,0,0,0,8.8-7.1l7.4-13.1a53.83,53.83,0,0,0,1.5-11.2l.1-299a52,52,0,0,0-1.5-11.1Z" transform="translate(-73.3 -10.04)"/><path class="cls-2" d="M634.2,615.8q-16.5,13.8-50.4,13.8-33.6,0-52.4-15.6c-12.5-10.4-21.2-39.4-21.2-39.4A6.66,6.66,0,0,0,503,570l-37.6,6a4.66,4.66,0,0,0-3.8,6.3s16.3,48.7,36.1,64.4,48.5,23.5,86.3,23.5q34.2,0,61.3-11.9t41.5-33.7q14.4-21.75,14.4-46.4c0-16.7-4-30.8-11.8-42.1s-18.6-20-32.4-25.9-38.1-13.6-72.9-22.9q-36.15-9.9-43.5-12.6c-8.6-3.4-14.9-7.8-18.9-13.1a27.09,27.09,0,0,1-6-17.2c0-10.1,4.8-18.8,14.5-26.3s25.8-11.2,48.4-11.2c19.2,0,34,4.2,44.5,12.6s17.3,29.6,17.3,29.6a7.2,7.2,0,0,0,7.4,4.6l36.9-5a5,5,0,0,0,4.2-6.3s-7.3-28.3-15.5-39.5-21-20.1-38.2-26.7-37.3-9.9-60.1-9.9a149.69,149.69,0,0,0-42.6,5.9c-13.2,4-23.6,8.7-31.3,14.4A79.92,79.92,0,0,0,477,414.1a75.29,75.29,0,0,0-8.9,36,73.44,73.44,0,0,0,10.8,39c7.3,11.7,17.8,20.9,31.8,27.6s39,14.6,75.1,23.7c26.9,6.8,43.6,12.3,50.4,16.7,9.6,6.3,14.5,15.1,14.4,26.3C650.6,595.8,645.2,606.6,634.2,615.8Z" transform="translate(-73.3 -10.04)"/><path class="cls-3" d="M925,258.4a11,11,0,0,0-4.9-8.5L503.2,11.2a10.91,10.91,0,0,0-9.8,0L78.2,252.8a11,11,0,0,0-4.9,8.5L75,741.6a11,11,0,0,0,4.9,8.5L496.7,988.8a10.91,10.91,0,0,0,9.8,0L921.6,747.2a11,11,0,0,0,4.9-8.5Zm-122.3,391a53.83,53.83,0,0,1-1.5,11.2l-7.4,13.1a54.72,54.72,0,0,1-8.8,7.1L525.6,838.1c-2.7,1.6-7.2,3.9-10.1,5.2a24.31,24.31,0,0,1-8.5,1.6,20.62,20.62,0,0,1-6.2-.8c-2.9-1-7.7-3-10.5-4.3L378.4,785.6a5.69,5.69,0,0,1-2.6-7.6L394,740.5a5.69,5.69,0,0,1,7.6-2.6l98.9,47.9a11.36,11.36,0,0,0,10-.5L744.8,643.1a11.15,11.15,0,0,0,4.9-8.6v-269a11.15,11.15,0,0,0-4.9-8.6l-233-137.6a10.6,10.6,0,0,0-9.8,0L263.3,357.1a11,11,0,0,0-4.9,8.5V639.9a14.81,14.81,0,0,0,4.2,9.5s47.7,43,70.4,42.1c20.6-.8,39.5-19.1,39.5-19.1a15.73,15.73,0,0,0,4.1-9.6V364.4a5.76,5.76,0,0,1,5.7-5.7H424a5.76,5.76,0,0,1,5.7,5.7V672.1a107.28,107.28,0,0,1-.8,11.3,24.56,24.56,0,0,1-3.7,9.2c-1.4,2-34.1,49.7-90,51.9-42.5,1.7-84.2-22.9-124-72.9a27.84,27.84,0,0,1-4.8-10.9,84.72,84.72,0,0,1-1-11.3V350.3a52,52,0,0,1,1.5-11.1l7.8-13.4a54.31,54.31,0,0,1,8.9-6.9L488.9,165.6a44.46,44.46,0,0,1,10.4-4.2l15.8.1a55.58,55.58,0,0,1,10.4,4.3L784.9,319a45.92,45.92,0,0,1,8.8,7l7.6,13.3a52,52,0,0,1,1.5,11.1ZM636.2,557.1c-6.8-4.4-23.5-9.9-50.4-16.7-36.1-9.1-61.2-17-75.1-23.7s-24.5-15.9-31.8-27.6a73.44,73.44,0,0,1-10.8-39,75.29,75.29,0,0,1,8.9-36,79.92,79.92,0,0,1,24.2-27.5c7.7-5.7,18.1-10.4,31.3-14.4a149.69,149.69,0,0,1,42.6-5.9q34.2,0,60.1,9.9c17.2,6.6,30,15.5,38.2,26.7s15.5,39.5,15.5,39.5a5,5,0,0,1-4.2,6.3l-36.9,5a7.2,7.2,0,0,1-7.4-4.6s-6.8-21.2-17.3-29.6-25.3-12.6-44.5-12.6c-22.6,0-38.8,3.7-48.4,11.2s-14.5,16.2-14.5,26.3a27.09,27.09,0,0,0,6,17.2c4,5.3,10.3,9.7,18.9,13.1q7.35,2.7,43.5,12.6c34.8,9.3,59.2,16.9,72.9,22.9s24.6,14.6,32.4,25.9,11.8,25.4,11.8,42.1q0,24.6-14.4,46.4t-41.5,33.7q-27.15,11.85-61.3,11.9c-37.8,0-66.5-7.8-86.3-23.5s-36.1-64.4-36.1-64.4a4.66,4.66,0,0,1,3.8-6.3l37.6-6a6.66,6.66,0,0,1,7.2,4.6s8.7,29,21.2,39.4,30,15.6,52.4,15.6q33.9,0,50.4-13.8c11-9.2,16.4-20,16.4-32.4C650.7,572.2,645.8,563.4,636.2,557.1Z" transform="translate(-73.3 -10.04)"/></svg>