<svg id="Layer_2" data-name="Layer 2" xmlns="http://www.w3.org/2000/svg" viewBox="0 0 490.6 436.9"><defs><style>.cls-1{fill:#61dafb;}</style></defs><title>react</title><path class="cls-1" d="M497.3,224.5c0-32.5-40.7-63.3-103.1-82.4,14.4-63.6,8-114.2-20.2-130.4a43.8,43.8,0,0,0-22.4-5.6V28.4A23.2,23.2,0,0,1,363,31c13.6,7.8,19.5,37.5,14.9,75.7-1.1,9.4-2.9,19.3-5.1,29.4a484.6,484.6,0,0,0-63.5-10.9,487.8,487.8,0,0,0-41.6-50c32.6-30.3,63.2-46.9,84-46.9V6h0c-27.5,0-63.5,19.6-99.9,53.6C215.4,25.8,179.4,6.4,151.9,6.4V28.7c20.7,0,51.4,16.5,84,46.6a472.3,472.3,0,0,0-41.3,49.9,467,467,0,0,0-63.6,11c-2.3-10-4-19.7-5.2-29-4.7-38.2,1.1-67.9,14.6-75.8,3-1.8,6.9-2.6,11.5-2.6V6.5h0a44.6,44.6,0,0,0-22.6,5.6c-28.1,16.2-34.4,66.7-19.9,130.1C47.2,161.4,6.7,192.1,6.7,224.5s40.7,63.3,103.1,82.4c-14.4,63.6-8,114.2,20.2,130.4,6.5,3.8,14.1,5.6,22.5,5.6,27.5,0,63.5-19.6,99.9-53.6,36.4,33.8,72.4,53.2,99.9,53.2a44.6,44.6,0,0,0,22.6-5.6c28.1-16.2,34.4-66.7,19.9-130.1C456.8,287.7,497.3,256.9,497.3,224.5ZM367.1,157.8c-3.7,12.9-8.3,26.2-13.5,39.5-4.1-8-8.4-16-13.1-24s-9.5-15.8-14.4-23.4C340.3,152,354,154.6,367.1,157.8ZM321.3,264.3c-7.8,13.5-15.8,26.3-24.1,38.2-14.9,1.3-30,2-45.2,2s-30.2-.7-45-1.9q-12.5-17.9-24.2-38T162,224.8c6.2-13.4,13.2-26.8,20.7-39.9s15.8-26.3,24.1-38.2c14.9-1.3,30-2,45.2-2s30.2.7,45,1.9q12.5,17.8,24.2,38T342,224.4C335.7,237.8,328.8,251.2,321.3,264.3Zm32.3-13c5.4,13.4,10,26.8,13.8,39.8-13.1,3.2-26.9,5.9-41.2,8,4.9-7.7,9.8-15.6,14.4-23.7S349.5,259.3,353.6,251.3ZM252.2,358a412.3,412.3,0,0,1-27.8-32c9,.4,18.2.7,27.5.7s18.7-.2,27.8-.7A390.3,390.3,0,0,1,252.2,358Zm-74.4-58.9c-14.2-2.1-27.9-4.7-41-7.9,3.7-12.9,8.3-26.2,13.5-39.5,4.1,8,8.4,16,13.1,24S172.9,291.5,177.8,299.1ZM251.7,91a412.3,412.3,0,0,1,27.8,32c-9-.4-18.2-.7-27.5-.7s-18.7.2-27.8.7A390.3,390.3,0,0,1,251.7,91Zm-74,58.9c-4.9,7.7-9.8,15.6-14.4,23.7s-8.9,16-13,24c-5.4-13.4-10-26.8-13.8-39.8C149.6,154.7,163.4,152,177.7,149.9ZM87.2,275.1C51.8,260,28.9,240.2,28.9,224.5s22.9-35.6,58.3-50.6c8.6-3.7,18-7,27.7-10.1a480.3,480.3,0,0,0,22.5,60.9,473.5,473.5,0,0,0-22.2,60.6C105.3,282.2,95.9,278.8,87.2,275.1ZM141,418c-13.6-7.8-19.5-37.5-14.9-75.7,1.1-9.4,2.9-19.3,5.1-29.4a484.6,484.6,0,0,0,63.5,10.9,487.8,487.8,0,0,0,41.6,50c-32.6,30.3-63.2,46.9-84,46.9A23.9,23.9,0,0,1,141,418Zm237.2-76.2c4.7,38.2-1.1,67.9-14.6,75.8-3,1.8-6.9,2.6-11.5,2.6-20.7,0-51.4-16.5-84-46.6a472.3,472.3,0,0,0,41.3-49.9,467,467,0,0,0,63.6-11A279.9,279.9,0,0,1,378.2,341.8Zm38.5-66.7c-8.6,3.7-18,7-27.7,10.1a480.3,480.3,0,0,0-22.5-60.9,473.5,473.5,0,0,0,22.2-60.6c9.9,3.1,19.3,6.5,28.1,10.2,35.4,15.1,58.3,34.9,58.3,50.6S452.1,260.1,416.7,275.1Z" transform="translate(-6.7 -6)"/><path class="cls-1" d="M151.8,6.4Z" transform="translate(-6.7 -6)"/><circle class="cls-1" cx="245.2" cy="218.5" r="45.7"/><path class="cls-1" d="M351.5,6.1Z" transform="translate(-6.7 -6)"/></svg>