<svg id="Layer_1" data-name="Layer 1" xmlns="http://www.w3.org/2000/svg" viewBox="0 0 96 85.9"><defs><style>.cls-1,.cls-3{fill:#00b0e3;}.cls-2{isolation:isolate;fill:#f7f7f7;}.cls-2,.cls-3{font-size:30px;font-family:Calibri, Calibri;}.cls-4{letter-spacing:-0.01em;}.cls-5{letter-spacing:-0.01em;}</style></defs><title>restful-api</title><circle class="cls-1" cx="15.5" cy="37.5" r="15.5"/><circle class="cls-1" cx="52.5" cy="19.5" r="19.5"/><ellipse class="cls-1" cx="67.5" cy="33" rx="28.5" ry="19"/><path class="cls-1" d="M17.5,26h73A5.5,5.5,0,0,1,96,31.5v4.3A17.3,17.3,0,0,1,78.7,53H17.5A5.5,5.5,0,0,1,12,47.5v-16A5.5,5.5,0,0,1,17.5,26Z"/><ellipse class="cls-1" cx="29.1" cy="33.6" rx="12.1" ry="11.6" transform="translate(-15.3 6.3) rotate(-27.6)"/><text class="cls-2" transform="translate(27.6 42.5)">API</text><text class="cls-3" transform="translate(3.5 76.5)">R<tspan class="cls-4" x="16.3" y="0">E</tspan><tspan class="cls-5" x="30.6" y="0">S</tspan><tspan x="44.2" y="0">Tful</tspan></text></svg>