<svg id="svg2" xmlns="http://www.w3.org/2000/svg" viewBox="0 0 226.9 193.3"><defs><style>.cls-1{fill:#ebebeb;}</style></defs><title>scrum</title><path class="cls-1" d="M105.3,13.5c3.8,11.4,7.4,21.9,11.1,32.7L83.8,57.4l6-12.3a15.4,15.4,0,0,0-17.7,7.1c-4.1,7-2.7,14.7,4,21L65.8,90.3c-7.1-5.1-12.2-11.7-14.5-20.2-3.6-13.4-.7-25.5,9.2-35.3s22.1-13,35.7-9c2.1.6,3,.4,3.9-1.7S103.3,17.5,105.3,13.5Z" transform="translate(-12.9 -13.5)"/><path class="cls-1" d="M199.3,84.8c-13.3-21.4-32.5-33.3-57.8-35-21.6-1.4-40,5.9-54.9,21.1C68,90,62.1,113.1,68.2,139.1c.6,2.6,1.4,5.1,2.1,7.8l-13.1,5.6,31.9,12.8,12.5-32.1-12.7,5.5c-3.6-8.8-4-17.7-2.4-26.7,5.1-27.8,32.4-46.3,60-41.5,36.7,6.5,55,49.4,33.8,80-10.5,15.2-25.2,22.8-43.7,22.8H12.9v19.6h6.7c39.2,0,78.5.2,117.7-.1,24.7-.1,44.5-10.6,59-30.5C212.4,140.1,213.7,107.9,199.3,84.8Z" transform="translate(-12.9 -13.5)"/><path class="cls-1" d="M218.3,159.4l-.7.3v13.6H190.8v19.8h26.8v13.5l.7.2,21.5-23.7Z" transform="translate(-12.9 -13.5)"/></svg>