<svg id="Layer_3" data-name="Layer 3" xmlns="http://www.w3.org/2000/svg" viewBox="0 0 820 557"><defs><style>.cls-1{fill:#24252d;}.cls-2{fill:#4c4b58;}.cls-3{fill:#31313d;}.cls-4{fill:#b2b2bf;}.cls-5{fill:#ffcd2d;}.cls-6{fill:#f45f4b;}.cls-7{fill:#b7d64f;}.cls-8{fill:#27c1dc;}.cls-9{fill:#4688bc;}.cls-10{fill:#66c065;}.cls-11{fill:#606cb3;}</style></defs><title>desktop</title><path class="cls-1" d="M818.4,6H19.6C13.8,6,9,11.4,9,18V94H829V18C829,11.4,824.2,6,818.4,6Z" transform="translate(-9 -6)"/><path class="cls-1" d="M9,550.8v.2a12,12,0,0,0,12,12h.2A12.2,12.2,0,0,1,9,550.8Z" transform="translate(-9 -6)"/><path class="cls-2" d="M178.1,563H818.4c5.8,0,10.6-5.4,10.6-12V94H178.1Z" transform="translate(-9 -6)"/><path class="cls-3" d="M9,94V550.8c0,6.7,4.8,12.2,10.8,12.2H178.1V94Z" transform="translate(-9 -6)"/><circle class="cls-4" cx="81.5" cy="31.5" r="9.5"/><circle class="cls-4" cx="52.5" cy="31.5" r="9.5"/><circle class="cls-4" cx="24.5" cy="31.5" r="9.5"/><rect class="cls-5" x="221" y="145" width="70.8" height="38"/><rect class="cls-6" x="221" y="346" width="81.7" height="38"/><rect class="cls-7" x="291.8" y="145" width="69.9" height="28"/><rect class="cls-7" x="291.8" y="145" width="69.9" height="38"/><rect class="cls-7" x="291.8" y="212" width="69.9" height="38"/><rect class="cls-7" x="301.8" y="346" width="154.4" height="38"/><rect class="cls-8" x="370.7" y="151" width="194.3" height="38" transform="translate(926.8 334) rotate(180)"/><rect class="cls-8" x="370.7" y="218" width="372.3" height="38" transform="translate(1104.7 468) rotate(180)"/><rect class="cls-8" x="230" y="285" width="513" height="38" transform="translate(964 602) rotate(180)"/><rect class="cls-9" x="454.3" y="346" width="151.6" height="38"/><rect class="cls-10" x="278.2" y="413" width="82.6" height="38"/><rect class="cls-11" x="360.8" y="413" width="372.3" height="38"/></svg>