<svg id="Express" xmlns="http://www.w3.org/2000/svg" viewBox="0 0 105.3 23.5"><title>express</title><g id="original-wordmark"><path id="path4" d="M40,41.8V18.7h1.3v3.6l.4-.5a6.2,6.2,0,0,1,5.6-3.5,6.5,6.5,0,0,1,6.5,3.5,11.2,11.2,0,0,1,.3,10.4c-1.2,2.8-4.4,4.2-7.7,3.7a6.1,6.1,0,0,1-5-3.3v9.2Zm1.3-14.9c.1,1.1.1,1.9.2,2.7a5.8,5.8,0,0,0,5.2,5.2,5.9,5.9,0,0,0,6.5-3.7,10.4,10.4,0,0,0-.2-8.3,5.8,5.8,0,0,0-6.1-3.3,5.6,5.6,0,0,0-5,4.1A19.1,19.1,0,0,0,41.3,26.9Z" transform="translate(-7.3 -18.2)"/><path id="path6" d="M80.8,30a6.8,6.8,0,0,1-6.6,5.9c-5.3.3-7.7-3.2-8.1-7.2a11.7,11.7,0,0,1,1-6.4,6.9,6.9,0,0,1,7.4-3.9,6.8,6.8,0,0,1,6.1,5.1c.2,1.3.4,2.6.5,3.9H67.4c-.3,3.6,1.7,6.5,4.4,7.2s6.4-.6,7.5-3.9C79.6,29.9,80,29.8,80.8,30ZM67.4,26.2H79.7c-.1-3.9-2.5-6.7-5.8-6.7S67.5,22.1,67.4,26.2Z" transform="translate(-7.3 -18.2)"/><path id="path8" d="M83.3,30.1h1.2a4.8,4.8,0,0,0,2.8,4.1,7.4,7.4,0,0,0,6.5-.1,3,3,0,0,0,1.7-2.9,2.7,2.7,0,0,0-1.8-2.6c-1.3-.5-2.7-.8-4.1-1.2a28.6,28.6,0,0,1-4.1-1.5c-2.2-1.1-2.3-5.2.2-6.5a8.7,8.7,0,0,1,8.3-.2,4.5,4.5,0,0,1,2.2,4.5H95.1c-.2-3.4-2.9-4.4-5.9-4.1a7.9,7.9,0,0,0-2.6.8,2.5,2.5,0,0,0-1.5,2.5,2.5,2.5,0,0,0,1.7,2.4l4.1,1.2c1,.3,2.2.5,3.2.9a3.8,3.8,0,0,1,2.7,3.4A4.3,4.3,0,0,1,94.6,35c-2.9,1.6-7.6,1.2-9.7-.9A5.9,5.9,0,0,1,83.3,30.1Z" transform="translate(-7.3 -18.2)"/><path id="path10" d="M112.1,23.7h-1.2v-.4a3.8,3.8,0,0,0-3-3.6,7.9,7.9,0,0,0-4.8.3,2.7,2.7,0,0,0-2.1,2.7,2.6,2.6,0,0,0,2,2.7l5.2,1.3,1.6.5a4.3,4.3,0,0,1,2.6,5.5,4.3,4.3,0,0,1-2.3,2.5,9.4,9.4,0,0,1-7.7,0,5.3,5.3,0,0,1-3.2-5.1h1.1a6.3,6.3,0,0,0,7.4,4.8,6.4,6.4,0,0,0,2.1-.9,2.9,2.9,0,0,0,1.6-2.8,2.6,2.6,0,0,0-1.8-2.6c-1.3-.5-2.7-.8-4.1-1.2a28.6,28.6,0,0,1-4.1-1.5c-2.2-1-2.3-5.2.1-6.5a8.7,8.7,0,0,1,8.4-.1A4.5,4.5,0,0,1,112.1,23.7Z" transform="translate(-7.3 -18.2)"/><path id="path12" d="M37.9,35.5a1.9,1.9,0,0,1-2.4-.9c-1.4-2.1-2.9-4-4.4-6.1l-.6-.8q-2.7,3.4-5.1,6.9a1.8,1.8,0,0,1-2.3.9l6.6-8.8-6.1-8a2.1,2.1,0,0,1,2.4.9c1.4,2.1,3,4,4.5,6.1,1.6-2,3.2-4,4.6-6.1a1.8,1.8,0,0,1,2.3-.8L35,21.9l-3.2,4.2a.9.9,0,0,0-.1,1.2h.1Z" transform="translate(-7.3 -18.2)"/><path id="path14" d="M65.9,18.6v1.2a6.2,6.2,0,0,0-6.6,5.8v10H58.1V18.7h1.2v3.5C60.8,19.6,63,18.7,65.9,18.6Z" transform="translate(-7.3 -18.2)"/><path id="path16" d="M7.3,26.6a26.1,26.1,0,0,1,.6-2.7,7.3,7.3,0,0,1,11.6-4.1c2.4,1.9,3,4.6,2.9,7.6H8.8c-.3,5.4,3.6,8.7,8.6,7a5.1,5.1,0,0,0,3.3-3.7c.3-.8.7-1,1.5-.7a6.7,6.7,0,0,1-3.3,5,7.9,7.9,0,0,1-9.3-1.2,8.7,8.7,0,0,1-2.1-4.9,1.9,1.9,0,0,0-.2-.8Zm1.5-.4H21.1c-.1-3.9-2.6-6.7-5.9-6.7s-6.3,2.7-6.4,6.7Z" transform="translate(-7.3 -18.2)"/></g></svg>