<svg xmlns="http://www.w3.org/2000/svg" viewBox="0 0 820 557"><defs><style>.cls-1{fill:#24252d;}.cls-2{fill:#4c4b58;}.cls-3{fill:#31313d;}.cls-4{fill:#b2b2bf;}.cls-5{fill:#606cb3;}.cls-6{fill:#66c065;}.cls-7{fill:#4688bc;}.cls-8{fill:#b7d64f;}.cls-9{fill:#f45f4b;}.cls-10{fill:#27c1dc;}.cls-11{fill:#ffcd2d;}</style></defs><title>code-editor</title><g id="Layer_3" data-name="Layer 3"><path class="cls-1" d="M809.4,0H10.6C4.8,0,0,5.4,0,12V88H820V12C820,5.4,815.2,0,809.4,0Z"/><path class="cls-1" d="M0,544.8v.2a12,12,0,0,0,12,12h.2A12.2,12.2,0,0,1,0,544.8Z"/><path class="cls-2" d="M169.1,557H809.4c5.8,0,10.6-5.4,10.6-12V88H169.1Z"/><path class="cls-3" d="M0,88V544.8C0,551.5,4.8,557,10.8,557H169.1V88Z"/><circle class="cls-4" cx="81.5" cy="31.5" r="9.5"/><circle class="cls-4" cx="52.5" cy="31.5" r="9.5"/><circle class="cls-4" cx="24.5" cy="31.5" r="9.5"/></g><g id="line-11"><rect id="editor-lines" class="cls-5" x="360.8" y="413" width="372.3" height="38"/></g><g id="line-10"><rect id="editor-lines-2" data-name="editor-lines" class="cls-6" x="278.2" y="413" width="82.6" height="38"/></g><g id="line-9"><rect id="editor-lines-3" data-name="editor-lines" class="cls-7" x="454.3" y="346" width="151.6" height="38"/></g><g id="line-8"><rect id="editor-lines-4" data-name="editor-lines" class="cls-8" x="301.8" y="346" width="154.4" height="38"/></g><g id="line-7"><rect id="editor-lines-5" data-name="editor-lines" class="cls-9" x="221" y="346" width="81.7" height="38"/></g><g id="line-6"><rect id="editor-lines-6" data-name="editor-lines" class="cls-10" x="221" y="279" width="513" height="38"/></g><g id="line-5"><rect id="editor-lines-7" data-name="editor-lines" class="cls-10" x="361.7" y="212" width="372.3" height="38"/></g><g id="line-4"><rect id="editor-lines-8" data-name="editor-lines" class="cls-8" x="291.8" y="212" width="69.9" height="38"/></g><g id="line-3"><rect id="editor-lines-9" data-name="editor-lines" class="cls-10" x="361.8" y="145" width="194.3" height="38"/></g><g id="line-2"><rect id="editor-lines-10" data-name="editor-lines" class="cls-8" x="291.8" y="145" width="69.9" height="38"/></g><g id="line-1"><rect id="editor-lines-11" data-name="editor-lines" class="cls-11" x="221" y="145" width="70.8" height="38"/></g></svg>