<svg id="Layer_1" data-name="Layer 1" xmlns="http://www.w3.org/2000/svg" viewBox="0 0 195.5 190.7"><defs><style>.cls-1{fill:#fff;fill-rule:evenodd;}</style></defs><title>github</title><path class="cls-1" d="M100.6,5A97.8,97.8,0,0,0,69.7,195.5c4.9.9,6.7-2.1,6.7-4.7s-.1-8.5-.1-16.6c-27.2,5.9-33-13.1-33-13.1-4.4-11.3-10.8-14.3-10.8-14.3-8.9-6.1.6-6,.6-6,9.9.7,15,10.1,15,10.1,8.7,14.9,22.9,10.6,28.5,8.1.9-6.3,3.4-10.6,6.2-13.1-21.7-2.4-44.6-10.8-44.6-48.3A38,38,0,0,1,48.3,71.4c-1-2.5-4.4-12.4,1-25.9,0,0,8.2-2.6,26.8,10.1a92.6,92.6,0,0,1,49,0c18.6-12.7,26.8-10.1,26.8-10.1,5.4,13.5,2,23.4,1,25.9A37.6,37.6,0,0,1,163,97.6c0,37.6-22.9,45.8-44.7,48.3,3.5,3,6.7,8.9,6.7,18.1,0,13-.2,23.6-.2,26.8s1.8,5.6,6.8,4.7A97.8,97.8,0,0,0,100.6,5Z" transform="translate(-2.9 -5)"/></svg>