<?xml version="1.0" encoding="utf-8"?>
<!-- Generator: Adobe Illustrator 22.1.0, SVG Export Plug-In . SVG Version: 6.00 Build 0)  -->
<svg version="1.1" id="Layer_1" xmlns="http://www.w3.org/2000/svg" xmlns:xlink="http://www.w3.org/1999/xlink" x="0px" y="0px"
	 viewBox="0 0 358.7 349.9" style="enable-background:new 0 0 358.7 349.9;" xml:space="preserve">
<style type="text/css">
	.st0{fill:#F3F3F3;}
</style>
<title>shapes-1</title>
<path class="st0" d="M6.3,146.5c2.7-6.9,24.4-6.6,41.8-6.2c17.8,0.3,28.8,0.3,30.5-3.9l0.1-0.1c7.6-19.8-35.2-59-41.4-64.5
	c5.1-7.1,11.6-13.2,19.1-17.8c2.2-1.4,4.3-2.9,6.3-4.6c5-4.3,15.4-5.5,27.1-2.9c12.6,2.7,30.7,30.9,42.7,49.6
	c10.6,16.5,13.5,20.6,15.8,19.8c0.7-0.2,1.2-1,1.9-2.8c1.7-4.3,4-14.1,6.9-26.5c4.5-19.1,10.1-42.9,16.2-58.7
	c4.9-12.8,8.5-15.8,10.6-16.1c4.5-0.6,8.8-1.6,13.1-3.1c2.8-1.1,5.8-1.6,8.8-1.3c0.8,0.1,1.7-0.1,2.4-0.6c0.9-0.5,2.2-1.3,13.2,1.3
	c5.7,1.3,11.6,1.9,17.5,1.7c1.4-0.1,2.8,0,4.2,0.2c5.6,2.1,11,4.5,16.3,7.3c5.4,2.9,11.1,6.6,21.3,15.1
	c11.1,8.9,21.5,18.7,31.2,29.2c7.9,8.7,16.2,17.7,24.1,31.3c3.1,5.3,5.9,10.7,8.3,16.3c3,7.2,5.3,14.7,7,22.4
	c1.9,8.7,3.2,17.5,3.8,26.5c0.7,11.5,0.3,23-0.9,34.5c-1.3,11.9-2.9,26.7-9.9,44.8c-3.9,10.1-8.8,19.7-14.8,28.7
	c-5,7.6-10.7,14.7-16.9,21.4c-7.8,8.3-16.4,15.8-25.6,22.5c-6.4,4.8-13,9.2-19.9,13.2c-7.8,4.5-15.8,8.4-24.1,11.8
	c-6.1,2.5-12.3,4.7-18.6,6.5c-6.7,1.9-13.6,3.5-20.5,4.5c-7.8,1.2-15.7,1.8-23.6,2c-0.1-2.2,0.6-9.5,1.4-17.2
	c3.9-39.6,4.8-61.3-1.3-62.7c-3.4-0.8-9.4,3.7-25.6,45.9c-2.5,6.6-5.3,14-8.1,22l-0.1,0.2c-3.9,10-22.1,4.9-29.8,2.2
	c-7.2-2.5-14.2-5.6-20.9-9.2c-0.5-1.5-0.4-9.2-0.2-16.6c0.4-25.3,0.3-48.4-6-53.2c-1.3-1-2.9-1.4-4.5-1.1
	c-6.8,1.1-14.9,12.9-22,23.3c-4.2,6.1-8.9,13-10.7,13.1c0,0,0,0-0.1,0c-5.8-6.2-11.2-12.8-16.1-19.7c-8.8-11.9-15.8-25.1-20.9-39
	c0.9-1.5,8.6-6.2,15.4-10.4c14.1-8.7,31.6-19.5,34.4-26.8c0.4-0.9,0.5-1.9,0.3-2.9c-2-9.3-21.8-10.8-39.2-12.1
	c-5.9-0.4-11.5-0.9-15.4-1.5c-5.3-1-5.8-2-5.8-2.3c-0.6-10.9-0.1-21.8,1.3-32.6C6.1,147.1,6.2,146.8,6.3,146.5 M5.4,146.1
	c-0.1,0.4-0.2,0.7-0.3,1.1c-1.4,10.9-1.9,21.8-1.3,32.8c0.3,7.7,57.2,1.3,60.4,16.1c0.1,0.8,0,1.6-0.3,2.4
	c-4.3,11.3-48.1,33-49.8,37.3c-0.1,0.1-0.1,0.2,0,0.4c5.1,14.1,12.2,27.4,21.1,39.5c5,6.9,10.4,13.5,16.2,19.8
	c4.7,5,26.3-43.7,37.5-35.2c9.7,7.4,3.7,68.4,6.2,69.8c6.8,3.7,13.9,6.8,21.3,9.3c14.9,5.2,27.8,5.7,31.1-2.8l0.1-0.2
	c2.9-8.2,5.6-15.5,8.1-22c45.9-119.4,21,34.7,23.8,34.6c8.2-0.1,16.4-0.8,24.5-2c7-1.1,13.9-2.6,20.6-4.6c6.3-1.8,12.6-4,18.7-6.5
	c8.3-3.4,16.4-7.4,24.2-11.9c6.9-4,13.6-8.5,20-13.3c9.3-6.7,17.9-14.3,25.7-22.7c6.3-6.7,12-13.9,17-21.5c6-9.1,11-18.8,14.9-28.9
	l0,0c7-18.1,8.6-32.9,9.9-45c1.3-11.5,1.6-23.1,0.9-34.6c-0.6-9-1.8-17.8-3.8-26.6c-1.7-7.7-4-15.3-7.1-22.6
	c-2.4-5.7-5.2-11.2-8.3-16.5c-7.9-13.4-15.9-22.2-24.3-31.4c-9.7-10.5-20.1-20.4-31.3-29.3c-10.2-8.4-15.9-12.2-21.5-15.2
	c-5.3-2.8-10.8-5.3-16.4-7.4C241,8.1,232.9,9.7,221.5,7c-16.1-3.8-12.3-0.5-15.8-0.7c-8.7-0.5-7.4,2.2-22,4.4
	c-3.8,0.6-7.7,7.2-11.4,16.8c-10,26.1-18.9,74.4-23.1,85.2c-0.5,1.3-0.9,2-1.3,2.2c-4.9,1.7-37.4-65-58-69.4
	c-11-2.4-22.3-1.8-28,3.2c-6.3,5.5-15.3,8.2-26.1,23.3c0,0,49.7,43.5,41.8,64l0,0.1C74.3,144.5,10.6,132.5,5.4,146.1L5.4,146.1z"/>
<path class="st0" d="M11.3,147.5c2.6-6.8,23.7-6.4,40.6-6.2c17.3,0.2,28,0.2,29.7-3.9l0.1-0.1c7.4-19.4-34-57.5-40.1-63
	c5-7,11.3-12.9,18.6-17.4c2.1-1.4,4.2-2.8,6.1-4.5c4.8-4.2,14.9-5.4,26.4-2.9c12.3,2.6,29.8,30.1,41.4,48.4
	c10.2,16.1,13.1,20,15.3,19.3c0.7-0.2,1.2-1,1.9-2.7c1.6-4.2,3.9-13.8,6.7-25.9c4.4-18.7,9.9-41.9,15.9-57.3
	c4.8-12.5,8.2-15.5,10.3-15.8c4.3-0.6,8.6-1.6,12.7-3.1c2.7-1.1,5.6-1.5,8.5-1.3c0.8,0.1,1.7-0.1,2.4-0.6c0.8-0.5,2.1-1.3,12.8,1.2
	c5.6,1.3,11.3,1.8,17,1.6c1.4-0.1,2.7,0,4.1,0.2c5.4,2,10.7,4.4,15.8,7.2c5.3,2.9,10.8,6.4,20.7,14.7c10.8,8.7,20.9,18.2,30.2,28.4
	c7.7,8.5,15.7,17.3,23.4,30.5c3,5.1,5.7,10.4,8,15.9c2.9,7.1,5.2,14.4,6.8,21.9c1.9,8.5,3.1,17.1,3.6,25.8c0.6,11.2,0.3,22.5-1,33.7
	c-1.3,11.7-2.9,26.2-9.7,43.8c-3.8,9.9-8.6,19.3-14.4,28.1c-4.9,7.4-10.4,14.4-16.5,20.9c-7.6,8.1-16,15.5-24.9,22.1
	c-6.2,4.7-12.7,9-19.3,12.9c-7.5,4.4-15.4,8.3-23.4,11.6c-5.9,2.5-11.9,4.6-18.1,6.4c-6.5,1.9-13.2,3.4-19.9,4.5
	c-7.6,1.2-15.2,1.8-22.9,2c-0.1-2.2,0.6-9.3,1.4-16.8c3.8-38.6,4.8-59.9-1.1-61.3c-3.3-0.8-9.1,3.6-25,44.9
	c-2.5,6.4-5.1,13.7-8,21.5l-0.1,0.2c-3.8,9.8-21.6,4.8-29,2.2c-7-2.4-13.8-5.4-20.3-8.9c-0.5-1.5-0.3-8.9-0.2-16.2
	c0.5-24.7,0.4-47.3-5.7-51.9c-1.2-1-2.9-1.4-4.4-1.1c-6.6,1.1-14.5,12.6-21.5,22.8c-2.5,3.7-4.9,7.2-6.9,9.6
	c-2.8,3.4-3.6,3.3-3.6,3.3l0,0c-5.6-6.1-10.8-12.5-15.6-19.2c-8.5-11.7-15.3-24.5-20.2-38c0.9-1.5,8.4-6.1,15-10.2
	c13.7-8.5,30.7-19.1,33.5-26.2c0.4-0.9,0.5-1.9,0.3-2.9c-2-9.1-21.2-10.5-38.1-11.7c-5.7-0.4-11.1-0.8-15-1.5
	c-5.2-0.9-5.6-2-5.6-2.2c-0.5-10.6-0.1-21.3,1.3-31.8C11.1,148.1,11.2,147.8,11.3,147.5 M10.4,147.2c-0.1,0.4-0.2,0.7-0.3,1.1
	c-1.4,10.6-1.9,21.3-1.3,32c0.2,7.5,55.6,1.2,58.7,15.6c0.1,0.8,0,1.6-0.3,2.3c-4.2,11.1-46.9,32.3-48.5,36.6
	c-0.1,0.1-0.1,0.2,0,0.4c2.6,7.4,5.8,14.5,9.6,21.4c3.2,5.9,6.8,11.6,10.8,17.1c4.8,6.7,10.1,13.2,15.7,19.3
	c4.5,5,25.7-42.7,36.5-34.4c9.5,7.2,3.4,66.8,5.9,68.1c6.6,3.6,13.5,6.6,20.6,9.1c14.5,5.1,27,5.5,30.2-2.8l0.1-0.2
	c2.9-8,5.5-15.2,8-21.5c44.8-116.7,20.3,33.8,23.1,33.8c8-0.1,15.9-0.8,23.8-2c6.8-1.1,13.5-2.6,20-4.5c6.2-1.8,12.2-4,18.2-6.5
	c8.1-3.3,16-7.2,23.6-11.6c6.7-3.9,13.2-8.3,19.4-13c9-6.6,17.4-14,25.1-22.2c6.1-6.5,11.7-13.6,16.6-21
	c5.8-8.9,10.7-18.4,14.5-28.3l0,0c6.8-17.7,8.4-32.1,9.7-44c1.3-11.2,1.6-22.5,1-33.8c-0.5-8.7-1.7-17.4-3.6-26
	c-2.8-13.4-7.8-26.3-14.9-38.1c-7.6-13-15.4-21.7-23.5-30.6c-9.4-10.3-19.5-19.8-30.3-28.6c-9.9-8.2-15.4-11.8-20.9-14.8
	c-5.1-2.8-10.5-5.2-15.9-7.2c-2.2-0.8-10.1,0.8-21.1-1.8c-15.6-3.7-12-0.5-15.4-0.7c-8.5-0.5-7.2,2.2-21.4,4.3
	c-3.7,0.6-7.5,7-11.1,16.4c-9.8,25.5-18.6,72.7-22.6,83.2c-0.5,1.3-0.9,2-1.2,2.1c-4.8,1.7-36.2-63.4-56.2-67.7
	c-10.7-2.3-21.7-1.7-27.2,3.2c-6.1,5.4-14.9,8-25.4,22.8c0,0,48.3,42.4,40.5,62.5l-0.1,0.1C77.3,145.4,15.5,133.9,10.4,147.2
	L10.4,147.2z"/>
<path class="st0" d="M17.2,148.5L17.2,148.5c2.5-6.5,22.9-6.2,39.2-5.9c16.8,0.3,27.1,0.2,28.7-3.7l0.1-0.1
	c7.2-18.7-32.7-55.4-38.7-60.8c4.8-6.7,10.9-12.4,18-16.8c2.1-1.3,4.1-2.7,5.9-4.3c4.6-4.1,14.4-5.2,25.4-2.8
	c11.8,2.5,28.7,29.1,39.9,46.7c9.9,15.5,12.6,19.4,14.8,18.6c0.7-0.2,1.2-0.9,1.8-2.6c1.6-4.1,3.8-13.3,6.5-25
	c4.3-18,9.6-40.4,15.3-55.3c4.6-12,7.9-14.9,9.9-15.2c4.2-0.5,8.3-1.5,12.3-3c2.6-1.1,5.4-1.5,8.2-1.2c0.8,0.1,1.6-0.1,2.3-0.6
	c0.8-0.5,2-1.2,12.3,1.2c5.4,1.2,10.9,1.7,16.4,1.6c1.3-0.1,2.6,0,3.9,0.2c5.2,1.9,10.4,4.2,15.3,6.9c5.1,2.8,10.4,6.2,20,14.2
	c10.4,8.4,20.2,17.6,29.2,27.5c7.4,8.2,15.1,16.7,22.6,29.4c2.9,4.9,5.5,10.1,7.7,15.4c2.8,6.8,5,13.9,6.5,21.1
	c1.8,8.2,3,16.5,3.5,24.9c0.6,10.8,0.3,21.7-0.9,32.5c-1.2,11.3-2.8,25.2-9.3,42.3c-3.7,9.5-8.3,18.6-13.9,27.1
	c-4.7,7.1-10.1,13.9-15.9,20.2c-7.3,7.8-15.4,15-24.1,21.3c-6,4.5-12.2,8.7-18.7,12.5c-7.3,4.2-14.8,8-22.6,11.2
	c-11.8,5-24.1,8.5-36.7,10.5c-7.3,1.1-14.7,1.8-22.1,1.9c0-2.2,0.6-9,1.3-16.2c3.7-37.3,4.6-57.8-1.1-59.2
	c-3.2-0.8-8.8,3.5-24.2,43.4c-2.4,6.2-5,13.2-7.7,20.8l-0.1,0.2c-3.6,9.5-20.7,4.6-27.9,2.1c-6.7-2.4-13.3-5.2-19.6-8.6
	c-0.5-1.4-0.3-8.6-0.2-15.6c0.5-23.9,0.4-45.6-5.6-50.2c-1.2-0.9-2.8-1.3-4.3-1.1c-6.4,1-14,12.2-20.7,22c-2.4,3.5-4.7,6.8-6.5,9.1
	c-2.7,3.3-3.5,3.2-3.6,3.2c-5.4-5.8-10.4-12-15.1-18.5C36.6,258.4,30,246,25.3,232.9c0.9-1.4,8.1-5.9,14.4-9.8
	c13.2-8.2,29.7-18.4,32.3-25.3c0.4-0.9,0.5-1.9,0.3-2.8c-1.9-8.8-20.4-10.2-36.8-11.3c-5.5-0.4-10.7-0.8-14.5-1.4
	c-5.1-0.9-5.4-1.9-5.4-2.1c-0.5-10.3-0.1-20.6,1.3-30.7C17,149,17.1,148.7,17.2,148.5 M16.3,148.1c-0.1,0.3-0.2,0.7-0.3,1.1
	c-1.4,10.2-1.8,20.6-1.3,30.9c0.2,7.2,53.7,1.1,56.7,15.1c0.1,0.8,0,1.5-0.3,2.2c-4.1,10.7-45.2,31.2-46.8,35.3
	c-0.1,0.1-0.1,0.2,0,0.3c2.5,7.1,5.6,14,9.2,20.7c3.1,5.7,6.6,11.2,10.5,16.5c4.6,6.5,9.7,12.7,15.2,18.6
	c4.4,4.8,24.8-41.2,35.3-33.2c9.1,6.9,3.3,64.5,5.7,65.8c6.4,3.4,13.1,6.3,19.9,8.7c14,4.9,26.1,5.3,29.2-2.7l0.1-0.2
	c2.8-7.7,5.3-14.6,7.7-20.7c43.3-112.7,19.6,32.6,22.3,32.6c7.7-0.1,15.4-0.7,23-1.9c6.5-1,13-2.5,19.4-4.3
	c5.9-1.7,11.8-3.8,17.5-6.2c7.8-3.2,15.4-7,22.7-11.2c6.5-3.8,12.7-8,18.7-12.5c8.7-6.4,16.8-13.5,24.2-21.4
	c5.9-6.3,11.2-13.1,16-20.3c5.6-8.6,10.4-17.7,14.1-27.3l0,0c6.6-17.1,8.1-31,9.4-42.5c1.2-10.8,1.6-21.8,1-32.7
	c-0.5-8.4-1.7-16.8-3.5-25.1c-2.7-13-7.5-25.4-14.3-36.8c-7.4-12.6-14.9-20.9-22.7-29.6c-9.1-9.9-18.8-19.1-29.3-27.6
	c-9.5-7.9-14.9-11.4-20.1-14.3c-5-2.7-10.1-5-15.4-6.9c-2.1-0.8-9.7,0.7-20.4-1.8c-15.1-3.6-11.6-0.5-14.8-0.6
	c-8.2-0.4-6.9,2.1-20.7,4.2c-3.6,0.5-7.2,6.8-10.7,15.8c-9.4,24.6-17.9,70.1-21.8,80.3c-0.5,1.2-0.9,1.9-1.2,2.1
	c-4.6,1.6-34.9-61.2-54.3-65.3c-10.3-2.2-21-1.6-26.3,3c-5.9,5.2-14.3,7.8-24.5,22c0,0,46.6,40.9,39.1,60.3l-0.1,0.1
	C81,146.4,21.3,135.3,16.3,148.1L16.3,148.1z"/>
<path class="st0" d="M23.2,149.4L23.2,149.4c2.4-6.2,22-5.9,37.7-5.7c16.6,0.3,26.1,0.2,27.7-3.6l0.1-0.1
	c6.9-18-31.5-53.4-37.3-58.6c4.6-6.5,10.5-11.9,17.3-16.1c2-1.3,3.9-2.6,5.7-4.1c4.5-3.9,13.8-5,24.5-2.7c11.4,2.4,27.7,28,38.5,45
	c9.6,15,12.2,18.7,14.4,18c0.7-0.2,1.1-0.9,1.8-2.5c1.5-3.9,3.6-12.8,6.3-24.1c4.1-17.4,9.2-39,14.8-53.3
	c4.5-11.6,7.7-14.3,9.5-14.6c4-0.5,8-1.5,11.8-2.9c2.5-1,5.2-1.4,7.9-1.1c0.8,0.1,1.6-0.1,2.3-0.6c0.7-0.4,1.9-1.2,11.9,1.2
	c5.2,1.2,10.5,1.7,15.8,1.5c1.2-0.1,2.5,0,3.7,0.1c5.1,1.9,10,4.1,14.7,6.6c4.9,2.7,10,6,19.3,13.7c10,8.1,19.5,17,28.2,26.5
	c7.2,7.9,14.6,16.1,21.8,28.3c2.8,4.8,5.3,9.7,7.4,14.8c2.7,6.6,4.8,13.4,6.2,20.4c1.7,7.9,2.8,15.9,3.3,24
	c0.6,10.4,0.3,20.9-0.9,31.3c-1.2,10.8-2.7,24.3-9,40.7c-3.5,9.2-8,17.9-13.4,26.1c-4.6,6.9-9.7,13.4-15.3,19.4
	c-7.1,7.6-14.8,14.4-23.2,20.5c-5.7,4.3-11.7,8.4-17.9,12c-7,4.1-14.3,7.7-21.8,10.8c-5.5,2.3-11.1,4.3-16.9,6
	c-6.1,1.8-12.3,3.1-18.5,4.1c-7,1.1-14.1,1.7-21.2,1.8c0-2.1,0.6-8.6,1.3-15.6c3.6-35.9,4.4-55.7-1.2-57.1
	c-3.1-0.7-8.6,3.4-23.4,41.9c-2.3,6-4.8,12.7-7.4,20l-0.1,0.2c-3.5,9.1-19.9,4.4-26.9,2c-6.5-2.3-12.8-5.1-18.8-8.3
	c-0.4-1.4-0.3-8.3-0.2-15.1c0.4-23,0.4-44-5.4-48.4c-1.2-0.9-2.7-1.3-4.2-1c-6.2,1-13.5,11.8-20,21.2c-3.3,4.9-8.2,12.2-9.7,12
	c-5.2-5.6-10.1-11.6-14.5-17.8c-7.9-10.8-14.2-22.7-18.8-35.4c0.9-1.4,7.8-5.7,13.9-9.4c12.8-7.9,28.6-17.8,31.2-24.4
	c0.4-0.9,0.5-1.8,0.3-2.7c-1.8-8.5-19.7-9.8-35.5-11c-5.3-0.4-10.3-0.8-13.9-1.4c-4.9-0.8-5.2-1.8-5.2-2c-0.5-9.9-0.1-19.9,1.2-29.7
	C23,149.9,23,149.7,23.2,149.4 M22.2,149.1c-0.1,0.3-0.2,0.6-0.2,1c-1.3,9.9-1.7,19.8-1.2,29.8c0.2,7,51.7,1.1,54.6,14.6
	c0.1,0.7,0,1.5-0.2,2.2c-3.9,10.3-43.6,30.1-45.1,34c0,0.1-0.1,0.2,0,0.3c4.6,12.8,11,24.9,19,35.9c4.5,6.3,9.4,12.3,14.6,17.9
	c4.3,4.6,23.8-39.7,34-32c8.8,6.7,3.2,62.2,5.5,63.4c6.2,3.3,12.6,6.2,19.2,8.5c13.5,4.7,25.1,5.1,28.1-2.6l0.1-0.2
	c2.7-7.4,5.1-14.1,7.4-20c41.7-108.6,18.9,31.5,21.5,31.4c7.4-0.1,14.8-0.7,22.1-1.9c12.2-1.9,24.2-5.4,35.6-10.2
	c7.5-3.1,14.9-6.7,21.9-10.9c6.3-3.7,12.3-7.7,18.1-12.1c8.4-6.1,16.2-13,23.3-20.6c5.7-6.1,10.8-12.6,15.4-19.6
	c5.4-8.3,10-17.1,13.5-26.3l0,0c6.3-16.5,7.8-29.9,9-41c1.2-10.4,1.5-21,0.9-31.5c-0.5-8.1-1.6-16.2-3.4-24.2
	c-1.5-7-3.6-13.9-6.3-20.5c-2.1-5.2-4.7-10.1-7.5-15c-7.1-12.1-14.3-20.2-21.9-28.5c-8.7-9.6-18.2-18.5-28.2-26.6
	c-9.2-7.6-14.4-11-19.4-13.8c-4.8-2.6-9.7-4.8-14.8-6.7c-2-0.8-9.4,0.7-19.7-1.7c-14.5-3.4-11.2-0.4-14.3-0.6c-7.9-0.4-6.7,2-19.9,4
	c-3.4,0.5-6.9,6.5-10.3,15.3c-9.1,23.7-17.3,67.6-21.1,77.5c-0.5,1.2-0.8,1.8-1.2,2c-4.4,1.5-33.7-59-52.3-63
	c-9.9-2.1-20.2-1.6-25.3,2.9c-5.7,5-13.8,7.5-23.7,21.2c0,0,44.9,39.4,37.7,58.1l0,0.1C84.6,147.5,26.9,136.8,22.2,149.1L22.2,149.1
	z"/>
<path class="st0" d="M27.1,150.1L27.1,150.1c2.3-6.1,21.5-5.8,36.8-5.5c16.2,0.3,25.5,0.2,27-3.5l0.1-0.1
	c6.8-17.6-30.6-52-36.4-57.2C59.1,77.4,64.8,72,71.4,68c1.9-1.2,3.8-2.6,5.6-4.1c4.3-3.8,13.5-4.8,23.8-2.6
	c11.1,2.4,27,27.3,37.5,43.9c9.4,14.6,11.9,18.3,14,17.5c0.7-0.2,1.1-0.9,1.7-2.5c1.5-3.8,3.6-12.6,6.1-23.5c4-16.9,9-38,14.4-52
	c4.3-11.3,7.4-14,9.3-14.3c3.9-0.5,7.8-1.5,11.6-2.8c2.4-1,5.1-1.4,7.7-1.1c0.8,0.1,1.6-0.1,2.2-0.6c0.7-0.4,1.9-1.1,11.6,1.1
	c5,1.1,10.2,1.6,15.4,1.5c1.2-0.1,2.5,0,3.7,0.2c4.9,1.8,9.7,4,14.3,6.5c4.8,2.6,9.8,5.9,18.8,13.3c9.8,7.9,18.9,16.6,27.4,25.8
	c7,7.7,14.2,15.7,21.2,27.6c2.8,4.6,5.2,9.5,7.3,14.5c2.6,6.4,4.7,13,6.1,19.8c1.7,7.7,2.8,15.5,3.3,23.4
	c0.6,10.2,0.3,20.4-0.9,30.5c-1.2,10.6-2.6,23.7-8.8,39.7c-3.5,8.9-7.8,17.5-13.1,25.5c-4.5,6.7-9.5,13-15,18.9
	c-6.9,7.4-14.5,14.1-22.6,20c-5.6,4.2-11.5,8.1-17.5,11.7c-6.9,4-14,7.5-21.3,10.5c-5.4,2.3-10.8,4.2-16.4,5.8
	c-5.9,1.7-12,3.1-18.1,4c-6.8,1.1-13.8,1.7-20.7,1.8c0-2.1,0.6-8.4,1.3-15.1c3.5-35.1,4.4-54.4-1.1-55.7c-3-0.7-8.4,3.2-22.8,40.8
	c-2.2,5.8-4.7,12.4-7.2,19.5l-0.1,0.2c-3.4,8.8-19.4,4.3-26.2,2c-6.3-2.2-12.5-4.9-18.4-8.1c-0.4-1.4-0.3-8.1-0.2-14.6
	c0.4-22.4,0.4-42.9-5.3-47.2c-1.2-0.9-2.6-1.3-4.1-1c-6.1,1-13.2,11.5-19.6,20.7c-3.2,4.7-8,11.7-9.4,11.6
	c-5.1-5.5-9.8-11.3-14.2-17.4c-7.7-10.6-13.9-22.2-18.3-34.4c0.9-1.4,7.6-5.5,13.5-9.2c12.4-7.7,27.9-17.4,30.5-23.9
	c0.4-0.8,0.5-1.8,0.3-2.7c-1.8-8.3-19.2-9.6-34.6-10.7c-5.2-0.4-10.1-0.7-13.6-1.3c-4.8-0.8-5-1.8-5-1.9c-0.5-9.6-0.1-19.3,1.2-28.8
	C27,150.6,27.1,150.3,27.1,150.1 M26.2,149.7c-0.1,0.3-0.2,0.6-0.2,1c-1.3,9.6-1.7,19.3-1.2,29c0.2,6.8,50.5,1.1,53.3,14.2
	c0.1,0.7,0,1.4-0.3,2.1c-3.9,10-42.5,29.3-44,33.2c0,0.1-0.1,0.2,0,0.3c2.4,6.7,5.3,13.2,8.7,19.4c2.9,5.4,6.2,10.6,9.8,15.5
	c4.4,6.1,9.1,12,14.2,17.5c4.2,4.5,23.3-38.7,33.2-31.2c8.6,6.5,3.1,60.6,5.3,61.8c6,3.2,12.3,6,18.7,8.3c13.1,4.6,24.5,5,27.4-2.5
	l0.1-0.2c2.6-7.3,5-13.7,7.2-19.5c40.7-105.9,18.4,30.7,20.9,30.6c7.2-0.1,14.5-0.7,21.6-1.8c6.1-1,12.2-2.3,18.2-4.1
	c5.6-1.6,11.1-3.6,16.5-5.9c7.4-3,14.5-6.6,21.4-10.6c6.1-3.6,12-7.5,17.7-11.8c8.2-6,15.8-12.7,22.7-20.1
	c5.5-5.9,10.6-12.3,15.1-19.1c5.3-8.1,9.7-16.7,13.2-25.7l0,0c6.2-16.1,7.6-29.2,8.8-39.9c1.2-10.2,1.5-20.5,0.9-30.7
	c-0.5-7.9-1.6-15.8-3.3-23.6c-1.5-6.8-3.5-13.5-6.2-20c-2.1-5-4.5-9.9-7.3-14.6c-6.9-11.8-14-19.7-21.4-27.8
	c-8.5-9.3-17.7-18-27.5-25.9c-8.9-7.4-14-10.7-18.9-13.5c-4.7-2.5-9.5-4.7-14.5-6.5c-2-0.8-9.1,0.7-19.2-1.7
	c-14.2-3.3-10.9-0.4-13.9-0.6c-7.7-0.4-6.5,2-19.5,3.9c-3.4,0.5-6.7,6.4-10,14.9c-8.9,23.1-16.8,65.9-20.5,75.5
	c-0.4,1.1-0.8,1.8-1.1,1.9c-4.3,1.5-32.9-57.5-51-61.4c-9.7-2.1-19.8-1.6-24.7,2.9c-5.6,4.9-13.5,7.3-23.1,20.7
	c0,0,43.8,38.4,36.8,56.7l0,0.1C87.1,148.2,30.9,137.7,26.2,149.7L26.2,149.7z"/>
<path class="st0" d="M32.4,150.9L32.4,150.9c2.2-5.9,20.7-5.6,35.5-5.3c15.7,0.2,24.6,0.2,26.1-3.5l0-0.1
	c6.5-17-29.5-50.2-35.1-55.3c4.4-6.1,9.9-11.2,16.2-15.2c1.9-1.2,3.7-2.5,5.4-3.9c4.2-3.7,13-4.6,23-2.5c10.7,2.3,26,26.4,36.2,42.3
	c9,14.2,11.5,17.7,13.6,16.9c0.6-0.2,1.1-0.9,1.7-2.4c1.4-3.7,3.4-12.1,5.9-22.7c3.9-16.3,8.7-36.7,13.9-50.2
	c4.2-10.9,7.2-13.5,8.9-13.7c3.8-0.5,7.6-1.4,11.2-2.7c2.3-1,4.9-1.3,7.4-1.1c0.8,0.1,1.5-0.1,2.1-0.5c0.7-0.4,1.8-1.1,11.1,1.1
	c4.9,1.1,9.9,1.6,14.9,1.4c1.2-0.1,2.4,0,3.5,0.2c4.8,1.8,9.4,3.8,13.9,6.2c4.6,2.5,9.4,5.7,18.1,12.9c9.4,7.6,18.3,16,26.5,25
	c6.8,7.4,13.7,15.1,20.5,26.7c2.6,4.5,5,9.2,7,14c2.5,6.2,4.5,12.6,5.9,19.1c1.6,7.4,2.6,15,3.1,22.6c0.5,9.8,0.3,19.7-0.9,29.5
	c-1.1,10.2-2.5,22.9-8.5,38.4c-3.3,8.6-7.6,16.9-12.7,24.6c-4.3,6.5-9.1,12.6-14.4,18.3c-6.7,7.1-14,13.6-21.8,19.3
	c-5.4,4.1-11.1,7.9-16.9,11.3c-6.6,3.9-13.5,7.3-20.5,10.2c-5.2,2.2-10.5,4-15.8,5.6c-5.7,1.7-11.6,3-17.4,3.9
	c-6.6,1-13.3,1.6-19.9,1.7c0-2,0.6-8.1,1.2-14.5c3.4-33.9,4.2-52.6-1.1-53.8c-2.9-0.7-8.1,3.1-22.1,39.4c-2.2,5.6-4.5,12-7,18.9
	l-0.1,0.2c-3.3,8.5-18.7,4.1-25.2,1.9c-6.1-2.1-12-4.7-17.7-7.8c-0.4-1.4-0.3-7.8-0.1-14.1c0.4-21.7,0.3-41.5-5.1-45.6
	c-1.1-0.9-2.5-1.2-3.9-1c-5.9,1-12.8,11.1-18.9,20c-3.1,4.4-7.6,11.1-9.1,11.2c-4.9-5.3-9.5-10.9-13.7-16.8
	c-7.4-10.2-13.4-21.4-17.7-33.2c0.9-1.3,7.3-5.3,13-8.9c12-7.5,27-16.7,29.4-23c0.3-0.8,0.4-1.7,0.3-2.6
	c-1.7-8.1-18.6-9.3-33.5-10.4c-5-0.4-9.7-0.7-13.1-1.3c-4.7-0.8-4.8-1.8-4.8-1.9c-0.5-9.3-0.1-18.6,1.2-27.9
	C32.3,151.4,32.3,151.2,32.4,150.9 M31.5,150.6c-0.1,0.3-0.2,0.6-0.3,1c-1.2,9.3-1.6,18.7-1.1,28.1c0.2,6.5,48.7,1,51.4,13.7
	c0.1,0.7,0,1.4-0.2,2c-3.7,9.7-41.1,28.3-42.5,32c0,0.1-0.1,0.2,0,0.3c2.3,6.4,5.1,12.7,8.4,18.7c2.8,5.2,6,10.2,9.5,15
	c4.2,5.9,8.8,11.5,13.8,16.9c4,4.3,22.5-37.4,32-30.2c8.3,6.3,3,58.5,5.2,59.7c5.8,3.1,11.9,5.8,18.1,8c12.7,4.5,23.7,4.8,26.5-2.5
	l0.1-0.2c2.5-7,4.8-13.3,7-18.8c39.3-102.3,17.8,29.6,20.2,29.6c7-0.1,14-0.7,20.9-1.7c5.9-0.9,11.8-2.3,17.6-4
	c5.4-1.6,10.7-3.5,15.9-5.7c7.1-2.9,14-6.3,20.6-10.2c5.9-3.5,11.6-7.3,17-11.4c7.9-5.8,15.3-12.3,22-19.4
	c5.4-5.7,10.2-11.9,14.6-18.4c5.1-7.8,9.4-16.1,12.7-24.8l0,0c6-15.5,7.4-28.2,8.5-38.6c1.1-9.8,1.4-19.8,0.9-29.7
	c-0.5-7.7-1.5-15.3-3.2-22.8c-2.5-11.8-6.9-23.1-13-33.4c-6.7-11.4-13.5-19-20.6-26.8c-8.2-9-17.1-17.4-26.6-25.1
	c-8.6-7.2-13.5-10.4-18.3-13c-4.5-2.4-9.2-4.5-14-6.3c-1.9-0.7-8.8,0.7-18.5-1.6c-13.7-3.2-10.5-0.4-13.5-0.6
	c-7.4-0.4-6.3,1.9-18.8,3.8c-3.2,0.5-6.5,6.1-9.7,14.4c-8.6,22.3-16.3,63.7-19.8,72.9c-0.4,1.1-0.8,1.8-1.1,1.9
	c-4.2,1.5-31.7-55.6-49.3-59.3c-9.4-2-19-1.5-23.9,2.8c-5.4,4.7-13,7-22.3,20c0,0,42.3,37.1,35.5,54.7l0,0.1
	C90.2,149,36,138.9,31.5,150.6L31.5,150.6z"/>
<path class="st0" d="M37.6,151.5L37.6,151.5c2.2-5.6,19.9-5.2,34.2-4.9c15.2,0.3,23.8,0.3,25.2-3.3l0-0.1
	c6.2-16.2-28.5-48.1-34.1-53c4.2-5.8,9.5-10.6,15.6-14.4c1.8-1.1,3.6-2.4,5.2-3.8c4-3.5,12.5-4.4,22.2-2.3
	c10.3,2.2,25.2,25.3,35.1,40.7c8.9,13.8,11.2,17,13.2,16.3c0.6-0.2,1.1-0.9,1.7-2.4c1.4-3.5,3.3-11.6,5.6-21.8
	c3.7-15.6,8.3-35.1,13.2-48c4-10.4,6.8-12.9,8.5-13.1c3.7-0.5,7.3-1.3,10.8-2.5c2.3-0.9,4.7-1.3,7.1-1c0.7,0.1,1.5-0.1,2.1-0.5
	c0.7-0.4,1.7-1,10.7,1.1c4.7,1.1,9.5,1.5,14.4,1.4c1.1-0.1,2.3,0,3.4,0.2c4.6,1.7,9.1,3.7,13.4,6c4.4,2.4,9.1,5.4,17.5,12.4
	c9.1,7.3,17.7,15.4,25.6,24c6.5,7.1,13.3,14.5,19.9,25.6c2.6,4.3,4.8,8.8,6.8,13.4c2.5,5.9,4.4,12.1,5.8,18.4
	c1.6,7.1,2.6,14.4,3.1,21.7c0.6,9.4,0.3,18.8-0.7,28.2c-1.1,9.8-2.4,21.9-8,36.7c-3.2,8.2-7.2,16.1-12.1,23.5
	c-4.1,6.2-8.8,12-13.9,17.5c-6.4,6.8-13.4,13-21,18.4c-5.2,3.9-10.7,7.5-16.3,10.8c-6.4,3.7-13,6.9-19.8,9.6
	c-5,2.1-10.1,3.8-15.3,5.3c-5.5,1.6-11.1,2.8-16.8,3.7c-6.4,1-12.8,1.5-19.3,1.6c0-2,0.5-7.8,1.1-13.9c3.1-32.5,3.9-50.4-1.3-51.6
	c-3-0.7-7.9,3.2-21.2,37.7c-2.1,5.4-4.3,11.5-6.7,18l-0.1,0.2c-3.1,8.1-18,3.9-24.3,1.7c-5.9-2.1-11.6-4.6-17.1-7.5
	c-0.4-1.3-0.3-7.5-0.2-13.5c0.3-20.8,0.2-39.8-5.1-43.7c-1.1-0.9-2.5-1.2-3.9-1c-5.7,0.9-12.3,10.6-18.2,19.2
	c-3.1,4.5-7.3,10.6-8.6,10.7c-4.7-5.1-9.1-10.4-13.2-16.1c-7.2-9.8-13-20.5-17.2-31.9c0.9-1.3,7.1-5.1,12.5-8.4
	c11.6-7.1,26-16,28.3-22c0.3-0.8,0.4-1.7,0.3-2.5c-1.7-7.8-18-9-32.4-10.1c-4.8-0.4-9.4-0.7-12.7-1.3c-4.5-0.8-4.6-1.7-4.7-1.8
	c-0.5-8.9-0.1-17.8,1-26.7C37.4,151.9,37.5,151.7,37.6,151.5 M36.6,151.1c-0.1,0.3-0.2,0.6-0.2,0.9c-1.2,8.9-1.5,17.9-1,26.9
	c0.3,6.3,47.1,1.2,49.7,13.3c0.1,0.7,0,1.3-0.2,1.9c-3.6,9.3-39.6,27-40.9,30.5c0,0.1-0.1,0.2,0,0.3c2.3,6.2,5,12.2,8.2,18
	c2.8,5,5.8,9.8,9.2,14.4c4.1,5.7,8.5,11.1,13.3,16.2c3.9,4.2,21.6-35.8,30.8-28.8c8,6.1,3.1,56.1,5.2,57.2c5.6,3,11.5,5.6,17.5,7.7
	c12.3,4.3,22.8,4.7,25.5-2.3l0.1-0.2c2.4-6.7,4.6-12.7,6.7-18c37.6-97.8,17.3,28.4,19.6,28.4c6.7-0.1,13.5-0.6,20.1-1.6
	c5.7-0.9,11.4-2.1,16.9-3.7c5.2-1.5,10.4-3.3,15.4-5.3c6.8-2.8,13.5-6,19.9-9.7c5.7-3.3,11.1-6.9,16.4-10.8
	c7.6-5.5,14.7-11.7,21.1-18.5c5.1-5.5,9.8-11.4,14-17.6c4.9-7.4,9-15.4,12.2-23.7l0,0c5.7-14.9,7-26.9,8.1-36.9
	c1.1-9.4,1.3-18.9,0.7-28.4c-0.5-7.3-1.5-14.6-3.1-21.8c-1.4-6.3-3.3-12.5-5.8-18.5c-2-4.7-4.3-9.2-6.9-13.5
	c-6.5-11-13.1-18.2-20-25.8c-8-8.7-16.6-16.7-25.7-24.1c-8.4-6.9-13.1-10-17.7-12.5c-4.4-2.3-8.9-4.4-13.5-6.1
	c-1.9-0.7-8.5,0.6-17.9-1.6c-13.2-3.1-10.2-0.4-13-0.6c-7.2-0.4-6.1,1.8-18.1,3.6c-3.1,0.5-6.3,5.9-9.3,13.7
	c-8.2,21.3-15.5,60.9-18.9,69.8c-0.4,1.1-0.8,1.7-1,1.7c-4,1.4-30.8-53.3-47.8-56.9c-9-1.9-18.4-1.5-23,2.6
	c-5.2,4.5-12.5,6.7-21.4,19c0,0,40.9,35.7,34.4,52.5l0,0.1C93.3,149.9,40.9,140,36.6,151.1L36.6,151.1z"/>
<path class="st0" d="M43.6,152.4L43.6,152.4c2-5.3,19.1-5,32.7-4.7c14.6,0.2,22.9,0.3,24.2-3.2l0-0.1c6-15.6-27.2-46-32.6-50.9
	c4-5.5,9.1-10.2,14.9-13.7c1.7-1.1,3.4-2.3,5-3.6c3.8-3.4,12-4.2,21.2-2.2c9.9,2.1,24.1,24.3,33.6,39c8.5,13.3,10.7,16.3,12.7,15.6
	c0.6-0.2,1.1-0.8,1.6-2.3c1.3-3.4,3.1-11.1,5.4-20.9c3.5-15,7.9-33.7,12.7-46c3.8-9.9,6.5-12.3,8.1-12.5c3.5-0.5,7-1.3,10.3-2.5
	c2.2-0.9,4.5-1.2,6.8-1c0.7,0.1,1.4-0.1,2-0.5c0.6-0.4,1.6-1,10.2,1c4.5,1,9.1,1.5,13.8,1.4c1.1-0.1,2.2,0,3.2,0.2
	c4.4,1.6,8.7,3.6,12.8,5.8c4.3,2.3,8.7,5.2,16.8,11.9c8.8,7,17,14.7,24.6,23c6.3,6.8,12.7,13.9,19,24.6c2.5,4.1,4.6,8.4,6.5,12.8
	c2.4,5.7,4.2,11.6,5.5,17.6c1.5,6.8,2.5,13.8,3,20.8c0.5,9,0.3,18.1-0.7,27c-1,9.4-2.3,21-7.7,35.2c-3.1,7.9-6.9,15.4-11.6,22.5
	c-4,5.9-8.4,11.5-13.3,16.7c-6.1,6.5-12.9,12.4-20.1,17.7c-5,3.7-10.2,7.2-15.6,10.3c-6.1,3.5-12.4,6.6-19,9.3
	c-4.8,2-9.7,3.7-14.6,5.1c-5.3,1.5-10.7,2.6-16.1,3.5c-6.1,0.9-12.2,1.4-18.4,1.5c0-1.9,0.5-7.5,1.1-13.3c3-31.2,3.7-48.3-1.2-49.5
	c-2.9-0.7-7.6,3.1-20.3,36.2c-2,5.2-4.1,11-6.4,17.3l-0.1,0.2c-3,7.7-17.2,3.7-23.2,1.6c-5.6-2-11.1-4.4-16.4-7.2
	c-0.3-1.3-0.3-7.2-0.2-12.9c0.3-19.9,0.2-38.1-4.9-42c-1.1-0.8-2.4-1.2-3.7-0.9C100,241,93.6,250.3,88,258.5
	c-2.9,4.2-6.9,10-8.2,10.2c-4.5-4.9-8.8-10-12.7-15.4c-3.2-4.4-6.1-8.9-8.7-13.7c-3-5.4-5.5-11-7.6-16.8c0.9-1.2,6.8-4.9,12-8
	c11.1-6.8,24.9-15.3,27.1-21.1c0.3-0.8,0.4-1.6,0.3-2.4c-1.6-7.5-17.3-8.7-31.1-9.7c-4.6-0.4-9-0.7-12.1-1.2
	c-4.3-0.8-4.4-1.6-4.4-1.7c-0.5-8.5-0.1-17.1,1-25.6C43.5,152.8,43.5,152.6,43.6,152.4 M42.7,152c-0.1,0.3-0.2,0.6-0.2,0.9
	c-1.1,8.5-1.5,17.2-1,25.8c0.2,6,45.1,1.1,47.6,12.7c0.1,0.6,0,1.3-0.2,1.9c-3.4,8.9-37.9,25.9-39.2,29.3c0,0.1,0,0.2,0,0.3
	c2.2,5.9,4.8,11.7,7.8,17.3c2.6,4.8,5.6,9.4,8.8,13.8c3.9,5.4,8.2,10.6,12.8,15.5c3.7,4,20.7-34.3,29.5-27.6
	c7.7,5.8,2.9,53.7,5,54.8c5.4,2.9,11,5.3,16.8,7.4c11.8,4.1,21.9,4.5,24.5-2.2l0.1-0.1c2.3-6.4,4.4-12.2,6.4-17.3
	c36-93.8,16.6,27.3,18.8,27.2c6.5-0.1,12.9-0.6,19.3-1.5c5.5-0.8,11-2,16.3-3.5c5-1.4,9.9-3.1,14.7-5.1c6.6-2.7,12.9-5.8,19.1-9.3
	c5.4-3.2,10.7-6.6,15.7-10.4c7.3-5.3,14.1-11.2,20.2-17.7c4.9-5.2,9.4-10.9,13.4-16.9c4.7-7.1,8.6-14.8,11.7-22.8l0,0
	c5.5-14.2,6.7-25.8,7.8-35.4c1-9,1.3-18.1,0.7-27.2c-0.4-7-1.4-14-3-20.9c-1.3-6.1-3.2-12-5.6-17.7c-1.9-4.5-4.1-8.8-6.6-12.9
	c-6.2-10.5-12.6-17.5-19.2-24.7c-7.6-8.3-15.9-16-24.7-23.1c-8-6.6-12.5-9.6-17-12c-4.2-2.2-8.5-4.2-13-5.8
	c-1.8-0.7-8.2,0.6-17.2-1.5c-12.7-3-9.7-0.4-12.5-0.6c-6.9-0.4-5.8,1.7-17.4,3.4c-3,0.4-6,5.6-8.9,13.2
	c-7.9,20.5-14.8,58.4-18.1,66.9c-0.4,1-0.7,1.6-1,1.7c-3.9,1.3-29.5-51.1-45.8-54.6c-8.7-1.9-17.7-1.4-22.1,2.5
	c-5,4.3-12,6.4-20.5,18.3c0,0,39.2,34.2,33,50.4l0,0.1C97,150.9,46.7,141.4,42.7,152L42.7,152z"/>
<path class="st0" d="M49.6,153.4c1.9-5,18.2-4.8,31.3-4.5c14,0.3,21.9,0.2,23.2-3l0-0.1c5.7-14.9-25.9-44-31.2-48.7
	c3.8-5.3,8.7-9.8,14.2-13.2c1.7-1,3.2-2.2,4.8-3.4c3.7-3.2,11.4-4,20.3-2.1c9.4,2,23.1,23.2,32.1,37.3c8.2,12.7,10.3,15.6,12.2,15
	c0.6-0.2,1-0.8,1.6-2.2c1.2-3.2,3-10.6,5.2-20c3.4-14.4,7.6-32.2,12.1-44.1c3.8-10,6.5-11.8,7.8-11.9c3.4-0.4,6.7-1.2,9.9-2.3
	c2.1-0.8,4.3-1.2,6.5-0.9c0.7,0.1,1.4-0.1,2-0.5c0.6-0.3,1.6-0.9,9.8,1c4.3,1,8.7,1.4,13.1,1.3c1-0.1,2.1,0,3.1,0.1
	c4.2,1.6,8.3,3.4,12.3,5.5c4.1,2.2,8.4,5,16.1,11.3c8.4,6.7,16.2,14.1,23.5,22c6,6.6,12.2,13.3,18.2,23.5c2.4,3.9,4.4,8,6.2,12.3
	c2.3,5.4,4.1,11.1,5.3,16.8c1.5,6.5,2.4,13.2,2.8,19.9c0.5,8.6,0.3,17.3-0.7,25.9c-1,9-2.2,20.1-7.4,33.6
	c-2.9,7.6-6.6,14.8-11.1,21.5c-3.8,5.7-8,11-12.7,16c-5.9,6.2-12.3,11.9-19.3,16.9c-4.8,3.6-9.8,6.9-15,9.9
	c-5.8,3.4-11.9,6.3-18.1,8.8c-9.4,3.9-19.3,6.7-29.4,8.3c-5.8,0.9-11.6,1.4-17.5,1.5c0-1.9,0.5-7.1,1-12.6
	c2.9-29.9,3.6-46.3-1.2-47.4c-2.8-0.7-7.3,2.9-19.5,34.7c-1.9,4.9-4,10.5-6.1,16.5l-0.1,0.1c-2.8,7.4-16.5,3.5-22.2,1.5
	c-5.4-1.9-10.6-4.2-15.7-6.9c-0.3-1.3-0.2-6.9-0.2-12.3c0.3-19.1,0.1-36.5-4.8-40.2c-1-0.8-2.3-1.1-3.6-0.9
	c-5.2,0.9-11.3,9.7-16.7,17.6c-2.8,4-6.5,9.5-7.8,9.8c-4.3-4.6-8.4-9.6-12.1-14.7c-3.1-4.2-5.9-8.5-8.4-13.1
	c-2.8-5.2-5.3-10.6-7.3-16.1c0.9-1.2,6.5-4.6,11.4-7.6c10.6-6.5,23.8-14.7,26-20.2c0.3-0.7,0.4-1.6,0.2-2.4
	c-1.5-7.2-16.6-8.3-29.8-9.3c-4.4-0.3-8.6-0.6-11.6-1.2c-4.1-0.7-4.2-1.5-4.2-1.5c-0.4-8.2-0.1-16.4,1-24.5
	C49.5,153.8,49.5,153.6,49.6,153.4L49.6,153.4 M48.7,153.1c-0.1,0.3-0.2,0.6-0.2,0.8c-1.1,8.2-1.4,16.4-0.9,24.7
	c0.2,5.8,43.1,1,45.6,12.2c0.1,0.6,0,1.2-0.2,1.8c-3.3,8.5-36.3,24.7-37.5,28c0,0.1-0.1,0.2,0,0.3c2.1,5.7,4.6,11.2,7.5,16.5
	c2.5,4.6,5.3,9,8.4,13.2c3.8,5.2,7.8,10.2,12.2,14.9c3.6,3.8,19.8-32.8,28.3-26.4c7.3,5.6,2.8,51.4,4.7,52.5
	c5.2,2.7,10.5,5.1,16.1,7c11.3,3.9,21,4.3,23.4-2.1l0.1-0.2c2.2-6.1,4.2-11.6,6.1-16.5c34.5-89.7,15.8,26.1,18,26.1
	c6.2-0.1,12.4-0.6,18.5-1.5c5.2-0.8,10.4-1.9,15.5-3.4c4.8-1.4,9.5-3,14.1-4.9c6.3-2.6,12.4-5.5,18.2-8.9c5.2-3,10.2-6.3,15-9.9
	c7-5,13.5-10.7,19.4-17c4.7-5,9-10.4,12.8-16.1c4.5-6.8,8.2-14.1,11.2-21.7l0,0c5.2-13.6,6.4-24.7,7.4-33.9c1-8.6,1.2-17.4,0.7-26
	c-0.4-6.7-1.4-13.4-2.9-20c-1.3-5.8-3.1-11.5-5.3-17c-1.8-4.3-3.9-8.4-6.3-12.4c-6-10-12-16.7-18.3-23.7
	c-7.3-7.9-15.2-15.3-23.6-22.1c-7.7-6.3-12-9.2-16.2-11.5c-4-2.1-8.1-4-12.4-5.6c-1.7-0.6-7.8,0.6-16.4-1.5
	c-12.1-2.9-9.3-0.4-11.9-0.6c-6.6-0.4-5.5,1.7-16.6,3.3c-2.9,0.4-5.8,5.4-8.6,12.6c-7.5,19.6-14.2,55.9-17.3,64
	c-0.4,0.9-0.7,1.5-1,1.6c-3.7,1.3-28.3-48.9-43.8-52.2c-8.3-1.8-16.9-1.4-21.1,2.3c-4.8,4.1-11.5,6.2-19.7,17.5
	c0,0,37.6,32.7,31.6,48.2l0,0.1C100.6,152,52.6,142.9,48.7,153.1L48.7,153.1z"/>
<path class="st0" d="M54.6,154.2c1.9-4.8,17.5-4.5,30.1-4.3c13.4,0.3,21.1,0.2,22.4-3l0-0.1c5.5-14.3-24.9-42.3-30-46.9
	c3.7-5,8.3-9.3,13.6-12.6c1.6-1,3.1-2.1,4.6-3.3c3.5-3.1,11-3.9,19.5-2c9,1.9,22.2,22.3,30.9,35.8c7.9,12.3,9.9,15.1,11.8,14.4
	c0.6-0.2,1-0.8,1.5-2.2c1.2-3.1,2.9-10.2,5-19.2c3.3-13.8,7.3-31,11.7-42.4c3.7-9.6,6.2-11.3,7.4-11.5c3.2-0.4,6.4-1.2,9.5-2.2
	c2-0.8,4.1-1.1,6.2-0.9c0.7,0.1,1.4-0.1,1.9-0.5c0.6-0.3,1.5-0.9,9.4,1c4.2,1,8.4,1.4,12.7,1.2c1-0.1,2,0,2.9,0.1
	c4.1,1.5,8,3.3,11.8,5.3c3.9,2.1,8,4.8,15.5,10.9c8.1,6.5,15.6,13.5,22.6,21.1c5.8,6.3,11.7,12.8,17.5,22.6c2.3,3.8,4.3,7.7,6,11.8
	c2.2,5.2,3.9,10.6,5.1,16.2c1.4,6.3,2.3,12.7,2.7,19.1c0.5,8.3,0.3,16.6-0.6,24.9c-0.9,8.6-2.1,19.3-7.1,32.4
	c-2.8,7.3-6.4,14.2-10.7,20.7c-3.6,5.5-7.7,10.6-12.2,15.4c-5.6,6-11.9,11.4-18.5,16.2c-4.6,3.4-9.4,6.6-14.4,9.5
	c-5.6,3.2-11.5,6.1-17.5,8.5c-4.4,1.8-8.9,3.4-13.5,4.7c-4.9,1.4-9.8,2.5-14.8,3.2c-5.6,0.8-11.2,1.3-16.8,1.4c0-1.8,0.5-6.9,1-12.1
	c2.9-29.4,3.5-44.6-1.2-45.7c-2.7-0.6-7.1,2.8-18.9,33.4c-1.8,4.8-3.8,10.1-5.9,15.9l-0.1,0.1c-2.7,7.1-15.8,3.3-21.3,1.5
	c-5.2-1.8-10.2-4-15-6.6c-0.3-1.2-0.2-6.6-0.2-11.8c0.3-18.4,0.2-35.2-4.5-38.7c-1-0.8-2.3-1.1-3.5-0.9c-5,0.8-10.9,9.4-16.2,16.9
	c-2.6,3.8-6.2,9.1-7.5,9.4c-4.2-4.5-8.1-9.2-11.7-14.1c-2.9-4-5.6-8.2-8-12.6c-2.7-5-5.1-10.1-7.1-15.5c0.9-1.2,6.3-4.4,11-7.3
	c10.2-6.3,23-14.1,25.1-19.5c0.3-0.7,0.4-1.5,0.2-2.3c-1.5-7-16-8-28.7-9c-4.3-0.3-8.3-0.6-11.2-1.1c-3.9-0.7-4-1.4-4-1.4
	c-0.4-7.9-0.1-15.7,0.9-23.5c0-0.2,0.1-0.4,0.2-0.6 M53.6,154c-0.1,0.3-0.2,0.5-0.2,0.8c-1,7.9-1.3,15.8-0.9,23.7
	c0.2,5.5,41.5,1,43.9,11.7c0.1,0.6,0,1.2-0.2,1.7c-3.1,8.2-34.9,23.8-36.1,27c0,0.1,0,0.2,0,0.3c2,5.4,4.5,10.7,7.3,15.8
	c2.4,4.4,5.2,8.6,8.2,12.7c3.6,5,7.5,9.8,11.8,14.3c3.4,3.7,19-31.6,27.2-25.4c7.1,5.3,2.7,49.5,4.6,50.5c5,2.7,10.1,4.9,15.4,6.8
	c10.8,3.8,20.2,4.2,22.6-2l0.1-0.2c2.1-5.9,4.1-11.2,5.9-15.9c33.2-86.4,15.2,25.1,17.3,25.1c6-0.1,11.9-0.5,17.8-1.4
	c5-0.8,10-1.8,14.9-3.2c4.6-1.3,9.2-2.9,13.6-4.7c6-2.5,11.9-5.3,17.5-8.6c5-2.9,9.8-6.1,14.5-9.6c6.7-4.9,13-10.3,18.7-16.4
	c4.5-4.8,8.7-10,12.3-15.5c4.3-6.6,7.9-13.6,10.8-20.9l0,0c5-13.1,6.2-23.8,7.2-32.6c0.9-8.3,1.2-16.7,0.6-25.1
	c-0.4-6.5-1.3-12.9-2.8-19.3c-1.2-5.6-3-11-5.2-16.3c-1.7-4.1-3.8-8.1-6-12c-5.7-9.7-11.6-16.1-17.7-22.8
	c-7-7.6-14.6-14.8-22.7-21.3c-7.4-6.1-11.5-8.8-15.6-11c-3.8-2.1-7.8-3.9-11.9-5.4c-1.6-0.6-7.5,0.5-15.8-1.4
	c-11.7-2.8-9-0.4-11.5-0.5c-6.3-0.4-5.3,1.6-16,3.1c-2.8,0.4-5.6,5.2-8.2,12.1c-7.2,18.9-13.7,53.8-16.7,61.6
	c-0.4,0.9-0.7,1.5-0.9,1.6c-3.6,1.2-27.2-47.1-42.1-50.3c-8-1.7-16.2-1.3-20.3,2.3c-4.6,4-11.1,5.9-18.9,16.8
	c0,0,36.1,31.5,30.4,46.4l0,0.1c-2.4,6.1-48.7-2.6-52.5,7.3L53.6,154z"/>
<path class="st0" d="M60.6,155.2c1.8-4.6,16.7-4.3,28.6-4.1c12.8,0.2,20.2,0.2,21.4-2.8l0-0.1c5.2-13.6-23.6-40.2-28.6-44.7
	c3.5-4.8,7.9-8.9,13-12c1.5-1,3-2,4.4-3.2c3.3-2.9,10.4-3.7,18.5-1.9c8.6,1.8,21.1,21.3,29.4,34.1c7.5,11.7,9.5,14.4,11.3,13.8
	c0.6-0.2,1-0.8,1.5-2.1c1.1-3,2.7-9.8,4.8-18.3c3.1-13.2,7-29.5,11.1-40.4c3.5-9.1,5.9-10.8,7-10.9c3.1-0.4,6.2-1.1,9.1-2.1
	c1.9-0.8,3.9-1,5.9-0.8c0.7,0.1,1.3-0.1,1.9-0.5c0.5-0.3,1.4-0.8,8.9,0.9c4,0.9,8,1.3,12.1,1.2c0.9-0.1,1.9,0,2.8,0.1
	c3.9,1.4,7.6,3.1,11.2,5.1c3.7,2,7.7,4.6,14.7,10.4c7.7,6.2,14.9,12.9,21.6,20.2c5.5,6,11.2,12.2,16.7,21.5
	c2.2,3.6,4.1,7.4,5.7,11.2c2.1,5,3.7,10.1,4.8,15.4c1.4,6,2.2,12.1,2.6,18.2c0.5,7.9,0.3,15.8-0.6,23.7c-0.9,8.2-2,18.4-6.8,30.8
	c-2.7,6.9-6.1,13.5-10.2,19.7c-3.5,5.2-7.4,10.1-11.7,14.7c-5.4,5.7-11.3,10.9-17.7,15.5c-4.4,3.3-9,6.3-13.7,9.1
	c-5.4,3.1-10.9,5.8-16.6,8.1c-4.2,1.7-8.5,3.2-12.8,4.5c-4.6,1.3-9.4,2.4-14.1,3.1c-5.3,0.8-10.6,1.3-16,1.4c0-1.8,0.5-6.7,0.9-11.5
	c2.7-28.1,3.3-42.5-1.2-43.6c-2.6-0.6-6.8,2.7-18,31.9c-1.7,4.5-3.6,9.6-5.6,15.2l-0.1,0.1c-1.8,4.7-9.3,5.1-20.2,1.3
	c-4.9-1.8-9.7-3.9-14.3-6.4c-0.3-1.2-0.2-6.3-0.1-11.2c0.3-17.5,0.2-33.5-4.3-36.9c-1-0.7-2.2-1-3.4-0.8c-4.8,0.8-10.4,9-15.4,16.2
	c-2.5,3.6-5.9,8.5-7.1,8.9c-4-4.3-7.7-8.7-11.1-13.5c-2.8-3.8-5.4-7.8-7.7-12c-2.6-4.7-4.8-9.6-6.7-14.7c0.9-1.1,5.9-4.2,10.4-7
	c9.8-6,21.9-13.5,23.9-18.6c0.3-0.7,0.4-1.5,0.2-2.2c-1.4-6.7-15.3-7.7-27.4-8.6c-4.1-0.3-7.9-0.6-10.6-1.1
	c-3.6-0.6-3.8-1.3-3.8-1.3c-0.4-7.5-0.1-15,0.8-22.5C60.5,155.6,60.5,155.4,60.6,155.2L60.6,155.2 M59.6,154.9
	c-0.1,0.2-0.2,0.5-0.2,0.8c-1,7.5-1.3,15.1-0.9,22.6c0.2,5.3,39.6,1,41.8,11.2c0.1,0.6,0,1.1-0.2,1.6c-3,7.8-33.3,22.7-34.4,25.7
	c0,0.1,0,0.2,0,0.3c1.9,5.2,4.3,10.3,7,15.2c2.3,4.2,4.9,8.2,7.7,12.1c3.4,4.8,7.2,9.3,11.2,13.6c3.3,3.5,18.1-30.1,25.9-24.2
	c6.7,5.1,2.6,47.2,4.4,48.1c4.7,2.5,9.7,4.7,14.7,6.5c10.3,3.6,19.2,4,21.5-1.9l0.1-0.1c2-5.6,3.9-10.7,5.6-15.2
	c31.6-82.3,14.5,23.9,16.5,23.9c5.7-0.1,11.3-0.5,17-1.3c4.8-0.7,9.6-1.8,14.2-3.1c4.4-1.3,8.7-2.8,12.9-4.5
	c5.8-2.3,11.4-5.1,16.7-8.2c4.8-2.8,9.4-5.8,13.8-9.1c6.4-4.6,12.4-9.9,17.8-15.7c4.3-4.6,8.2-9.5,11.8-14.8c4.1-6.3,7.6-13,10.3-20
	l0,0c4.8-12.5,5.9-22.7,6.8-31.1c0.9-7.9,1.1-15.9,0.6-23.9c-0.4-6.2-1.2-12.3-2.6-18.3c-1.2-5.3-2.8-10.5-4.9-15.6
	c-1.7-3.9-3.6-7.7-5.8-11.4c-5.5-9.2-11-15.3-16.8-21.7c-6.7-7.3-13.9-14.1-21.7-20.3c-7-5.8-11-8.4-14.9-10.5
	c-3.7-2-7.5-3.7-11.4-5.1c-1.5-0.6-7.2,0.5-15.1-1.4c-11.1-2.6-8.5-0.4-10.9-0.5c-6-0.3-5.1,1.5-15.3,3c-2.6,0.4-5.3,4.9-7.8,11.5
	c-6.9,18-13,51.3-15.9,58.7c-0.3,0.9-0.6,1.4-0.9,1.5c-3.4,1.2-25.9-44.9-40.2-47.9c-7.6-1.6-15.5-1.2-19.4,2.2
	c-4.4,3.8-10.5,5.7-18,16c0,0,34.4,30,29,44.2l0,0.1C107.3,153.8,63.3,145.5,59.6,154.9L59.6,154.9z"/>
<path class="st0" d="M66.6,156.2c1.7-4.3,16.4-4,27.2-3.8c12.2,0.2,19.2,0.2,20.3-2.7l0-0.1c5-13-22.3-38.2-27.1-42.6
	c3.3-4.5,7.5-8.4,12.3-11.3c1.5-0.9,2.8-1.9,4.2-3c3.2-2.8,9.9-3.5,17.6-1.8c8.2,1.8,20.1,20.2,27.9,32.4c7.2,11.2,9,13.7,10.8,13.1
	c0.6-0.2,0.9-0.7,1.4-2c1.1-2.8,2.6-9.3,4.5-17.4c2.9-12.5,6.6-28.1,10.6-38.4c3.3-8.7,5.6-10.2,6.7-10.4c3-0.4,5.9-1.1,8.7-2
	c1.8-0.7,3.7-1,5.7-0.8c0.6,0.1,1.3-0.1,1.8-0.4c0.5-0.3,1.3-0.8,8.4,0.9c3.8,0.9,7.7,1.2,11.5,1.1c0.9,0,1.8,0,2.6,0.1
	c3.7,1.4,7.2,3,10.7,4.8c3.5,1.9,7.3,4.3,14,9.9c7.3,5.9,14.1,12.3,20.5,19.2c5.2,5.7,10.6,11.6,15.9,20.5c2.1,3.4,3.9,7,5.4,10.7
	c2,4.7,3.5,9.6,4.6,14.6c1.3,5.7,2.1,11.5,2.5,17.3c0.5,7.5,0.3,15.1-0.6,22.5c-0.9,7.8-1.9,17.5-6.4,29.3
	c-2.5,6.6-5.8,12.9-9.7,18.8c-3.3,5-7,9.6-11.1,14c-5.1,5.4-10.7,10.4-16.8,14.7c-4.2,3.1-8.5,6-13,8.6c-5.1,2.9-10.4,5.5-15.8,7.7
	c-4,1.6-8,3.1-12.2,4.3c-4.4,1.3-8.9,2.2-13.4,2.9c-5,0.7-10.1,1.2-15.1,1.3c0-1.7,0.5-6.4,0.9-10.9c2.6-26.7,3.1-40.5-1.2-41.5
	c-2.5-0.6-6.5,2.5-17.2,30.3c-1.7,4.3-3.5,9.2-5.3,14.4l-0.1,0.2c-1.7,4.4-8.9,4.8-19.2,1.2c-4.7-1.6-9.2-3.6-13.6-6
	c-0.3-1.2-0.2-6-0.1-10.7c0.3-16.7,0.1-31.9-4.2-35.2c-0.9-0.7-2.1-1-3.2-0.8c-4.6,0.8-10,8.5-14.7,15.4c-2.4,3.4-5.5,8-6.7,8.4
	c-3.8-4-7.3-8.3-10.5-12.8c-2.7-3.6-5.1-7.4-7.3-11.4c-2.5-4.5-4.6-9.2-6.4-13.9c0.9-1.1,5.7-4,9.9-6.6c9.3-5.7,20.9-12.8,22.7-17.7
	c0.3-0.7,0.4-1.4,0.2-2.1c-1.4-6.4-14.5-7.4-26.1-8.2c-3.7-0.3-7.2-0.5-9.7-1c-3.6-0.6-3.9-1.3-3.9-1.3c-0.4-7.1-0.1-14.2,0.9-21.3
	C66.5,156.6,66.5,156.4,66.6,156.2L66.6,156.2 M65.7,155.9c-0.1,0.2-0.2,0.5-0.2,0.7c-0.9,7.1-1.2,14.3-0.8,21.5
	c0.2,5,37.6,0.9,39.7,10.6c0.1,0.5,0,1.1-0.2,1.5c-2.8,7.4-31.6,21.6-32.7,24.4c0,0.1,0,0.2,0,0.2c3.4,9.3,8,18,13.9,25.9
	c3.3,4.5,6.8,8.9,10.7,13c3.1,3.3,17.3-28.6,24.6-23c6.4,4.9,2.5,44.9,4.1,45.8c4.5,2.4,9.2,4.4,14,6.1c9.8,3.5,18.3,3.8,20.4-1.8
	l0.1-0.1c1.9-5.4,3.8-10.2,5.4-14.4c30.1-78.3,13.8,22.8,15.7,22.7c5.4-0.1,10.8-0.5,16.1-1.3c4.6-0.7,9.1-1.7,13.6-3
	c4.2-1.2,8.3-2.6,12.3-4.3c5.5-2.2,10.8-4.8,15.9-7.8c4.5-2.6,8.9-5.5,13.1-8.7c6.1-4.4,11.8-9.4,16.9-14.8
	c4.1-4.4,7.8-9.1,11.2-14.1c3.9-6,7.2-12.3,9.8-19l0,0c4.6-11.9,5.6-21.6,6.5-29.5c0.8-7.5,1-15.1,0.6-22.7
	c-0.4-5.9-1.2-11.7-2.5-17.5c-1.1-5.1-2.7-10-4.7-14.8c-1.6-3.7-3.4-7.3-5.5-10.8c-5.2-8.8-10.5-14.6-16-20.6
	c-6.4-6.9-13.3-13.4-20.6-19.3c-6.7-5.5-10.5-8-14.2-10c-3.5-1.9-7.1-3.5-10.8-4.9c-1.5-0.6-6.8,0.5-14.3-1.3
	c-10.6-2.5-8.1-0.3-10.4-0.5c-5.7-0.3-4.8,1.4-14.5,2.9c-2.5,0.4-5,4.7-7.4,11c-6.6,17.1-12.4,48.7-15.1,55.8
	c-0.3,0.8-0.6,1.3-0.8,1.4c-3.2,1.1-24.6-42.7-38.2-45.6c-7.2-1.6-14.7-1.2-18.4,2c-4.1,3.6-10,5.4-17.1,15.2c0,0,32.8,28.6,27.6,42
	l0,0.1C111.1,154.9,69.2,147,65.7,155.9L65.7,155.9z"/>
<path class="st0" d="M74.6,157.5c1.5-4,15.2-3.7,25.2-3.5c11.4,0.2,17.9,0.2,19-2.6l0-0.1c4.6-12.1-20.6-35.5-25.3-39.6
	c3.1-4.2,7-7.8,11.4-10.5c1.4-0.8,2.7-1.8,3.9-2.8c2.9-2.6,9.2-3.2,16.3-1.7c7.6,1.6,18.6,18.8,26,30.2c6.8,10.6,8.4,12.8,10.1,12.2
	c0.6-0.2,0.9-0.7,1.4-1.9c1-2.7,2.4-8.6,4.2-16.2c2.7-11.6,6.2-26.1,9.9-35.8c3.1-8,5.2-9.5,6.1-9.6c2.8-0.4,5.5-1,8.1-1.9
	c1.7-0.7,3.4-0.9,5.2-0.7c0.6,0.1,1.2-0.1,1.7-0.4c0.4-0.2,1.2-0.7,7.8,0.9c3.5,0.8,7.1,1.2,10.8,1.1c0.8,0,1.6,0,2.4,0.1
	c3.4,1.3,6.7,2.8,9.9,4.5c3.3,1.8,6.8,4,13,9.2c6.8,5.5,13.2,11.4,19.1,17.8c4.9,5.3,9.9,10.8,14.8,19c1.9,3.2,3.6,6.5,5,9.9
	c1.8,4.4,3.3,9,4.3,13.6c1.2,5.3,2,10.7,2.3,16.1c0.4,7,0.2,14-0.6,21c-0.8,7.3-1.8,16.3-6,27.3c-2.4,6.1-5.4,12-9,17.5
	c-3.1,4.6-6.5,8.9-10.3,13c-4.8,5-10,9.6-15.6,13.7c-3.9,2.9-7.9,5.6-12.1,8c-4.7,2.7-9.6,5.1-14.7,7.2c-3.7,1.5-7.5,2.9-11.3,4
	c-4.1,1.2-8.3,2.1-12.5,2.7c-4.6,0.7-9.3,1.1-14,1.2c0-1.7,0.4-5.9,0.8-10.1c2.4-24.9,2.9-37.8-1.1-38.7c-2.4-0.6-6.1,2.4-16.1,28.3
	c-1.5,4-3.2,8.5-5,13.4l0,0.1c-1.6,4-8.2,4.5-17.8,1.1c-4.3-1.5-8.5-3.4-12.6-5.5c-0.2-3.3-0.2-6.6-0.1-9.9
	c0.2-15.6,0.2-29.7-3.9-32.8c-0.9-0.7-2-1-3.1-0.8c-4.3,0.7-9.3,8-13.7,14.4c-2.1,3.1-5,7.3-6.1,7.8c-3.5-3.7-6.7-7.7-9.7-11.8
	c-2.5-3.4-4.7-6.9-6.8-10.6c-2.3-4.2-4.2-8.5-5.9-13c0.9-1,5.3-3.7,9.2-6.1c8.7-5.3,19.4-11.9,21.2-16.5c0.3-0.6,0.4-1.4,0.2-2.1
	c-1.3-6-13.5-6.9-24.4-7.7c-4.8-0.4-12.1-0.9-12.6-2c-0.4-6.6-0.1-13.3,0.8-19.8c0-0.2,0.1-0.3,0.2-0.4l0,0 M73.8,157.1
	c-0.1,0.2-0.1,0.4-0.2,0.7c-0.9,6.6-1.1,13.3-0.8,20c0.2,4.7,35,0.9,37,9.9c0.1,0.5,0,1-0.2,1.4c-2.7,6.9-29.5,20.1-30.5,22.7
	c0,0.1,0,0.2,0,0.2c3.1,8.6,7.4,16.8,12.9,24.1c3.1,4.2,6.4,8.3,9.9,12.1c2.9,3.1,16.1-26.6,22.9-21.4c6,4.5,2.3,41.8,3.9,42.6
	c4.2,2.2,8.5,4.1,13,5.7c9.1,3.2,17,3.5,19-1.7l0.1-0.1c1.8-5,3.4-9.5,5-13.4c28-72.9,12.9,21.2,14.6,21.2c5-0.1,10-0.5,15-1.2
	c4.3-0.7,8.5-1.6,12.6-2.8c3.9-1.1,7.7-2.4,11.4-4c5.1-2.1,10.1-4.5,14.8-7.2c4.2-2.4,8.3-5.1,12.2-8.1c5.7-4.1,10.9-8.7,15.8-13.8
	c3.8-4.1,7.3-8.5,10.4-13.1c3.6-5.5,6.7-11.4,9.1-17.6l0,0c4.3-11.1,5.2-20.1,6-27.5c0.8-7,1-14.1,0.6-21.2
	c-0.3-5.5-1.1-10.9-2.3-16.2c-1.8-8.4-5-16.5-9.5-23.9c-4.8-8.2-9.8-13.6-14.9-19.2c-5.9-6.5-12.3-12.4-19.2-17.9
	c-6.2-5.1-9.7-7.4-13.2-9.3c-3.2-1.7-6.6-3.2-10-4.5C217.9,73,213,74,206,72.4c-9.8-2.3-7.6-0.3-9.7-0.5c-5.3-0.3-4.5,1.4-13.5,2.7
	c-2.3,0.3-4.7,4.4-6.9,10.2c-6.1,15.9-11.5,45.4-14.1,52c-0.3,0.8-0.6,1.2-0.8,1.3c-3,1-23-39.7-35.6-42.4
	c-6.7-1.4-13.7-1.1-17.1,1.9c-3.9,3.4-9.3,5-16,14.2c0,0,30.5,26.6,25.7,39.1l0,0.1C115.9,156.1,76.9,148.8,73.8,157.1L73.8,157.1z"
	/>
<path class="st0" d="M81.9,158.7L81.9,158.7c1.4-3.7,14.2-3.4,23.5-3.2c10.6,0.2,16.8,0.2,17.8-2.5l0-0.1c4.3-11.3-19.1-33-23.5-37
	c2.9-3.9,6.4-7.2,10.6-9.7c1.3-0.8,2.5-1.7,3.6-2.6c2.7-2.4,8.5-3,15.1-1.6c7,1.5,17.3,17.5,24.2,28.1c6.4,9.9,7.9,12,9.5,11.4
	c0.6-0.2,1-0.9,1.3-1.8c1-2.5,2.3-8.1,3.9-15.1c2.6-10.9,5.7-24.4,9.2-33.3c2.9-7.5,4.8-8.8,5.7-8.9c2.6-0.3,5.1-0.9,7.5-1.8
	c1.5-0.6,3.2-0.9,4.8-0.7c0.6,0,1.2-0.1,1.6-0.4c0.4-0.2,1.1-0.7,7.2,0.8c3.3,0.8,6.7,1.1,10,1c0.7,0,1.5,0,2.2,0.1
	c3.2,1.2,6.3,2.6,9.2,4.2c4.3,2.4,8.4,5.3,12.1,8.6c6.3,5.1,12.3,10.7,17.8,16.6c4.5,5,9.2,10.1,13.8,17.7c1.8,3,3.3,6.1,4.7,9.3
	c1.7,4.1,3.1,8.3,4,12.7c1.1,4.9,1.8,9.9,2.2,15c0.4,6.5,0.2,13.1-0.5,19.5c-0.7,6.8-1.6,15.2-5.6,25.4c-2.2,5.7-5,11.2-8.4,16.3
	c-2.9,4.3-6.1,8.3-9.6,12.1c-4.4,4.7-9.3,9-14.5,12.8c-3.6,2.7-7.4,5.2-11.3,7.5c-4.4,2.5-9,4.8-13.7,6.7c-3.4,1.4-7,2.7-10.6,3.7
	c-3.8,1.1-7.7,1.9-11.7,2.5c-4.3,0.6-8.6,1-13,1.1c0-1.6,0.4-5.5,0.8-9.3c2.2-23.3,2.7-35.2-1.1-36.1c-2.4-0.6-5.8,2.3-15.1,26.3
	c-1.4,3.7-3,8-4.6,12.5l0,0.1c-1.4,3.7-7.6,4.1-16.5,1c-4-1.4-7.9-3.1-11.7-5.1c-0.2-3.1-0.2-6.1-0.1-9.2
	c0.2-15.1,0.2-27.8-3.7-30.6c-0.8-0.7-1.9-0.9-2.9-0.7c-4.1,0.7-8.7,7.5-12.8,13.4c-1.9,2.8-4.6,6.7-5.7,7.2c-3.2-3.5-6.3-7.1-9-11
	c-2.3-3.2-4.4-6.4-6.3-9.9c-2.1-3.9-3.9-7.9-5.5-12c0.9-1,4.9-3.5,8.5-5.6c8.1-5,18.1-11.1,19.8-15.4c0.3-0.6,0.3-1.3,0.2-1.9
	c-1.2-5.6-12.7-6.5-22.8-7.2c-4.7-0.4-11-0.8-11.7-1.9c-0.3-6.2-0.1-12.3,0.7-18.5C81.8,159,81.9,158.8,81.9,158.7 M81,158.4
	c-0.1,0.2-0.1,0.4-0.2,0.6c-0.8,6.2-1.1,12.4-0.7,18.6c0.2,4.3,32.7,0.8,34.5,9.2c0.1,0.5,0,0.9-0.2,1.3C112,194.7,87,207,86,209.4
	c0,0.1,0,0.1,0,0.2c1.6,4.3,3.5,8.5,5.7,12.5c1.9,3.5,4,6.8,6.4,10c2.8,3.9,5.9,7.7,9.3,11.3c2.7,2.9,15-24.8,21.4-20
	c5.6,4.2,2.2,38.9,3.6,39.7c3.9,2.1,8,3.9,12.1,5.3c8.5,3,15.9,3.3,17.7-1.6l0-0.1c1.7-4.7,3.2-8.8,4.6-12.5
	c26.1-67.9,12,19.7,13.6,19.7c4.7,0,9.4-0.4,14-1.1c4-0.6,7.9-1.5,11.8-2.6c3.6-1,7.2-2.3,10.7-3.7c4.8-1.9,9.4-4.2,13.8-6.7
	c3.9-2.3,7.7-4.8,11.4-7.5c5.3-3.8,10.2-8.1,14.7-12.9c3.6-3.8,6.8-7.9,9.7-12.2c3.4-5.2,6.2-10.7,8.5-16.5l0,0
	c4-10.3,4.9-18.7,5.6-25.6c0.7-6.5,0.9-13.1,0.5-19.7c-0.3-5.1-1-10.2-2.2-15.2c-1-4.4-2.3-8.7-4-12.8c-1.4-3.2-3-6.3-4.8-9.3
	c-4.5-7.6-9.1-12.7-13.9-17.9c-5.5-6-11.5-11.6-17.9-16.7c-3.8-3.3-7.9-6.2-12.3-8.7c-3-1.6-6.2-3-9.4-4.2
	c-1.3-0.5-5.9,0.4-12.4-1.1c-9.2-2.2-7-0.3-9-0.4c-5-0.3-4.2,1.3-12.6,2.5c-2.2,0.3-4.4,4.1-6.5,9.5c-5.7,14.8-10.8,42.3-13.1,48.5
	c-0.3,0.7-0.5,1.2-0.7,1.2c-2.8,1-21.4-37-33.2-39.5c-6.3-1.3-12.8-1-16,1.8c-3.6,3.1-8.7,4.7-14.9,13.2c0,0,28.4,24.8,23.9,36.5
	l0,0.1C120.3,157.6,84,150.7,81,158.4L81,158.4z"/>
<path class="st0" d="M89,160c1.3-3.4,13.1-3.2,21.8-3c10.2,0.2,15.6,0.2,16.6-2.4l0-0.1c4-10.5-17.5-30.7-21.8-34.5
	c2.7-3.6,6-6.7,9.8-9c1.2-0.7,2.3-1.6,3.4-2.5c2.5-2.2,7.9-2.8,14-1.5c6.5,1.4,16.1,16.3,22.4,26.2c5.9,9.3,7.4,11.2,8.9,10.7
	c0.6-0.2,0.9-0.8,1.3-1.7c0.9-2.3,2.1-7.5,3.7-14.1c2.4-10.1,5.4-22.7,8.6-31.1c2.8-7.2,4.6-8.2,5.2-8.3c2.4-0.3,4.8-0.9,7.1-1.7
	c1.4-0.6,2.9-0.8,4.5-0.6c0.5,0.1,1.1-0.1,1.6-0.4c0.3-0.2,1-0.6,6.7,0.7c3.1,0.7,6.2,1,9.4,0.9c0.7,0,1.4,0,2,0.1
	c3,1.1,5.8,2.4,8.6,3.9c4,2.3,7.8,4.9,11.3,8c5.9,4.7,11.4,9.9,16.5,15.5c4.2,4.6,8.6,9.4,12.8,16.5c1.6,2.8,3.1,5.6,4.4,8.6
	c1.6,3.8,2.8,7.8,3.7,11.8c1,4.6,1.7,9.3,2,14c0.3,6.1,0.2,12.1-0.5,18.2c-0.7,6.3-1.6,14.2-5.2,23.7c-2.1,5.3-4.7,10.4-7.8,15.2
	c-2.7,4-5.7,7.8-8.9,11.3c-4.1,4.4-8.7,8.4-13.5,11.9c-3.4,2.5-6.9,4.8-10.5,7c-4.1,2.4-8.4,4.5-12.7,6.2c-3.2,1.3-6.5,2.5-9.8,3.5
	c-3.6,1-7.2,1.8-10.8,2.4c-4,0.6-8,0.9-12,1c0-1.5,0.4-5.1,0.7-8.6c2.2-22.2,2.6-33-1-33.8c-2.2-0.5-5.5,2.1-14.1,24.7
	c-1.3,3.5-2.8,7.5-4.3,11.7l0,0.1c-1.3,3.5-7,3.8-15.2,0.9c-3.7-1.3-7.4-2.9-10.8-4.7c-0.2-2.8-0.2-5.7-0.1-8.5
	c0.2-14.1,0.1-25.9-3.4-28.6c-0.8-0.6-1.8-0.9-2.8-0.7c-3.8,0.6-8.2,7-12,12.5c-1.8,2.6-4.2,6.1-5.2,6.7c-3-3.2-5.8-6.6-8.3-10.2
	c-2.1-2.9-4.1-6-5.9-9.2c-2-3.6-3.6-7.3-5.1-11.2c0.9-0.9,4.6-3.2,7.9-5.2c7.5-4.6,16.9-10.4,18.4-14.5c0.2-0.6,0.3-1.2,0.2-1.8
	c-1.2-5.3-11.8-6.1-21.2-6.8c-4.3-0.3-10.1-0.7-10.8-1.7c-0.3-5.7-0.1-11.5,0.7-17.2C88.9,160.2,88.9,160.1,89,160L89,160 M88,159.6
	c-0.1,0.2-0.1,0.4-0.2,0.6c-0.8,5.8-1,11.6-0.7,17.4c0.1,4.1,30.4,0.7,32.1,8.6c0.1,0.4,0,0.9-0.1,1.3c-2.3,6-25.6,17.5-26.5,19.8
	c0,0.1,0,0.1,0,0.2c2.7,7.5,6.5,14.6,11.2,21c2.6,3.7,5.5,7.2,8.6,10.5c2.5,2.7,14-23.2,19.9-18.7c5.2,3.9,1.9,36.3,3.3,37
	c3.6,2,7.4,3.6,11.3,5c7.9,2.8,14.8,3,16.5-1.5l0-0.1c1.6-4.3,3-8.2,4.3-11.7c24.4-63.5,11.1,18.4,12.6,18.4c4.4,0,8.7-0.4,13-1.1
	c3.7-0.6,7.4-1.4,10.9-2.4c3.4-1,6.7-2.1,9.9-3.5c4.4-1.8,8.7-3.9,12.9-6.3c3.7-2.1,7.2-4.5,10.6-7c4.9-3.6,9.5-7.6,13.7-12
	c3.3-3.6,6.3-7.4,9-11.4c3.2-4.8,5.8-10,7.9-15.4l0,0c3.7-9.6,4.6-17.5,5.3-23.9c0.7-6.1,0.9-12.3,0.5-18.4c-0.3-4.8-1-9.5-2-14.1
	c-1.6-7.3-4.3-14.3-8.2-20.7c-4.2-7.1-8.4-11.8-12.9-16.7c-5.1-5.6-10.7-10.8-16.6-15.6c-3.5-3.1-7.3-5.8-11.4-8.1
	c-2.8-1.5-5.7-2.8-8.7-3.9c-1.2-0.5-5.5,0.4-11.6-1c-8.5-2-6.6-0.3-8.4-0.4c-4.6-0.3-3.9,1.2-11.7,2.3c-2,0.3-4.1,3.8-6,8.9
	c-5.3,13.8-10.1,39.5-12.3,45.2c-0.3,0.7-0.5,1.1-0.7,1.1c-2.6,0.9-19.9-34.5-30.8-36.9c-5.8-1.2-11.9-0.9-14.9,1.7
	c-3.3,2.9-8.1,4.4-13.9,12.4c0,0,26.4,23.1,22.2,34l0,0.1C124.6,158.7,90.8,152.4,88,159.6L88,159.6z"/>
<path class="st0" d="M94.9,161.2c1.2-3.2,12.3-3,20.4-2.9c9.6,0.1,14.7,0.1,15.6-2.3l0-0.1c3.8-10-16.2-28.9-20.3-32.6
	c2.5-3.4,5.6-6.3,9.2-8.5c1.1-0.7,2.2-1.5,3.2-2.3c2.4-2.1,7.4-2.6,13.1-1.4c6.1,1.3,15,15.3,20.8,24.6c5.7,8.9,6.9,10.6,8.4,10.1
	c0.6-0.4,1.1-1,1.2-1.7c0.8-2.2,2-7.1,3.5-13.4c2.3-9.6,5.1-21.5,8.2-29.4c2.6-6.8,4.3-7.7,4.9-7.8c2.3-0.3,4.5-0.8,6.6-1.6
	c1.3-0.6,2.7-0.8,4.2-0.6c0.5,0.1,1.1-0.1,1.5-0.4c0.3-0.2,0.9-0.6,6.2,0.7c2.9,0.6,5.8,0.9,8.8,0.8c0.6,0,1.3,0,1.9,0.1
	c2.8,1,5.4,2.2,8,3.6c3.8,2.1,7.3,4.6,10.5,7.5c5.5,4.5,10.6,9.3,15.4,14.6c4.5,4.7,8.5,9.9,11.9,15.5c1.5,2.6,2.9,5.3,4,8.1
	c1.5,3.6,2.6,7.3,3.4,11.1c0.9,4.3,1.5,8.8,1.8,13.2c0.3,5.7,0.1,11.5-0.5,17.2c-0.7,6-1.5,13.4-5,22.4c-1.9,5-4.4,9.8-7.3,14.3
	c-2.5,3.8-5.3,7.4-8.4,10.7c-3.9,4.2-8.1,7.9-12.7,11.3c-3.2,2.4-6.5,4.6-9.9,6.6c-3.8,2.3-7.8,4.2-11.9,6c-3,1.3-6.1,2.4-9.2,3.3
	c-3.3,1-6.7,1.7-10.2,2.3c-3.7,0.6-7.4,1-11.2,1.1c0.1-1.5,0.4-4.8,0.7-8.1c2.1-21,2.5-31.2-0.9-32c-2.1-0.5-5.2,2-13.4,23.4
	c-1.3,3.3-2.7,7-4.1,11.1l0,0.1c-1.2,3.2-6.6,3.6-14.3,0.9c-3.5-1.2-6.8-2.7-10.1-4.4c-0.2-1-0.1-4.6,0-8
	c0.3-13.3,0.2-24.6-3.1-27.1c-0.7-0.6-1.7-0.8-2.6-0.7c-3.6,0.6-7.7,6.7-11.4,12c-1.7,2.4-3.9,5.7-4.8,6.3c-2.8-3-5.3-6.2-7.7-9.6
	c-2-2.8-3.8-5.7-5.5-8.7c-1.8-3.4-3.4-6.9-4.7-10.5c2.3-1.8,4.8-3.5,7.4-4.9c7.1-4.4,15.9-10,17.4-13.8c0.2-0.6,0.3-1.2,0.2-1.8
	c-1.1-5-11.1-5.8-19.9-6.4c-4-0.3-9.4-0.7-10.1-1.5c-0.3-5.4,0-10.8,0.7-16.2C94.9,161.3,94.9,161.2,94.9,161.2L94.9,161.2
	 M94,160.8c-0.1,0.2-0.1,0.4-0.1,0.6c-0.7,5.5-1,11-0.7,16.5c0.1,3.8,28.5,0.5,30,8c0.1,0.4,0,0.8-0.1,1.2
	c-2.2,5.7-24,16.7-24.9,18.8c0,0-0.1,0.1-0.1,0.2c1.4,3.8,3,7.5,4.9,11c1.7,3,3.5,6,5.5,8.8c2.5,3.5,5.1,6.8,8,9.9
	c2.3,2.5,13.2-22,18.7-17.7c4.8,3.7,1.7,34.3,2.9,35c3.4,1.8,6.9,3.4,10.6,4.7c7.4,2.6,13.8,2.8,15.5-1.5l0-0.1
	c1.5-4.1,2.8-7.8,4.1-11.1c23.1-60.1,10.4,17.4,11.8,17.4c4.1-0.1,8.2-0.4,12.2-1.1c3.5-0.6,6.9-1.3,10.3-2.3
	c3.2-0.9,6.3-2.1,9.3-3.3c4.2-1.7,8.2-3.8,12.1-6.1c3.4-2,6.8-4.3,10-6.7c4.6-3.4,8.9-7.2,12.9-11.4c3.1-3.4,6-7,8.5-10.8
	c3-4.6,5.5-9.5,7.5-14.6l0,0c3.5-9.1,4.3-16.5,5-22.6c0.7-5.8,0.9-11.6,0.5-17.4c-0.3-4.5-0.9-9-1.8-13.4c-0.8-3.9-2-7.7-3.5-11.3
	c-1.2-2.8-2.6-5.6-4.1-8.3c-3.4-5.7-7.4-10.9-12-15.7c-4.8-5.3-10-10.2-15.5-14.7c-3.3-2.9-6.8-5.4-10.6-7.6
	c-2.6-1.4-5.4-2.7-8.2-3.7c-1.1-0.4-5.2,0.4-10.8-0.9c-8-1.9-6.2-0.2-7.9-0.3c-4.3-0.2-3.7,1.1-11,2.2c-1.9,0.3-3.8,3.6-5.7,8.4
	c-5,13.1-9.6,37.4-11.7,42.8c-0.2,0.6-0.5,1-0.6,1.1c-2.5,0.9-18.5-32.6-28.7-34.7c-5.5-1.2-11.1-0.9-13.9,1.6
	c-3.1,2.8-7.6,4.2-13.1,11.7c0,0,24.7,21.7,20.7,32.1l0,0.1C128.2,159.8,96.6,153.9,94,160.8L94,160.8z"/>
<path class="st0" d="M99.1,161.6c1.1-2.9,11.6-2.7,19.3-2.6c9.2,0.2,14,0.2,14.9-2.2l0-0.1c3.6-9.4-15-26.8-19.4-30.8
	c2.4-3.2,5.3-5.8,8.6-7.9c1-0.7,2-1.4,3-2.2c2.2-1.9,7-2.4,12.4-1.2c5.8,1.2,14.3,14.5,19.9,23.2c5.4,8.4,6.6,10,8.1,9.5
	c0.6-0.2,0.9-0.7,1.2-1.6c0.8-2.1,1.9-6.7,3.3-12.6c2.1-9,4.8-20.2,7.6-27.6c2.4-6.3,4-7.2,4.6-7.3c2.1-0.3,4.3-0.8,6.3-1.5
	c1.2-0.5,2.6-0.7,3.9-0.6c0.5,0,1-0.1,1.5-0.4c0.3-0.2,0.8-0.5,5.9,0.7c2.7,0.6,5.6,0.9,8.4,0.8c0.6,0,1.2,0,1.8,0.1
	c2.6,1,5.2,2.1,7.7,3.4c3.6,2,7,4.4,10.1,7.1c5.2,4.2,10.2,8.8,14.7,13.8c4.3,4.5,8.2,9.4,11.4,14.7c1.5,2.5,2.8,5,3.9,7.7
	c1.4,3.4,2.5,6.9,3.3,10.5c0.9,4.1,1.5,8.2,1.8,12.4c0.3,5.4,0.2,10.8-0.4,16.2c-0.5,7.2-2.1,14.3-4.6,21c-1.8,4.7-4.1,9.2-6.9,13.4
	c-2.4,3.5-5,6.9-7.9,10c-3.7,3.9-7.7,7.4-12,10.6c-3,2.2-6.1,4.3-9.3,6.2c-3.6,2.1-7.4,4-11.3,5.6c-2.9,1.2-5.8,2.2-8.8,3.1
	c-3.2,0.9-6.4,1.6-9.6,2.1c-3.5,0.5-7,0.8-10.6,0.9c0-1.4,0.4-4.5,0.6-7.5c1.9-19.8,2.3-29.4-1.1-30.2c-2-0.5-5,1.9-12.7,22
	c-1.2,3.1-2.5,6.6-3.8,10.4l0,0.1c-1.2,3-6.2,3.3-13.5,0.7c-3.3-1.2-6.5-2.6-9.6-4.2c-0.2-1-0.1-4.3,0-7.5
	c0.2-12.5,0.1-23.1-3.1-25.6c-0.7-0.6-1.7-0.8-2.6-0.6c-3.4,0.6-7.3,6.2-10.7,11.2c-1.5,2.2-3.6,5.2-4.5,5.9c-2.6-2.8-5.1-5.9-7.4-9
	c-1.9-2.6-3.7-5.3-5.2-8.2c-1.7-3.2-3.2-6.5-4.5-9.8c2.2-1.7,4.5-3.2,7-4.6c6.7-4.2,15.1-9.2,16.5-12.9c0.2-0.5,0.3-1.1,0.2-1.7
	c-1-4.8-10.6-5.5-19.1-6.1c-3.7-0.3-8.8-0.7-9.6-1.4c-0.3-5.1-0.1-10.2,0.6-15.2C99,161.8,99.1,161.7,99.1,161.6L99.1,161.6
	 M98.2,161.2c-0.1,0.2-0.1,0.3-0.1,0.5c-0.7,5.1-0.9,10.3-0.6,15.5c0.1,3.6,27.1,0.7,28.6,7.7c0.1,0.4,0,0.8-0.1,1.1
	c-2.1,5.3-22.8,15.5-23.6,17.6c0,0-0.1,0.1-0.1,0.2c1.3,3.6,2.9,7,4.7,10.4c1.6,2.9,3.4,5.6,5.3,8.3c2.4,3.3,4.9,6.4,7.7,9.4
	c2.2,2.4,12.4-20.6,17.8-16.6c4.6,3.5,1.8,32.3,3,32.9c3.2,1.7,6.6,3.2,10.1,4.4c7.1,2.5,13.2,2.7,14.7-1.3l0,0
	c1.4-3.9,2.7-7.3,3.8-10.4c21.7-56.4,9.9,16.4,11.3,16.4c3.9,0,7.8-0.3,11.6-0.9c3.3-0.5,6.6-1.2,9.8-2.1c3-0.9,6-1.9,8.9-3.1
	c3.9-1.6,7.8-3.5,11.5-5.6c3.3-1.9,6.4-4,9.4-6.2c4.4-3.2,8.5-6.8,12.2-10.7c3-3.2,5.7-6.5,8.1-10.1c2.8-4.3,5.2-8.9,7-13.7l0,0
	c2.5-6.8,4.1-14,4.7-21.3c0.6-5.4,0.8-10.9,0.4-16.4c-0.3-4.2-0.9-8.4-1.8-12.6c-0.8-3.7-1.9-7.2-3.4-10.7c-1.1-2.7-2.5-5.3-4-7.8
	c-3.3-5.4-7.1-10.3-11.5-14.9c-4.6-5-9.5-9.6-14.8-13.8c-3.1-2.7-6.6-5.2-10.2-7.2c-2.5-1.3-5.1-2.5-7.8-3.5
	c-1.1-0.4-4.9,0.4-10.3-0.9c-7.6-1.8-5.9-0.3-7.5-0.3c-4.1-0.2-3.5,1-10.4,2.1c-1.8,0.3-3.6,3.4-5.4,7.9
	c-4.7,12.3-8.9,35.1-10.9,40.2c-0.2,0.6-0.4,0.9-0.6,1c-2.3,0.8-17.7-30.7-27.5-32.8c-5.2-1.1-10.6-0.9-13.3,1.5
	c-3,2.6-7.2,3.9-12.3,11c0,0,23.6,20.6,19.9,30.3l0,0.1C130.8,160.5,100.6,154.8,98.2,161.2L98.2,161.2z"/>
<path class="st0" d="M102.6,162.1L102.6,162.1c1.1-2.8,11.1-2.6,18.4-2.4c8.8,0.2,13.4,0.2,14.3-2.1l0-0.1
	c3.5-9-14.3-25.7-18.6-29.5c2.2-3,5-5.6,8.3-7.5c1-0.6,2-1.3,2.9-2.1c2.1-1.8,6.7-2.3,11.8-1.2c5.5,1.2,13.7,13.8,19.1,22.2
	c5.2,8.1,6.4,9.7,7.8,9.2c0.6-0.3,1-0.9,1.2-1.6c0.8-2,1.8-6.4,3.1-12.1c2-8.6,4.6-19.3,7.3-26.4c2.3-6,3.8-6.9,4.4-7
	c2.1-0.3,4.1-0.7,6-1.4c1.2-0.5,2.5-0.7,3.8-0.5c0.5,0,1-0.1,1.4-0.3c0.2-0.1,0.8-0.5,5.6,0.6c2.6,0.6,5.3,0.9,8,0.8
	c0.6,0,1.1,0,1.7,0.1c2.5,0.9,4.9,2,7.3,3.3c3.4,1.9,6.6,4.2,9.6,6.8c5,4,9.7,8.4,14.1,13.2c4.1,4.3,7.8,9,10.9,14.1
	c1.4,2.4,2.7,4.8,3.7,7.3c1.4,3.2,2.4,6.6,3.2,10.1c0.9,3.9,1.4,7.9,1.7,11.9c0.3,5.2,0.2,10.4-0.4,15.5c-0.5,6.9-2,13.7-4.4,20.1
	c-1.7,4.5-4,8.8-6.6,12.9c-2.3,3.4-4.8,6.6-7.6,9.6c-3.5,3.7-7.4,7.1-11.5,10.1c-2.9,2.1-5.9,4.1-8.9,5.9c-3.5,2-7.1,3.8-10.9,5.3
	c-2.7,1.1-5.5,2.1-8.4,2.9c-3,0.9-6.1,1.5-9.2,2c-3.3,0.5-6.7,0.8-10.1,0.9c0.1-1.4,0.3-4.3,0.6-7.2c1.8-19,2.2-28.2-1-29
	c-1.8-0.4-4.4,0.8-12.2,21.1c-1.1,3-2.4,6.3-3.7,10l0,0.1c-1.1,2.9-5.9,3.1-12.8,0.7c-3.2-1.1-6.2-2.4-9.2-4c-0.2-1-0.1-4.2-0.1-7.1
	c0.2-12,0.1-22.2-3-24.5c-0.7-0.5-1.6-0.8-2.5-0.6c-3.3,0.5-7,6-10.3,10.8c-1.5,2.1-3.4,5-4.3,5.6c-2.5-2.7-4.9-5.6-7-8.6
	c-3.9-5.3-7-11.1-9.3-17.2c2.1-1.6,4.3-3,6.6-4.4c8.2-5,14.6-9.1,15.8-12.4c0.2-0.5,0.3-1.1,0.2-1.6c-1-4.6-10.2-5.3-18.3-6
	c-3.5-0.3-8.3-0.6-9.1-1.4c-0.3-4.9-0.1-9.7,0.6-14.5C102.6,162.3,102.6,162.2,102.6,162.1 M101.8,161.7c-0.1,0.2-0.1,0.3-0.1,0.5
	c-0.6,4.9-0.8,9.8-0.6,14.8c0.1,3.5,26,0.6,27.4,7.3c0.1,0.3,0,0.7-0.1,1c-2,5.1-21.8,14.9-22.6,16.9c0,0.1,0,0.1,0,0.2
	c1.3,3.4,2.8,6.7,4.5,9.9c1.5,2.7,3.2,5.4,5.1,7.9c2.2,3.2,4.6,6.2,7.2,9c2.1,2.3,11.9-19.7,17-15.9c4.4,3.3,1.7,30.9,2.9,31.6
	c3.1,1.7,6.3,3.1,9.7,4.2c6.8,2.4,12.6,2.6,14.1-1.2l0-0.1c1.3-3.7,2.5-7,3.7-9.9c20.8-54,9.5,15.7,10.8,15.7
	c3.7,0,7.4-0.3,11.1-0.9c3.2-0.5,6.3-1.2,9.4-2c2.9-0.8,5.7-1.8,8.5-3c3.8-1.5,7.4-3.3,11-5.4c3.1-1.8,6.2-3.8,9-6
	c4.2-3,8.1-6.5,11.7-10.2c2.8-3,5.4-6.3,7.7-9.7c2.7-4.1,5-8.5,6.7-13.1l0,0c2.4-6.6,3.9-13.4,4.5-20.4c0.6-5.2,0.7-10.4,0.4-15.7
	c-0.3-4-0.8-8.1-1.7-12c-0.8-3.5-1.8-6.9-3.2-10.2c-1.1-2.6-2.4-5.1-3.8-7.5c-3.1-5.1-6.8-9.9-11-14.2c-4.4-4.8-9.1-9.2-14.2-13.3
	c-3-2.6-6.3-4.9-9.8-6.9c-2.4-1.3-4.9-2.4-7.5-3.4c-1-0.4-4.7,0.3-9.9-0.9c-7.3-1.7-5.6-0.2-7.2-0.3c-4-0.2-3.3,1-10,2
	c-1.7,0.2-3.5,3.2-5.1,7.6c-4.5,11.8-8.5,33.6-10.4,38.5c-0.2,0.6-0.4,0.9-0.6,1c-2.2,0.8-17-29.4-26.3-31.4c-5-1-10.1-0.8-12.7,1.4
	c-2.9,2.5-6.9,3.7-11.8,10.5c0,0,22.6,19.7,19,29l0,0.1C133,161.1,104,155.6,101.8,161.7L101.8,161.7z"/>
<path class="st0" d="M106.6,162.8c1-2.6,10.9-2.4,17.5-2.3c8.4,0.2,12.8,0.1,13.6-2l0-0.1c3.3-8.6-13.5-24.3-17.7-28.1
	c2.1-2.8,4.8-5.2,7.8-7.1c1-0.6,1.9-1.3,2.8-2c2-1.7,6.4-2.2,11.2-1.1c5.2,1.1,13,13.1,18.1,21.1c5,7.7,6.1,9.2,7.5,8.7
	c0.6-0.3,1-0.9,1.2-1.5c0.7-1.9,1.7-6.1,3-11.5c1.9-8.2,4.3-18.4,6.9-25.1c2.3-5.9,3.7-6.5,4.1-6.6c2-0.3,3.9-0.7,5.7-1.4
	c1.1-0.5,2.3-0.6,3.6-0.5c0.5,0,1-0.1,1.4-0.3c0.2-0.1,0.7-0.4,5.3,0.6c2.5,0.6,5.1,0.8,7.7,0.7c0.5,0,1.1,0,1.6,0.1
	c2.4,0.9,4.7,1.9,7,3.1c3.3,1.8,6.3,4,9.1,6.5c4.8,3.8,9.2,8,13.4,12.5c3.9,4.1,7.4,8.5,10.4,13.4c1.3,2.2,2.5,4.6,3.5,7
	c1.3,3.1,2.3,6.3,3,9.5c0.8,3.7,1.4,7.5,1.6,11.3c0.3,4.9,0.2,9.8-0.4,14.7c-0.5,6.5-1.9,13-4.1,19.1c-1.7,4.3-3.8,8.4-6.3,12.2
	c-2.2,3.2-4.6,6.3-7.2,9.1c-3.3,3.5-7,6.8-11,9.6c-2.7,2-5.6,3.9-8.5,5.6c-3.3,1.9-6.8,3.6-10.3,5c-2.6,1.1-5.3,2-8,2.8
	c-2.9,0.8-5.8,1.5-8.8,1.9c-3.1,0.5-6.3,0.7-9.5,0.8c0.1-1.3,0.3-4.1,0.6-6.8c1.7-18.1,2-26.8-1-27.6c-1.7-0.4-4.2,0.8-11.7,20.1
	c-1.1,2.8-2.3,6-3.5,9.5l0,0.1c-1,2.7-5.6,2.9-12.1,0.6c-3-1.1-5.9-2.3-8.7-3.8c-0.1-1-0.1-4,0-6.7c0.2-11.4,0.1-21.1-2.8-23.3
	c-0.7-0.5-1.5-0.7-2.4-0.6c-3.2,0.5-6.7,5.7-9.8,10.2c-1.4,2-3.2,4.6-4,5.3c-2.4-2.6-4.6-5.3-6.7-8.1c-1.7-2.4-3.3-4.9-4.8-7.4
	c-1.6-2.9-2.9-5.8-4.1-8.9c2-1.5,4.1-2.9,6.3-4.1c7.8-4.8,13.9-8.7,15-11.8c0.2-0.5,0.3-1.1,0.2-1.6c-1-4.4-9.7-5.1-17.4-5.6
	c-3.3-0.2-7.8-0.6-8.6-1.3c-0.2-4.6-0.1-9.2,0.5-13.8C106.5,163,106.6,162.9,106.6,162.8L106.6,162.8 M105.7,162.5
	c-0.1,0.2-0.1,0.3-0.1,0.5c-0.6,4.7-0.8,9.4-0.5,14.1c0.1,3.3,24.7,0.6,26.1,7c0.1,0.3,0,0.7-0.1,1c-1.9,4.9-20.7,14.1-21.5,16
	c0,0-0.1,0.1-0.1,0.1c2.2,6,5.3,11.7,9.1,16.9c2.1,3,4.5,5.8,7,8.5c2,2.2,11.3-18.8,16.1-15.1c4.2,3.2,1.6,29.4,2.7,30
	c2.9,1.6,6,2.9,9.2,4c6.4,2.3,12,2.5,13.4-1.2l0-0.1c1.3-3.5,2.4-6.7,3.5-9.4c19.7-51.3,9.1,14.9,10.3,14.9c3.5,0,7.1-0.3,10.6-0.8
	c3-0.5,6-1.1,8.9-1.9c2.7-0.8,5.4-1.7,8.1-2.8c3.6-1.5,7.1-3.2,10.4-5.1c3-1.7,5.9-3.6,8.6-5.7c4-2.9,7.7-6.1,11.1-9.7
	c2.7-2.9,5.1-6,7.3-9.3c2.6-3.9,4.7-8.1,6.4-12.4l0,0c2.3-6.2,3.7-12.7,4.2-19.4c0.5-4.9,0.7-9.9,0.4-14.9
	c-0.2-3.8-0.8-7.7-1.6-11.4c-0.7-3.3-1.7-6.6-3-9.7c-1-2.4-2.2-4.8-3.6-7.1c-3-4.9-6.5-9.4-10.5-13.5c-4.2-4.5-8.7-8.8-13.5-12.6
	c-2.9-2.5-6-4.7-9.3-6.6c-2.3-1.2-4.7-2.3-7.1-3.2c-0.9-0.4-4.5,0.3-9.4-0.8c-6.9-1.6-5.3-0.2-6.8-0.3c-3.7-0.2-3.2,0.9-9.5,1.9
	c-1.6,0.2-3.3,3.1-4.9,7.2c-4.3,11.2-8.1,31.9-9.9,36.6c-0.2,0.6-0.4,0.9-0.6,0.9c-2.1,0.7-16.1-28-25-29.9c-4.8-1-9.6-0.8-12.1,1.3
	c-2.7,2.4-6.6,3.5-11.2,10c0,0,21.5,18.7,18.1,27.5l0,0.1C135.4,161.8,107.9,156.6,105.7,162.5L105.7,162.5z"/>
<path class="st0" d="M111.2,163.5c0.9-2.4,10.2-2.2,16.4-2.1c7.9,0.1,12.1,0.1,12.9-1.9l0-0.1c3.1-8.1-12.6-22.8-16.6-26.4
	c2-2.6,4.4-4.9,7.3-6.6c0.9-0.6,1.8-1.2,2.6-1.9c1.8-1.6,5.9-2,10.5-1c4.9,1,12.2,12.3,17,19.8c4.5,6.9,5.7,8.7,7.1,8.2
	c0.5-0.2,0.8-0.7,1.1-1.5c0.7-1.8,1.6-5.7,2.8-10.8c1.8-7.7,4.1-17.3,6.5-23.6c2.1-5.5,3.4-6.1,3.8-6.1c1.8-0.2,3.7-0.7,5.4-1.3
	c1.1-0.4,2.2-0.6,3.3-0.5c0.5,0,0.9-0.1,1.3-0.3c0.2-0.1,0.7-0.4,4.9,0.6c2.4,0.5,4.8,0.8,7.2,0.7c0.5,0,1,0,1.5,0
	c2.2,0.8,4.4,1.8,6.5,2.9c3.1,1.7,5.9,3.7,8.6,6.1c4.5,3.6,8.7,7.5,12.6,11.8c3.7,3.8,7,8,9.7,12.5c2.9,4.8,5,10,6.1,15.5
	c0.8,3.5,1.3,7,1.5,10.6c0.3,4.6,0.2,9.2-0.4,13.8c-0.5,6.1-1.8,12.2-4,17.9c-1.6,4-3.5,7.9-5.9,11.5c-2,3-4.3,5.9-6.8,8.5
	c-3.1,3.3-6.6,6.4-10.3,9.1c-2.6,1.9-5.2,3.7-8,5.3c-3.1,1.8-6.3,3.4-9.7,4.7c-2.4,1-4.9,1.9-7.4,2.6c-2.7,0.8-5.4,1.4-8.2,1.8
	c-2.9,0.4-5.9,0.7-8.9,0.8c0-1.2,0.3-3.8,0.5-6.3c1.6-17.1,1.9-25.3-1-26c-1.7-0.4-4,0.7-11,18.9c-1,2.7-2.2,5.6-3.3,8.9l0,0.1
	c-1,2.5-5.2,2.7-11.3,0.5c-2.8-1-5.5-2.2-8.2-3.6c-0.1-0.9-0.1-3.8,0-6.3c0.2-10.8,0.1-19.9-2.7-22c-0.7-0.5-1.5-0.7-2.3-0.6
	c-3,0.5-6.3,5.4-9.3,9.7c-1.1,1.7-2.4,3.4-3.7,4.9c-2.2-2.4-4.3-4.9-6.2-7.6c-1.6-2.2-3.1-4.6-4.5-7c-1.5-2.7-2.7-5.5-3.8-8.3
	c1.9-1.4,3.8-2.7,5.9-3.8c7.3-4.5,13-8.2,14.2-11.1c0.2-0.5,0.3-1,0.1-1.5c-0.9-4.2-9.1-4.8-16.4-5.4c-3.1-0.2-7.3-0.6-8.1-1.2
	c-0.2-4.3-0.1-8.6,0.5-12.9c0-0.1,0-0.2,0.1-0.2l0,0 M110.4,163.2c-0.1,0.1-0.1,0.3-0.1,0.5c-0.6,4.4-0.8,8.8-0.5,13.2
	c0.1,3.1,23.2,0.6,24.5,6.6c0.1,0.3,0,0.7-0.1,1c-1.8,4.6-19.5,13.3-20.2,15c0,0,0,0.1,0,0.1c1.1,3.1,2.5,6,4,8.9
	c1.4,2.5,2.9,4.8,4.5,7.1c2,2.8,4.2,5.5,6.6,8c1.9,2.1,10.6-17.6,15.2-14.2c3.8,2.9,1.4,27.6,2.4,28.1c2.8,1.5,5.6,2.8,8.6,3.8
	c6.1,2.1,11.3,2.3,12.6-1.1l0-0.1c1.2-3.3,2.3-6.3,3.3-8.9c18.5-48.2,8.5,14,9.6,14c3.3,0,6.7-0.3,9.9-0.8
	c5.5-0.8,10.8-2.4,15.9-4.5c3.4-1.4,6.7-3,9.8-4.8c2.8-1.6,5.5-3.4,8.1-5.3c3.8-2.7,7.2-5.8,10.4-9.1c2.5-2.7,4.8-5.6,6.9-8.7
	c2.4-3.7,4.4-7.6,6-11.6l0,0c2.2-5.8,3.5-12,4-18.2c0.5-4.6,0.6-9.3,0.4-14c-0.2-3.6-0.7-7.2-1.5-10.7c-1.2-5.6-3.3-10.9-6.3-15.8
	c-2.8-4.6-6.1-8.8-9.8-12.7c-3.9-4.3-8.2-8.2-12.7-11.9c-2.7-2.3-5.6-4.4-8.8-6.1c-2.1-1.2-4.4-2.2-6.7-3c-0.9-0.4-4.2,0.3-8.8-0.8
	c-6.5-1.5-5-0.2-6.4-0.3c-3.5-0.2-3,0.9-8.9,1.8c-1.5,0.2-3.1,2.9-4.6,6.8c-4,10.5-7.6,30-9.3,34.4c-0.2,0.5-0.4,0.8-0.5,0.9
	c-2,0.7-15.2-26.3-23.5-28.1c-4.5-1-9.1-0.7-11.3,1.3c-2.6,2.2-6.2,3.3-10.6,9.4c0,0,20.2,17.6,17,25.9l0,0.1
	C138.2,162.6,112.4,157.8,110.4,163.2L110.4,163.2z"/>
<path class="st0" d="M115.6,164.3c0.9-2.2,9.5-2.1,15.3-1.9c7.4,0.1,11.4,0.1,12.2-1.8l0-0.1c2.9-7.6-11.7-21.4-15.5-24.8
	c1.8-2.5,4.1-4.5,6.8-6.1c0.9-0.5,1.7-1.1,2.5-1.8c1.7-1.5,5.5-1.9,9.8-1c4.5,1,11.4,11.6,15.9,18.5c4.3,6.7,5.3,8.2,6.7,7.7
	c0.6-0.3,1-0.8,1.1-1.4c0.6-1.7,1.5-5.4,2.6-10.1c1.7-7.2,3.8-16.2,6.1-22.1c2-5.1,3.2-5.7,3.5-5.7c1.7-0.2,3.4-0.6,5.1-1.2
	c1-0.4,2-0.5,3.1-0.4c0.4,0,0.9-0.1,1.3-0.3c0.2-0.1,0.6-0.4,4.6,0.6c2.2,0.5,4.5,0.7,6.8,0.7c0.5,0,0.9,0,1.4,0
	c2.1,0.8,4.1,1.7,6.1,2.7c2.9,1.6,5.5,3.5,8,5.7c4.2,3.4,8.2,7.1,11.8,11c3.5,3.6,6.5,7.5,9.1,11.7c1.2,2,2.2,4,3.1,6.1
	c1.1,2.7,2,5.5,2.6,8.4c0.7,3.3,1.2,6.6,1.4,9.9c0.2,4.3,0.1,8.6-0.4,12.9c-0.4,5.7-1.7,11.4-3.7,16.8c-1.5,3.8-3.3,7.4-5.5,10.7
	c-1.9,2.8-4,5.5-6.4,8c-3,3.1-6.2,5.9-9.7,8.4c-2.4,1.8-4.9,3.4-7.5,4.9c-2.9,1.7-6,3.2-9.1,4.4c-2.3,0.9-4.6,1.8-7,2.4
	c-2.5,0.7-5.1,1.3-7.7,1.7c-2.7,0.4-5.5,0.7-8.2,0.7c0.1-1.2,0.3-3.5,0.5-5.8c1.6-16.4,1.8-23.8-1-24.4c-1.6-0.4-3.9,0.7-10.4,17.8
	c-1,2.5-2,5.3-3.1,8.3l0,0.1c-0.9,2.3-4.8,2.4-10.5,0.5c-2.6-0.9-5.2-2-7.6-3.3c-0.1-0.9-0.1-3.5,0-5.9c0.2-10.1,0.1-18.7-2.6-20.6
	c-0.6-0.5-1.4-0.7-2.2-0.5c-2.8,0.5-5.8,4.8-8.8,9.1c-1,1.6-2.2,3.1-3.4,4.6c-2.1-2.2-4-4.6-5.8-7.1c-1.5-2.1-2.9-4.3-4.2-6.5
	c-1.4-2.5-2.5-5.1-3.5-7.8c1.7-1.3,3.6-2.5,5.4-3.6c6.9-4.2,12.3-7.7,13.3-10.4c0.2-0.5,0.2-1,0.1-1.5c-0.9-4-8.6-4.6-15.4-5.1
	c-2.8-0.2-6.7-0.5-7.5-1.1c-0.2-4,0-8,0.5-12C115.6,164.4,115.6,164.3,115.6,164.3L115.6,164.3 M114.7,163.9
	c-0.1,0.1-0.1,0.3-0.2,0.4c-0.5,4.1-0.7,8.3-0.5,12.4c0.1,2.9,21.7,0.5,23,6.2c0.1,0.3,0,0.6-0.1,0.9c-1.6,4.3-18.3,12.5-18.9,14.2
	c0,0,0,0.1,0,0.1c1.1,2.9,2.3,5.7,3.8,8.3c1.3,2.3,2.7,4.5,4.2,6.6c1.9,2.6,4,5.1,6.2,7.5c1.8,1.9,10-16.5,14.2-13.3
	c3.7,2.8,1.4,25.9,2.4,26.4c2.6,1.4,5.3,2.6,8.1,3.6c5.7,2,10.6,2.2,11.8-1l0-0.1c1.1-3.1,2.1-5.9,3.1-8.3
	c17.4-45.2,8,13.1,9.1,13.1c3.1,0,6.2-0.3,9.3-0.7c2.6-0.4,5.3-1,7.8-1.7c2.4-0.7,4.8-1.5,7.1-2.5c3.2-1.3,6.3-2.8,9.2-4.5
	c2.6-1.5,5.1-3.2,7.6-5c3.5-2.5,6.8-5.4,9.8-8.6c2.4-2.5,4.5-5.2,6.5-8.1c2.3-3.5,4.2-7.1,5.7-11l0,0c2-5.5,3.3-11.2,3.8-17
	c0.5-4.4,0.6-8.7,0.3-13.1c-0.2-3.4-0.7-6.8-1.5-10.1c-0.6-2.9-1.6-5.8-2.7-8.5c-0.9-2.2-2-4.2-3.2-6.2c-2.6-4.3-5.7-8.3-9.2-11.9
	c-3.7-4-7.7-7.7-11.9-11.1c-2.5-2.2-5.3-4.1-8.2-5.8c-2-1.1-4.1-2-6.2-2.8c-0.9-0.3-3.9,0.3-8.3-0.8c-6.1-1.5-4.7-0.2-6-0.3
	c-3.3-0.2-2.8,0.8-8.4,1.6c-1.4,0.2-2.9,2.7-4.3,6.3c-3.8,9.9-7.2,28.2-8.7,32.3c-0.2,0.5-0.4,0.8-0.5,0.8
	c-1.9,0.6-14.2-24.6-22-26.3c-4.2-0.9-8.5-0.7-10.6,1.2c-2.4,2.1-5.8,3.1-9.9,8.8c0,0,18.9,16.5,15.9,24.3l0,0.1
	C140.9,163.4,116.6,158.9,114.7,163.9L114.7,163.9z"/>
<path class="st0" d="M120.2,165c0.8-2,8.8-1.9,14.2-1.8c7,0.1,10.7,0.1,11.4-1.8l0-0.1c2.7-7.1-10.8-19.9-14.4-23.1
	c1.7-2.3,3.8-4.2,6.2-5.6c0.8-0.5,1.6-1.1,2.3-1.7c1.6-1.4,5.1-1.7,9-0.9c4.2,0.9,10.5,10.7,14.7,17.2c4,6.2,5,7.7,6.3,7.2
	c0.5-0.3,0.9-0.8,1.1-1.4c0.6-1.6,1.4-5,2.5-9.4c1.6-6.7,3.6-15.1,5.7-20.6c1.9-4.8,3-5.3,3.2-5.3c1.6-0.2,3.2-0.6,4.7-1.1
	c0.9-0.4,1.9-0.5,2.9-0.4c0.4,0,0.8-0.1,1.2-0.3c0.4-0.2,1.8,0,4.2,0.5c2.1,0.5,4.2,0.7,6.3,0.6c0.4,0,0.8,0,1.3,0
	c2,0.7,3.9,1.6,5.7,2.6c2.7,1.5,5.2,3.3,7.4,5.3c3.9,3.1,7.6,6.6,11,10.3c3.2,3.3,6.1,7,8.5,10.9c2.5,4.2,4.3,8.7,5.3,13.5
	c0.7,3,1.1,6.1,1.3,9.2c0.2,4,0.1,8-0.3,12c-0.4,5.3-1.5,10.6-3.4,15.6c-1.4,3.5-3.1,6.9-5.2,10c-1.8,2.6-3.7,5.1-5.9,7.4
	c-2.7,2.9-5.7,5.5-9,7.9c-2.2,1.7-4.6,3.2-7,4.6c-2.7,1.6-5.5,2.9-8.4,4.1c-2.1,0.9-4.3,1.6-6.5,2.3c-2.4,0.7-4.7,1.2-7.2,1.5
	c-2.5,0.4-5.1,0.6-7.6,0.7c0.1-1.1,0.3-3.3,0.5-5.3c1.7-17.1,1.4-22.2-1-22.8c-1.6-0.4-3.6,0.6-9.8,16.6c-0.9,2.3-1.9,4.9-2.9,7.8
	l0,0.1c-0.8,2.1-4.4,2.2-9.7,0.4c-2.4-0.8-4.8-1.9-7-3.1c-0.1-0.9-0.1-3.2-0.1-5.4c0.2-9.4,0.1-17.4-2.4-19.3
	c-0.6-0.5-1.4-0.6-2.1-0.5c-2.5,0.4-5,3.8-8.2,8.5c-0.9,1.5-2,2.8-3.1,4.2c-1.9-2.1-3.7-4.2-5.3-6.5c-1.4-1.9-2.7-4-3.9-6.1
	c-1.3-2.3-2.4-4.7-3.3-7.2c0.8-0.7,3.1-2.1,5-3.3c6.4-4,11.4-7.2,12.4-9.7c0.2-0.4,0.2-0.9,0.1-1.4c-0.8-3.8-7.8-4.3-14.5-4.8
	c-2.6-0.2-6.1-0.5-6.9-1C119.5,172.6,119.7,168.8,120.2,165L120.2,165L120.2,165 M119.3,164.6c-0.1,0.1-0.1,0.3-0.1,0.4
	c-0.5,3.8-0.7,7.7-0.5,11.6c0.1,2.7,20.2,0.5,21.4,5.7c0,0.3,0,0.6-0.1,0.8c-1.5,4-17,11.6-17.6,13.1c0,0,0,0.1,0,0.1
	c1,2.7,2.1,5.3,3.5,7.8c1.2,2.1,2.5,4.2,4,6.2c1.8,2.4,3.7,4.8,5.7,7c1.7,1.8,9.3-15.4,13.2-12.4c3.5,2.6,1.3,24.1,2.2,24.6
	c2.4,1.3,4.9,2.4,7.5,3.3c5.3,1.9,9.8,2,11-1l0-0.1c1-2.9,2-5.5,2.9-7.8c16.2-42.1,7.4,12.2,8.4,12.2c2.9,0,5.8-0.3,8.7-0.7
	c2.5-0.4,4.9-0.9,7.3-1.6c2.2-0.6,4.5-1.4,6.6-2.3c2.9-1.2,5.8-2.6,8.6-4.2c2.4-1.4,4.8-3,7.1-4.7c3.3-2.4,6.3-5,9.1-8
	c2.2-2.3,4.2-4.9,6-7.6c2.1-3.2,3.9-6.6,5.3-10.1l0,0c1.9-5.1,3.1-10.4,3.5-15.9c0.5-4.1,0.6-8.1,0.3-12.2c-0.2-3.2-0.6-6.3-1.3-9.4
	c-1-4.9-2.9-9.5-5.4-13.8c-2.4-4-5.3-7.7-8.6-11.1c-3.4-3.7-7.1-7.2-11-10.3c-2.3-2-4.9-3.8-7.6-5.4c-1.9-1-3.8-1.9-5.8-2.6
	c-0.8-0.3-3.7,0.3-7.7-0.7c-5.7-1.4-4.4-0.2-5.6-0.3c-3.1-0.2-2.6,0.8-7.8,1.5c-1.3,0.2-2.7,2.5-4,5.9c-3.5,9.2-6.7,26.2-8.1,30
	c-0.2,0.4-0.3,0.7-0.4,0.8c-1.7,0.6-13.3-22.9-20.6-24.5c-3.9-0.8-7.9-0.6-9.9,1.1c-2.2,2-5.4,2.9-9.2,8.2c0,0,17.7,15.4,14.9,22.6
	l0,0c-1.2,3-23.7-1.2-25.6,3.5L119.3,164.6z"/>
<path class="st0" d="M125.6,165.9c0.7-1.8,8.3-1.6,12.9-1.6c6.6,0.1,9.8,0.1,10.5-1.7l0-0.1c2.5-6.5-9.7-18.1-13.1-21.1
	c1.5-2,3.5-3.7,5.6-5.1c0.7-0.5,1.4-1,2.1-1.5c1.4-1.2,4.6-1.6,8.2-0.8c3.8,0.8,9.6,9.8,13.4,15.7c3.7,5.7,4.6,7.1,5.9,6.6
	c0.5-0.3,0.9-0.8,1-1.4c0.5-1.4,1.3-4.6,2.2-8.6c1.4-6.1,3.2-13.8,5.2-18.8c1.7-4.5,2.8-4.8,2.9-4.8c1.5-0.2,2.9-0.5,4.3-1
	c0.8-0.3,1.7-0.5,2.6-0.4c0.4,0,0.8-0.1,1.2-0.3c0.4-0.2,2.3,0.1,3.8,0.5c1.9,0.4,3.8,0.6,5.8,0.6c0.4,0,0.7,0,1.1,0
	c4.4,1.6,8.5,4,12,7.1c3.6,2.9,6.9,6,10,9.4c2.9,3,5.5,6.4,7.7,10c1,1.7,1.9,3.4,2.6,5.2c1,2.3,1.7,4.7,2.2,7.1
	c0.6,2.8,1,5.6,1.2,8.4c0.2,3.7,0.1,7.3-0.3,11c-0.4,4.9-1.4,9.7-3.1,14.3c-1.2,3.2-2.8,6.3-4.7,9.1c-1.6,2.4-3.4,4.7-5.4,6.8
	c-2.5,2.6-5.2,5-8.2,7.2c-2,1.5-4.2,2.9-6.4,4.2c-2.5,1.4-5.1,2.7-7.7,3.8c-1.9,0.8-3.9,1.5-5.9,2.1c-4.4,1.2-8.8,1.9-13.4,2
	c0.1-1.1,0.2-2.9,0.4-4.8c1.5-15.7,1.3-20.4-1-20.9c-1.5-0.3-3.4,0.5-9.1,15.2c-0.8,2.1-1.7,4.5-2.6,7.1l0,0c-0.7,1.9-4,2-8.8,0.3
	c-2.2-0.8-4.4-1.7-6.4-2.8c-0.1-0.8,0-3,0-4.9c0.1-8.7,0.1-16-2.2-17.7c-0.6-0.4-1.3-0.6-2-0.5c-2.3,0.4-4.6,3.5-7.6,7.8
	c-0.8,1.3-1.8,2.6-2.8,3.7c-1.7-1.9-3.3-3.8-4.8-5.9c-1.3-1.8-2.5-3.6-3.5-5.5c-1.1-2.1-2.1-4.3-3-6.5c0.7-0.6,2.8-1.9,4.5-2.9
	c5.9-3.6,10.5-6.6,11.4-9c0.2-0.4,0.2-0.9,0.1-1.3c-0.8-3.5-7.1-4-13.3-4.4c-2.3-0.2-5.4-0.4-6.2-0.8
	C124.9,172.7,125.1,169.3,125.6,165.9C125.5,165.9,125.5,165.9,125.6,165.9L125.6,165.9 M124.6,165.5c-0.1,0.1-0.1,0.2-0.1,0.3
	c-0.5,3.5-0.6,7-0.4,10.6c0.1,2.5,18.5,0.4,19.5,5.2c0,0.3,0,0.5-0.1,0.8c-1.4,3.6-15.6,10.6-16.1,12c0,0,0,0.1,0,0.1
	c0.9,2.4,2,4.8,3.2,7.1c1.1,2,2.3,3.9,3.6,5.7c1.6,2.2,3.4,4.4,5.3,6.4c1.5,1.7,8.5-14.1,12.1-11.3c3.2,2.4,1.2,22,2.1,22.5
	c2.2,1.2,4.5,2.2,6.9,3c4.8,1.7,9,1.9,10-0.9l0-0.1c0.9-2.6,1.8-5,2.6-7.1c14.8-38.5,6.8,11.2,7.7,11.2c2.7,0,5.3-0.2,7.9-0.6
	c2.3-0.3,4.5-0.8,6.7-1.5c2.1-0.6,4.1-1.3,6-2.1c2.7-1.1,5.3-2.4,7.8-3.8c2.2-1.3,4.4-2.7,6.4-4.3c3-2.2,5.8-4.6,8.3-7.3
	c2-2.2,3.9-4.5,5.5-6.9c2-2.9,3.6-6,4.9-9.3l0,0c1.7-4.7,2.8-9.6,3.2-14.5c0.4-3.7,0.5-7.4,0.3-11.2c-0.2-2.9-0.6-5.8-1.2-8.6
	c-0.5-2.5-1.3-4.9-2.3-7.3c-0.8-1.8-1.7-3.6-2.7-5.3c-2.2-3.7-4.9-7.1-7.9-10.2c-3.1-3.4-6.5-6.6-10.1-9.5c-2.1-1.9-4.5-3.5-7-4.9
	c-1.7-0.9-3.5-1.7-5.3-2.4c-0.7-0.3-3.3,0.3-7-0.6c-5.2-1.2-4-0.2-5.1-0.2c-2.8-0.2-2.4,0.7-7.1,1.4c-1.2,0.2-2.5,2.3-3.7,5.4
	c-3.2,8.4-6.1,24-7.4,27.4c-0.2,0.4-0.3,0.7-0.4,0.7c-1.6,0.5-12.1-21-18.8-22.4c-3.6-0.8-7.3-0.6-9.1,1c-2,1.8-4.9,2.6-8.4,7.5
	c0,0,16.1,14,13.6,20.7l0,0C147,165,126.4,161.1,124.6,165.5L124.6,165.5z"/>
<path class="st0" d="M130.6,166.7c0.6-1.6,7.5-1.4,11.7-1.4c6.1,0.1,9,0.1,9.7-1.6l0-0.1c2.3-5.9-8.8-16.5-11.9-19.3
	c1.4-1.8,3.1-3.4,5.1-4.5c0.7-0.4,1.3-0.9,1.9-1.4c1.3-1.1,4.2-1.4,7.4-0.7c3.4,0.7,8.9,9.2,12.2,14.3c3.4,5.3,4.3,6.5,5.5,6.1
	c0.5-0.2,0.9-0.7,1-1.2c0.5-1.3,1.2-4.2,2.1-7.9c1.3-5.6,3-12.6,4.7-17.1c1.6-4.1,2.5-4.3,2.6-4.3c1.4-0.2,2.7-0.5,4-0.9
	c0.7-0.3,1.5-0.4,2.3-0.3c0.4,0.1,0.8,0,1.2-0.3c0,0,0,0,0,0c0,0,0.5-0.2,3.3,0.5c1.7,0.4,3.5,0.6,5.3,0.5c0.3,0,0.7,0,1,0
	c4,1.4,7.8,3.7,11,6.5c3.3,2.6,6.3,5.5,9.1,8.5c2.7,2.8,5,5.8,7,9.1c0.9,1.5,1.7,3.1,2.4,4.7c0.9,2.1,1.6,4.3,2,6.5
	c0.6,2.5,0.9,5.1,1.1,7.7c0.2,3.3,0.1,6.7-0.3,10c-0.3,4.4-1.3,8.8-2.9,13c-1.1,2.9-2.6,5.7-4.3,8.3c-1.5,2.2-3.1,4.3-4.9,6.2
	c-2.3,2.4-4.8,4.6-7.4,6.5c-1.8,1.4-3.8,2.7-5.8,3.8c-2.3,1.3-4.6,2.4-7,3.4c-3.6,1.5-7.5,2.6-11.4,3.2c-2,0.3-4.1,0.5-6.1,0.5
	c0.1-1,0.2-2.6,0.4-4.3c1.4-14.6,1.2-18.7-0.9-19.2c-1.4-0.3-3.2,0.5-8.4,13.9c-0.7,1.9-1.6,4.1-2.4,6.6c-0.7,2-4.6,1.4-7.9,0.2
	c-2-0.7-3.9-1.5-5.8-2.5c-0.1-0.8,0-2.7,0-4.4c0.1-8.2,0.1-14.6-2.1-16.2c-0.5-0.4-1.2-0.6-1.9-0.5c-2.1,0.3-4.2,3.2-6.9,7.1
	c-0.8,1.2-1.6,2.3-2.5,3.3c-1.5-1.7-3-3.5-4.3-5.3c-1.2-1.6-2.3-3.3-3.2-5c-1-1.9-1.9-3.8-2.7-5.8c0.7-0.6,2.5-1.7,4.1-2.6
	c5.4-3.3,9.6-6,10.4-8.2c0.2-0.4,0.2-0.8,0.1-1.3c-0.7-3.3-6.6-3.7-12.2-4.1c-1.9-0.1-3.8-0.3-5.6-0.7c-0.2-3.1-0.1-6.2,0.3-9.2
	L130.6,166.7 M129.7,166.4c-0.1,0.1-0.1,0.2-0.1,0.3c-0.4,3.2-0.5,6.4-0.4,9.6c0.1,2.3,16.9,0.4,17.8,4.8c0,0.2,0,0.5-0.1,0.7
	c-1.3,3.3-14.2,9.7-14.7,11c0,0,0,0.1,0,0.1c0.8,2.2,1.8,4.4,2.9,6.5c1,1.8,2.1,3.5,3.3,5.1c1.5,2,3.1,4,4.8,5.8
	c1.4,1.5,7.7-12.8,11.1-10.3c2.9,2.2,1.1,20.1,1.9,20.5c2,1.1,4.1,2,6.3,2.8c4.4,1.6,8.2,1.7,9.2-0.8l0-0.1c0.9-2.4,1.7-4.6,2.4-6.5
	c13.5-35.1,6.2,10.2,7,10.2c2.4,0,4.8-0.2,7.2-0.6c2-0.3,4.1-0.8,6.1-1.3c1.9-0.5,3.7-1.2,5.5-1.9c2.5-1,4.8-2.2,7.1-3.5
	c2-1.2,4-2.5,5.9-3.9c2.7-2,5.3-4.2,7.6-6.7c1.8-2,3.5-4.1,5-6.3c1.7-2.7,3.2-5.5,4.3-8.5l0,0c1.6-4.3,2.6-8.7,2.9-13.2
	c0.4-3.4,0.5-6.8,0.3-10.2c-0.2-2.6-0.5-5.3-1.1-7.8c-0.5-2.3-1.2-4.5-2.1-6.6c-0.7-1.7-1.5-3.3-2.4-4.8c-2-3.4-4.4-6.5-7.1-9.4
	c-2.9-3.1-5.9-6-9.2-8.6c-2-1.7-4.1-3.2-6.3-4.5c-1.6-0.8-3.2-1.6-4.8-2.2c-0.7-0.3-3.1,0.2-6.4-0.6c-4.7-1.1-3.6-0.2-4.7-0.2
	c-2.6-0.1-2.2,0.7-6.5,1.3c-1.1,0.2-2.3,2.1-3.3,4.9c-2.9,7.7-5.6,21.9-6.8,25c-0.1,0.4-0.2,0.6-0.4,0.6c-1.5,0.5-11-19.1-17.1-20.4
	c-3.2-0.7-6.6-0.5-8.3,0.9c-1.9,1.6-4.5,2.4-7.7,6.8c0,0,14.7,12.8,12.4,18.8l0,0C150,165.9,131.2,162.4,129.7,166.4L129.7,166.4z"
	/>
<path class="st0" d="M134.6,167.4c0.5-1.4,7.1-1.3,10.7-1.2c5.6,0.1,8.4,0.1,9-1.5l0,0c2.1-5.5-8-15.2-11-17.9
	c1.3-1.6,2.9-3,4.6-4.1c0.6-0.4,1.2-0.8,1.8-1.3c1.2-1,3.8-1.3,6.8-0.6c3.1,0.7,8.2,8.5,11.2,13.2c3.2,5,4,6.1,5.2,5.7
	c0.5-0.2,0.8-0.7,1-1.2c0.5-1.2,1.1-3.9,1.9-7.3c1.1-5.4,2.6-10.6,4.4-15.8c1.4-3.7,2.3-3.9,2.3-3.9c1.3-0.2,2.5-0.5,3.7-0.9
	c0.7-0.3,1.4-0.4,2.1-0.3c0.4,0,0.8-0.1,1.1-0.3l0,0c0.1,0,0.6-0.1,3,0.5c1.6,0.4,3.3,0.5,4.9,0.5c0.4,0,0.8,0,0.9,0
	c1.5,0.6,3,1.2,4.4,2c2,1.2,3.9,2.5,5.7,4c3,2.4,5.8,5,8.4,7.9c2.5,2.5,4.7,5.3,6.5,8.4c0.8,1.4,1.6,2.9,2.2,4.4
	c0.8,1.9,1.4,3.9,1.9,6c0.5,2.3,0.9,4.7,1,7.1c0.2,3.1,0.1,6.2-0.2,9.2c-0.3,4.1-1.2,8.1-2.6,11.9c-1,2.7-2.4,5.3-3.9,7.7
	c-1.4,2-2.9,3.9-4.5,5.7c-2.1,2.2-4.4,4.2-6.9,6c-1.7,1.3-3.5,2.4-5.3,3.5c-2.1,1.2-4.2,2.3-6.5,3.2c-1.6,0.7-3.3,1.3-5,1.7
	c-1.8,0.5-3.6,0.9-5.5,1.2c-1.8,0.3-3.7,0.4-5.5,0.5c0.1-0.9,0.2-2.4,0.3-3.9c1.3-13.5,1.1-17.3-0.9-17.8c-1.4-0.3-3,0.4-7.8,12.9
	c-0.7,1.8-1.4,3.8-2.2,6c-0.7,1.8-4.2,1.2-7.2,0.2c-1.8-0.6-3.6-1.4-5.3-2.3c-0.1-0.7,0-2.5,0-4c0.1-7.6,0.1-13.5-1.9-15
	c-0.5-0.4-1.2-0.6-1.8-0.4c-2,0.3-3.9,3-6.5,6.6c-0.7,1.1-1.4,2.1-2.2,3c-1.4-1.5-2.7-3.1-3.9-4.8c-1.1-1.5-2.1-3-3-4.7
	c-0.9-1.7-1.8-3.5-2.5-5.3c0.7-0.5,2.3-1.5,3.7-2.4c5-3.1,8.9-5.6,9.7-7.6c0.2-0.4,0.2-0.8,0.1-1.2c-0.7-3.1-6.1-3.5-11.4-3.9
	c-1.7-0.1-3.4-0.3-5.1-0.6C134.1,173.1,134.2,170.3,134.6,167.4L134.6,167.4 M133.7,167c-0.1,0.1-0.1,0.2-0.1,0.3
	c-0.4,2.9-0.5,5.9-0.3,8.9c0.1,2.1,15.6,0.4,16.5,4.4c0,0.2,0,0.4-0.1,0.6c-1.2,3.1-13.1,8.9-13.5,10.1c0,0,0,0.1,0,0.1
	c0.8,2.1,1.7,4,2.7,6c0.9,1.6,1.9,3.2,3,4.7c1.4,1.9,2.8,3.7,4.4,5.4c1.3,1.4,7.1-11.8,10.2-9.5c2.6,2,1,18.6,1.7,18.9
	c1.9,1,3.8,1.8,5.8,2.5c4.1,1.4,7.6,1.6,8.5-0.8l0-0.1c0.8-2.2,1.5-4.2,2.2-6c12.5-32.4,5.7,9.4,6.5,9.4c2.2,0,4.4-0.2,6.6-0.5
	c1.9-0.3,3.8-0.7,5.6-1.2c1.7-0.5,3.4-1.1,5.1-1.8c2.3-0.9,4.5-2,6.6-3.2c1.9-1.1,3.7-2.3,5.4-3.6c2.5-1.8,4.9-3.9,7-6.1
	c1.7-1.8,3.2-3.8,4.6-5.8c1.6-2.5,3-5.1,4.1-7.8l0,0c1.5-3.9,2.4-8,2.7-12.2c0.3-3.1,0.4-6.3,0.2-9.4c-0.2-2.4-0.5-4.8-1-7.2
	c-0.5-2.1-1.1-4.1-1.9-6.1c-0.6-1.5-1.4-3-2.3-4.5c-1.9-3.1-4.1-6-6.6-8.5c-2.6-2.9-5.5-5.6-8.5-8c-1.8-1.6-3.8-3-5.9-4.2
	c-1.4-0.8-2.9-1.4-4.5-2c-0.6-0.2-2.8,0.2-5.9-0.5c-4.4-1-3.4-0.1-4.3-0.2c-2.4-0.1-2,0.6-6,1.2c-1,0.1-2.1,1.9-3.1,4.5
	c-2.7,7.1-5.1,20.2-6.3,23.1c-0.1,0.4-0.2,0.6-0.4,0.6c-1.3,0.5-10.2-17.7-15.8-18.9c-3-0.6-6.1-0.5-7.6,0.8
	c-1.7,1.5-4.2,2.2-7.1,6.3c0,0,13.6,11.8,11.4,17.4l0,0C152.4,166.5,135.1,163.3,133.7,167L133.7,167z"/>
<path class="st0" d="M139.4,168.2c0.5-1.2,6.6-1.1,9.5-1c5.1,0.1,7.6,0.1,8.2-1.5c1.9-4.9-7.1-13.6-9.9-16.2
	c1.1-1.4,2.5-2.7,4.1-3.6c0.6-0.4,1.1-0.8,1.6-1.2c1-0.9,3.4-1.1,6-0.5c2.8,0.6,7.3,7.6,10,11.8c2.8,4.4,3.6,5.5,4.8,5.1
	c0.5-0.2,0.8-0.6,0.9-1.1c0.4-1.1,1-3.5,1.7-6.6c1-4.8,2.4-9.6,4-14.2c1.2-3.2,2-3.5,2-3.5c1.1-0.1,2.3-0.4,3.3-0.8
	c0.6-0.2,1.2-0.3,1.9-0.3c0.4,0,0.7-0.1,1-0.3c0.9,0,1.8,0.1,2.7,0.4c1.5,0.3,3,0.5,4.4,0.4c0.3,0,0.7,0,0.8,0
	c1.3,0.5,2.6,1.1,3.9,1.8c1.8,1,3.5,2.2,5.1,3.6c2.7,2.2,5.2,4.5,7.6,7.1c2.2,2.3,4.2,4.8,5.8,7.5c0.7,1.3,1.4,2.6,2,3.9
	c0.7,1.7,1.3,3.5,1.7,5.3c0.5,2.1,0.8,4.2,0.9,6.4c0.2,2.8,0.1,5.5-0.2,8.3c-0.3,3.7-1.1,7.3-2.4,10.7c-0.9,2.4-2.1,4.7-3.5,6.9
	c-1.2,1.8-2.6,3.5-4.1,5.1c-1.9,2-3.9,3.8-6.2,5.4c-1.5,1.1-3.1,2.2-4.8,3.2c-1.9,1.1-3.8,2-5.8,2.8c-1.5,0.6-3,1.1-4.5,1.6
	c-3.2,0.9-6.5,1.4-9.8,1.5c0.1-0.8,0.2-2.1,0.3-3.4c1.2-12.4,1-15.7-0.9-16.1c-1.3-0.3-2.8,0.4-7.1,11.7c-0.6,1.6-1.3,3.4-2,5.4
	c-0.6,1.5-3.7,1-6.4,0.1c-1.6-0.6-3.2-1.2-4.7-2c0-0.7,0-2.2,0-3.6c0.1-6.9,0-12.2-1.8-13.6c-0.5-0.4-1.1-0.5-1.7-0.4
	c-1.8,0.3-3.6,2.7-5.9,6c-0.6,0.9-1.2,1.8-1.9,2.6c-1.2-1.4-2.4-2.8-3.5-4.3c-1-1.3-1.9-2.7-2.7-4.2c-0.8-1.5-1.6-3.1-2.2-4.7
	c0.6-0.5,2.1-1.4,3.3-2.1c4.5-2.8,8-5,8.7-6.9c0.2-0.4,0.2-0.8,0.1-1.2c-0.6-2.8-5.5-3.2-10.3-3.5c-1.5-0.1-3-0.2-4.5-0.6
	C138.9,173.2,139,170.7,139.4,168.2L139.4,168.2 M138.4,167.8l-0.1,0.3c-0.3,2.7-0.4,5.3-0.3,8c0.1,1.9,14,0.3,14.8,4
	c0,0.2,0,0.4-0.1,0.6c-1.1,2.8-11.8,8-12.2,9.1l0,0.1c0.7,1.8,1.5,3.6,2.4,5.4c0.8,1.5,1.7,2.9,2.7,4.3c1.2,1.7,2.6,3.3,4,4.8
	c1.2,1.2,6.4-10.7,9.2-8.6c2.4,1.8,0.9,16.7,1.5,17.1c1.7,0.9,3.4,1.7,5.2,2.3c3.7,1.3,6.8,1.4,7.6-0.7l0-0.1c0.7-2,1.4-3.8,2-5.4
	c11.2-29.2,5.1,8.5,5.8,8.5c5.4,0,10.7-1.1,15.6-3.2c2-0.8,4-1.8,5.9-2.9c1.7-1,3.3-2.1,4.9-3.2c2.3-1.6,4.4-3.5,6.3-5.5
	c1.5-1.6,2.9-3.4,4.2-5.2c1.5-2.2,2.7-4.6,3.7-7l0,0c1.3-3.5,2.1-7.2,2.4-11c0.3-2.8,0.4-5.7,0.2-8.5c-0.1-2.2-0.5-4.4-0.9-6.5
	c-0.7-3.4-2-6.6-3.8-9.5c-1.7-2.8-3.7-5.3-6-7.7c-2.4-2.6-4.9-5-7.7-7.2c-1.6-1.4-3.4-2.7-5.2-3.8c-1.3-0.7-2.6-1.3-4-1.8
	c-0.6-0.2-2.5,0.2-5.3-0.5c-3.9-0.9-3-0.1-3.9-0.2c-2.1-0.1-1.8,0.5-5.4,1.1c-0.9,0.1-1.9,1.7-2.8,4.1c-2.4,6.4-4.6,18.2-5.6,20.8
	c-0.1,0.3-0.2,0.5-0.3,0.5c-1.2,0.4-9.2-15.9-14.2-17c-2.7-0.6-5.5-0.4-6.9,0.8c-1.6,1.3-3.7,2-6.4,5.7c0,0,12.2,10.7,10.3,15.7l0,0
	C155.4,167.4,139.8,164.4,138.4,167.8L138.4,167.8z"/>
<path class="st0" d="M144.4,169c0.4-0.9,5.9-0.9,8.3-0.8c4.6,0.1,6.8,0.1,7.4-1.4c1.7-4.4-5.8-11.8-8.7-14.3c1-1.2,2.2-2.3,3.5-3.1
	c0.5-0.3,1-0.7,1.5-1c0.9-0.7,3-0.9,5.2-0.4c2.4,0.5,6.4,6.7,8.8,10.4c2.5,3.9,3.2,5,4.3,4.6c0.4-0.2,0.8-0.6,0.9-1.1
	c0.4-1,0.9-3.1,1.5-5.8c0.9-4.3,2.1-8.5,3.5-12.6c1-2.7,1.7-3,1.7-3c1-0.1,2-0.4,3-0.7c0.5-0.2,1.1-0.3,1.6-0.2c0.3,0,0.7-0.1,1-0.2
	c0.8,0,1.5,0.1,2.3,0.4c1.3,0.3,2.6,0.4,4,0.4c0.2,0,0.4,0,0.7,0c1.2,0.4,2.3,0.9,3.4,1.5c1.6,0.9,3.1,2,4.5,3.2
	c2.4,1.9,4.6,4,6.7,6.3c2,2,3.7,4.2,5.1,6.6c0.7,1.1,1.2,2.3,1.7,3.4c0.6,1.5,1.1,3.1,1.5,4.7c0.4,1.8,0.7,3.7,0.8,5.6
	c0.1,2.4,0.1,4.9-0.2,7.3c-0.3,3.2-1,6.4-2.1,9.5c-0.8,2.1-1.9,4.2-3.1,6.1c-1.1,1.6-2.3,3.1-3.6,4.5c-1.7,1.8-3.5,3.4-5.4,4.8
	c-1.4,1-2.8,1.9-4.2,2.8c-1.6,1-3.4,1.8-5.1,2.5c-2.7,1.1-5.4,1.9-8.3,2.3c-1.4,0.2-2.8,0.3-4.2,0.4c0.1-0.7,0.2-1.8,0.3-2.8
	c1.1-11,0.9-14-0.9-14.4c-1.2-0.3-2.6,0.3-6.4,10.4c-0.5,1.4-1.2,3-1.8,4.8c-0.4,1-2.5,1-5.5,0c-1.4-0.5-2.8-1.1-4.1-1.7
	c0-0.6,0-1.9,0-3.1c0.1-7.1-0.1-11-1.6-12.1c-0.4-0.3-1-0.5-1.6-0.4c-1.7,0.3-3.2,2.4-5.3,5.4c-0.5,0.7-1.2,1.7-1.6,2.2
	c-1.1-1.2-2-2.4-3-3.7c-0.9-1.2-1.6-2.4-2.4-3.7c-0.7-1.3-1.3-2.7-1.9-4.1c0.6-0.4,1.8-1.2,2.8-1.8c4-2.5,7.1-4.5,7.7-6.2
	c0.1-0.3,0.2-0.7,0.1-1c-0.6-2.6-5-2.9-9.2-3.2c-1.3,0-2.6-0.2-3.9-0.4C144,173.4,144.1,171.3,144.4,169L144.4,169 M143.4,168.7
	c0,0.1-0.1,0.2-0.1,0.2c-0.3,2.3-0.4,4.7-0.3,7.1c0.1,1.7,12.4,0.3,13.1,3.5c0,0.2,0,0.3-0.1,0.5c-0.9,2.4-10.4,7.1-10.8,8
	c0,0,0,0,0,0.1c0.6,1.6,1.3,3.2,2.1,4.7c0.7,1.3,1.5,2.6,2.4,3.8c1.1,1.5,2.2,2.9,3.5,4.3c1,1.1,5.7-9.4,8.1-7.6
	c2.1,1.6,0.8,14.8,1.4,15.1c1.5,0.8,3,1.5,4.6,2c3.2,1.1,6,1.2,6.7-0.6l0,0c0.7-1.7,1.2-3.3,1.7-4.7c9.9-25.8,4.6,7.5,5.2,7.5
	c1.8,0,3.7-0.2,5.5-0.5c1.5-0.2,3-0.6,4.5-1c1.4-0.4,2.7-0.9,4-1.5c1.8-0.7,3.6-1.6,5.3-2.6c1.5-0.9,2.9-1.8,4.3-2.9
	c2-1.4,3.9-3.1,5.6-4.9c1.4-1.4,2.6-3,3.7-4.6c1.3-2,2.4-4.1,3.2-6.3l0,0c1.2-3.1,1.9-6.4,2.1-9.7c0.3-2.5,0.3-5,0.2-7.4
	c-0.1-1.9-0.4-3.9-0.8-5.8c-0.4-1.7-0.9-3.3-1.5-4.9c-0.5-1.2-1.1-2.4-1.8-3.6c-1.5-2.5-3.3-4.7-5.3-6.8c-2.1-2.3-4.4-4.4-6.8-6.3
	c-1.4-1.3-3-2.4-4.7-3.3c-1.1-0.6-2.3-1.1-3.6-1.6c-0.5-0.2-2.2,0.2-4.7-0.4c-3.5-0.8-2.7-0.1-3.4-0.2c-1.9-0.1-1.6,0.5-4.8,0.9
	c-0.8,0.1-1.7,1.5-2.5,3.6c-2.2,5.6-4.1,16.1-5,18.4c0,0.2-0.1,0.3-0.3,0.5c-1.1,0.4-8.1-14.1-12.6-15c-2.4-0.5-4.8-0.4-6.1,0.7
	c-1.4,1.2-3.3,1.8-5.6,5c0,0,10.8,9.4,9.1,13.8l0,0C158.3,168.4,144.5,165.8,143.4,168.7L143.4,168.7z"/>
<path class="st0" d="M148.5,169.6c0.5-0.8,5.3-0.7,7.3-0.7c4.3,0.1,6.2,0.1,6.7-1.3c1.5-4-5.1-10.5-7.7-12.9c0.9-1.1,1.9-2,3-2.7
	c0.5-0.3,0.9-0.6,1.3-0.9c0.7-0.7,2.6-0.8,4.6-0.4c2,0.4,5.7,6,7.8,9.2c2.3,3.6,2.9,4.5,4,4.2c0.4-0.2,0.7-0.6,0.9-1
	c0.3-0.9,0.8-2.8,1.4-5.2c0.8-3.8,1.8-7.5,3.1-11.2c0.9-2.3,1.4-2.6,1.4-2.6l0,0c0.9-0.1,1.8-0.3,2.7-0.6c0.4-0.2,0.9-0.3,1.4-0.2
	c0.3,0,0.6,0,0.9-0.2c0.7,0,1.4,0.1,2,0.3c1.2,0.3,2.4,0.4,3.6,0.3c0.2,0,0.5,0,0.6,0c1,0.4,2,0.9,2.9,1.4c1.4,0.8,2.8,1.8,4,2.8
	c2.1,1.7,4.1,3.6,6,5.6c1.7,1.8,3.3,3.8,4.6,5.9c0.6,1,1.1,2,1.6,3.1c0.6,1.4,1,2.8,1.3,4.2c0.4,1.6,0.6,3.3,0.7,5
	c0.1,2.2,0.1,4.4-0.2,6.5c-0.2,2.9-0.8,5.7-1.8,8.5c-0.7,1.9-1.7,3.7-2.8,5.4c-0.9,1.4-2,2.8-3.2,4c-1.5,1.6-3.1,3-4.8,4.3
	c-2.6,1.9-5.4,3.5-8.3,4.7c-1.1,0.5-2.3,0.9-3.5,1.2c-1.3,0.4-2.6,0.7-3.9,0.8c-1.2,0.2-2.4,0.3-3.6,0.3l0.2-2.4
	c1-10,0.8-12.6-0.9-13c-1.2-0.3-2.4,0.2-5.9,9.4c-0.5,1.3-1,2.7-1.6,4.3c-0.3,0.8-2.2,0.8-4.8-0.1c-1.2-0.4-2.4-0.9-3.6-1.5
	c0-0.6,0-1.7,0-2.7c0.1-6.6-0.1-9.9-1.5-10.9c-0.4-0.3-1-0.5-1.5-0.4c-1.5,0.2-3,2.2-4.8,4.8c-0.4,0.6-1,1.4-1.4,1.9
	c-0.9-1-1.8-2-2.6-3.1c-0.7-1-1.4-2.1-2-3.2c-0.6-1.1-1.2-2.3-1.7-3.6c0.5-0.4,1.6-1,2.5-1.6c3.7-2.3,6.4-4,7-5.6
	c0.1-0.3,0.2-0.7,0.1-1c-0.5-2.3-4.5-2.7-8.3-3c-1.1-0.1-2.3-0.2-3.4-0.4C148.2,173.5,148.2,171.6,148.5,169.6 M147.6,169.3
	c0,0.1-0.1,0.1-0.1,0.2c-0.3,2.1-0.4,4.2-0.3,6.3c0,1.5,11.1,0.3,11.7,3.1c0,0.2,0,0.3-0.1,0.5c-0.8,2.2-9.3,6.4-9.6,7.2l0,0.1
	c0.5,1.5,1.2,2.9,1.9,4.2c0.6,1.2,1.4,2.3,2.2,3.4c1,1.3,2,2.6,3.1,3.8c0.9,1,5.1-8.4,7.3-6.8c1.9,1.4,0.7,13.2,1.2,13.5
	c1.3,0.7,2.7,1.3,4.1,1.8c2.9,1,5.4,1.1,6-0.5l0,0c0.6-1.6,1.1-3,1.6-4.2c8.9-23.1,4.1,6.7,4.6,6.7c1.6,0,3.2-0.1,4.8-0.4
	c1.3-0.2,2.7-0.5,4-0.9c1.2-0.3,2.4-0.8,3.6-1.3c1.6-0.6,3.2-1.4,4.7-2.2c1.3-0.8,2.6-1.6,3.9-2.6c1.8-1.3,3.5-2.8,5-4.4
	c1.2-1.3,2.3-2.6,3.3-4.1c1.2-1.8,2.1-3.7,2.9-5.7l0,0c1-2.8,1.7-5.7,1.9-8.7c0.2-2.2,0.3-4.5,0.2-6.7c-0.1-1.7-0.4-3.4-0.7-5.1
	c-0.3-1.5-0.8-3-1.4-4.4c-0.5-1.1-1-2.2-1.6-3.2c-1.3-2.2-2.9-4.2-4.7-6.1c-1.9-2-3.9-3.9-6.1-5.7c-1.3-1.1-2.7-2.1-4.2-3
	c-1-0.5-2.1-1-3.2-1.4c-1.4,0-2.8-0.1-4.2-0.3c-3.1-0.7-2.4-0.1-3.1-0.1c-1.7-0.1-1.4,0.4-4.3,0.8c-0.7,0.1-1.5,1.4-2.2,3.2
	c-1.9,5-3.7,14.4-4.5,16.5c-0.1,0.3-0.2,0.4-0.2,0.4c-0.9,0.3-7.3-12.6-11.3-13.4c-2.1-0.5-4.3-0.3-5.4,0.6c-1.2,1.1-3,1.6-5,4.5
	c0,0,9.6,8.4,8.1,12.4l0,0C160.9,169,148.5,166.7,147.6,169.3L147.6,169.3z"/>
<path class="st0" d="M153.5,170.5c0.6-0.6,4.3-0.5,6.1-0.5c3.4,0.1,5.3,0.1,5.8-1.2c1.3-3.4-4.2-8.9-6.5-11.1
	c0.7-0.8,1.5-1.6,2.5-2.1c0.4-0.2,0.8-0.5,1.1-0.8c0.6-0.5,2.1-0.6,3.8-0.3s4.9,5.2,6.6,7.8c2,3.1,2.5,3.9,3.6,3.6
	c0.4-0.2,0.7-0.5,0.8-0.9c0.3-0.8,0.7-2.4,1.2-4.5c0.7-3.2,1.6-6.4,2.6-9.6c0.2-0.8,0.6-1.5,1.1-2.1c0.8-0.1,1.5-0.3,2.2-0.5
	c0.4-0.2,0.7-0.2,1.1-0.2c0.3,0,0.6,0,0.8-0.2c0.5,0,1.1,0.1,1.6,0.3c1,0.2,2.1,0.3,3.1,0.3c0.1,0,0.3,0,0.4,0
	c0.9,0.3,1.7,0.7,2.5,1.1c1.2,0.7,2.3,1.5,3.4,2.4c1.8,1.5,3.5,3,5.1,4.7c1.5,1.5,2.8,3.2,3.9,5c0.5,0.8,0.9,1.7,1.3,2.6
	c0.5,1.1,0.9,2.3,1.1,3.6c0.3,1.4,0.5,2.8,0.6,4.2c0.1,1.8,0.1,3.7-0.1,5.5c-0.2,2.5-0.7,4.9-1.5,7.2c-0.6,1.6-1.4,3.1-2.4,4.6
	c-0.8,1.2-1.7,2.3-2.7,3.4c-1.3,1.3-2.6,2.5-4.1,3.6c-1,0.8-2.1,1.5-3.2,2.1c-1.2,0.7-2.5,1.3-3.9,1.9c-1,0.4-2,0.7-3,1
	c-1.1,0.3-2.2,0.5-3.3,0.7c-0.7,0.1-1.7,0.2-2.9,0.3l0.2-1.9c0.8-8.7,0.7-10.9-0.9-11.2c-1.3-0.3-2.4,0.9-5.2,8.1
	c-0.4,1.1-0.9,2.3-1.4,3.7c-0.2,0.6-1.8,0.6-3.9-0.1c-1-0.4-2-0.8-3-1.3c0-0.5,0-1.4,0-2.2c0.1-5.6-0.1-8.5-1.3-9.4
	c-0.4-0.3-0.9-0.4-1.4-0.3c-1.4,0.2-2.6,1.9-4.2,4.2c-0.3,0.5-0.7,1-1,1.5c-0.8-0.8-1.4-1.7-2-2.6c-0.6-0.9-1.2-1.8-1.8-2.8
	c-0.5-0.9-1-1.9-1.4-2.9c0.5-0.3,1.3-0.8,2-1.3c3.2-2,5.5-3.5,6-4.8c0.1-0.3,0.2-0.6,0.1-1c-0.5-2.1-3.9-2.4-7.2-2.7
	c-0.9,0-1.8-0.1-2.7-0.3C153.3,173.5,153.3,172,153.5,170.5 M152.6,170l-0.1,0.2c-0.2,1.8-0.3,3.6-0.2,5.4c0,1.3,9.4,0.2,10,2.7
	c0,0.1,0,0.3,0,0.4c-0.7,1.9-8,5.4-8.2,6.1l0,0.1c0.5,1.2,1,2.5,1.6,3.6c0.6,1,1.2,1.9,1.9,2.9c0.8,1.1,1.7,2.2,2.7,3.3
	c0.8,0.8,4.3-7.2,6.2-5.8c1.6,1.2,0.6,11.3,1,11.5c1.1,0.6,2.3,1.1,3.5,1.5c2.5,0.9,4.6,0.9,5.1-0.5l0,0c0.5-1.3,0.9-2.5,1.3-3.6
	c7.6-19.7,3.5,5.7,3.9,5.7c1.4,0,2.7-0.1,4-0.3c2.2-0.3,4.4-0.9,6.5-1.8c1.4-0.6,2.7-1.2,4-2c1.1-0.7,2.2-1.4,3.3-2.2
	c1.5-1.1,3-2.4,4.2-3.7c1-1.1,2-2.3,2.8-3.5c1-1.5,1.8-3,2.5-4.7l0,0c0.9-2.4,1.4-4.9,1.6-7.4c0.2-1.9,0.3-3.8,0.1-5.7
	c-0.1-1.5-0.3-2.9-0.6-4.4c-0.3-1.3-0.7-2.5-1.2-3.7c-0.4-0.9-0.9-1.8-1.4-2.7c-1.1-1.9-2.5-3.6-4-5.2c-1.6-1.7-3.3-3.4-5.2-4.8
	c-1.1-1-2.3-1.8-3.6-2.5c-0.9-0.5-1.8-0.9-2.7-1.2c-1.2,0-2.4-0.1-3.6-0.3c-2.7-0.6-2-0.1-2.6-0.1c-1.4-0.1-1.2,0.4-3.6,0.7
	c-0.6,0.1-1.3,1.2-1.9,2.8c-1.7,4.3-3.1,12.2-3.8,14c-0.1,0.2-0.1,0.3-0.2,0.4c-0.8,0.3-6.2-10.7-9.6-11.4c-1.8-0.4-3.7-0.3-4.6,0.5
	c-1,0.9-2.5,1.3-4.3,3.8c0,0,8.2,7.2,6.9,10.6l0,0c-0.5,1.4-11.1-0.6-11.9,1.7L152.6,170z"/>
<path class="st0" d="M157.5,171.2c0.6-0.4,3.5-0.4,5.1-0.4c3,0.1,4.7,0.1,5.2-1.1c1.1-3-3.5-7.7-5.5-9.6c0.6-0.7,1.3-1.2,2-1.7
	c0.3-0.2,0.7-0.4,1-0.7c1-0.5,2.1-0.6,3.1-0.2c1.5,0.3,4.1,4.5,5.6,6.7c1.7,2.7,2.3,3.5,3.3,3.2c0.4-0.2,0.7-0.5,0.8-0.9
	c0.3-0.7,0.6-2.1,1-3.9c0.6-2.8,1.3-5.5,2.3-8.2c0.2-0.7,0.5-1.3,0.9-1.8c0.7-0.1,1.3-0.2,1.9-0.5c0.3-0.1,0.6-0.2,0.9-0.1
	c0.3,0,0.5,0,0.7-0.2c0.4,0,0.9,0.1,1.3,0.2c0.9,0.2,1.8,0.3,2.7,0.3c0.1,0,0.3,0,0.4,0c0.7,0.3,1.5,0.6,2.1,1c1,0.6,2,1.3,2.9,2.1
	c1.6,1.2,3,2.6,4.4,4.1c1.3,1.3,2.4,2.7,3.3,4.3c0.4,0.7,0.8,1.5,1.1,2.2c0.4,1,0.7,2,1,3.1c0.3,1.2,0.4,2.4,0.5,3.6
	c0.1,1.6,0.1,3.2-0.1,4.7c-0.2,2.1-0.6,4.2-1.4,6.2c-0.5,1.4-1.2,2.7-2,3.9c-0.7,1-1.5,2-2.3,2.9c-1.1,1.1-2.3,2.2-3.5,3.1
	c-0.9,0.7-1.8,1.3-2.7,1.8c-1.1,0.6-2.2,1.2-3.3,1.6c-0.8,0.3-1.7,0.6-2.6,0.9c-0.9,0.3-1.9,0.5-2.8,0.6c-0.8,0.1-1.5,0.2-2.3,0.2
	l0.1-1.5c0.7-7.2,0.7-9.5-0.8-9.8c-1.2-0.3-2.2,0.7-4.6,7c-0.4,0.9-0.8,2-1.2,3.1c-0.1,0.3-1.2,0.5-3.1-0.2c-0.8-0.3-1.7-0.6-2.5-1
	c0-0.4,0-1.1,0-1.8c0.1-4.9-0.1-7.4-1.2-8.2c-0.4-0.3-0.8-0.4-1.3-0.3c-1.2,0.2-2.3,1.6-3.7,3.7l-0.8,1.1c-0.6-0.7-1.1-1.4-1.6-2.1
	c-1.1-1.5-2-3.1-2.7-4.8c0.4-0.3,1.1-0.7,1.6-1c2.8-1.7,4.8-3,5.3-4.2c0.1-0.3,0.1-0.6,0.1-0.9c-0.4-1.9-3.5-2.2-6.3-2.4
	c-0.8-0.1-1.7-0.1-2.2-0.2C157.3,173.7,157.4,172.4,157.5,171.2 M156.6,170.7l-0.1,0.1c-0.2,1.5-0.3,3.1-0.2,4.7
	c0,1.1,8.2,0.2,8.6,2.3c0,0.1,0,0.2,0,0.3c-0.6,1.6-6.9,4.7-7.1,5.3l0,0c0.4,1.1,0.9,2.1,1.4,3.1c0.5,0.9,1,1.7,1.6,2.5
	c0.7,1,1.5,1.9,2.3,2.8c0.7,0.7,3.7-6.2,5.3-5c1.4,1,0.6,9.7,0.9,9.9c1,0.5,2,1,3,1.3c2.1,0.7,4,0.8,4.4-0.4l0,0
	c0.4-1.1,0.8-2.2,1.2-3.1c6.5-16.9,3,4.9,3.4,4.9c1.2,0,2.3-0.1,3.5-0.3c1-0.2,2-0.4,2.9-0.6c0.9-0.3,1.8-0.6,2.7-0.9
	c1.2-0.5,2.3-1,3.4-1.7c1-0.6,1.9-1.2,2.9-1.9c1.3-1,2.5-2,3.7-3.2c0.9-0.9,1.7-2,2.4-3c0.8-1.3,1.6-2.7,2.1-4.1l0,0
	c0.8-2.1,1.2-4.2,1.4-6.4c0.2-1.6,0.2-3.3,0.1-4.9c-0.1-1.3-0.3-2.5-0.5-3.8c-0.2-1.1-0.6-2.2-1-3.2c-0.3-0.8-0.7-1.6-1.2-2.3
	c-1-1.6-2.1-3.1-3.5-4.5c-1.4-1.5-2.9-2.9-4.5-4.1c-0.9-0.8-2-1.6-3.1-2.2c-0.8-0.4-1.5-0.8-2.3-1c-1,0-2.1-0.1-3.1-0.3
	c-2.3-0.6-1.8-0.1-2.3-0.1c-1.2-0.1-1,0.3-3.1,0.6c-0.5,0.1-1.1,1-1.6,2.4c-1.4,3.7-2.7,10.5-3.3,12.1c-0.1,0.2-0.1,0.3-0.2,0.3
	c-0.7,0.2-5.3-9.2-8.3-9.9c-1.6-0.3-3.2-0.3-4,0.4c-0.8,0.7-2.2,1.2-3.7,3.3c0,0,7.1,6.2,6,9.1l0,0
	C166.4,170.6,157.3,168.9,156.6,170.7L156.6,170.7z"/>
<path class="st0" d="M161.6,171.9c1.4-0.3,2.8-0.3,4.2-0.2c2.6,0,4,0.1,4.5-1c1-2.5-2.6-6.3-4.6-8.1c0.5-0.5,1-0.9,1.6-1.3
	c0.3-0.2,0.6-0.4,0.8-0.6c0.8-0.3,1.7-0.4,2.5-0.1c1.2,0.3,3.5,3.8,4.6,5.5c1.5,2.3,2,3,2.9,2.7c0.4-0.1,0.7-0.5,0.8-0.8
	c0.3-1.1,0.6-2.2,0.9-3.3c0.5-2.3,1.1-4.6,1.9-6.9c0.2-0.5,0.4-1,0.7-1.4c0.5-0.1,1.1-0.2,1.6-0.4c0.2-0.1,0.5-0.1,0.7-0.1
	c0.2,0,0.5,0,0.7-0.1c0.3,0,0.7,0.1,1,0.2c0.8,0.2,1.5,0.3,2.3,0.2c0.1,0,0.2,0,0.3,0c0.6,0.2,1.2,0.5,1.8,0.8
	c0.9,0.5,1.7,1.1,2.4,1.7c1.3,1,2.5,2.2,3.6,3.4c1.1,1.1,2,2.3,2.8,3.6c0.3,0.6,0.7,1.2,0.9,1.8c0.3,0.8,0.6,1.7,0.8,2.5
	c0.2,1,0.4,2,0.4,3c0.1,1.3,0,2.6-0.1,4c-0.1,1.7-0.5,3.4-1.1,5.1c-0.4,1.1-1,2.2-1.7,3.3c-0.6,0.9-1.2,1.7-1.9,2.5
	c-0.9,1-1.9,1.8-2.9,2.6c-0.7,0.6-1.5,1.1-2.3,1.5c-1.5,0.9-3.2,1.6-4.9,2.1c-0.8,0.2-1.6,0.4-2.3,0.5c-0.4,0.1-1,0.1-1.7,0.2l0.1-1
	c0.6-6.2,0.6-8.1-0.8-8.4c-1.1-0.3-2,0.5-4.1,6c-0.3,0.8-0.6,1.7-1,2.6c0,0.1-0.7,0.3-2.5-0.3c-0.7-0.2-1.3-0.5-2-0.8
	c0-0.4,0-0.9,0-1.4c0.1-4.3-0.1-6.3-1.1-7c-0.3-0.3-0.8-0.4-1.2-0.3c-1.1,0.2-2,1.4-3.2,3.1l-0.5,0.8c-0.4-0.5-0.9-1-1.3-1.6
	c-0.5-0.6-0.9-1.3-1.3-2c-0.3-0.6-0.6-1.2-0.9-1.9c0.3-0.2,0.8-0.5,1.2-0.8c2.4-1.4,4.1-2.6,4.5-3.6c0.1-0.3,0.1-0.6,0.1-0.9
	c-0.4-1.8-3-1.9-5.5-2.1c-0.6,0-1.3-0.1-1.7-0.2C161.3,173.9,161.4,172.9,161.6,171.9 M160.6,171.5l-0.1,0.1
	c-0.2,1.3-0.2,2.6-0.2,3.9c0,0.9,6.8,0.2,7.2,1.9c0,0.1,0,0.2,0,0.3c-0.5,1.3-5.8,3.9-6,4.4l0,0c0.3,0.9,0.7,1.8,1.1,2.6
	c0.4,0.7,0.8,1.4,1.3,2.1c0.6,0.8,1.2,1.6,1.9,2.4c0.6,0.6,3.1-5.2,4.5-4.2c1.2,0.9,0.4,8.2,0.7,8.3c0.8,0.4,1.7,0.8,2.5,1.1
	c1.8,0.6,3.3,0.7,3.7-0.3l0,0c0.4-0.9,0.7-1.9,1-2.6c5.5-14.2,2.5,4.2,2.8,4.1c1,0,2-0.1,2.9-0.2c0.8-0.1,1.6-0.3,2.5-0.5
	c0.8-0.2,1.5-0.5,2.2-0.8c1-0.4,2-0.9,2.9-1.4c0.8-0.5,1.6-1,2.4-1.6c1.1-0.8,2.1-1.7,3.1-2.7c0.8-0.8,1.4-1.6,2.1-2.6
	c0.7-1.1,1.4-2.2,1.8-3.5l0,0c0.6-1.7,1-3.5,1.2-5.4c0.2-1.4,0.2-2.8,0.1-4.1c-0.1-1.1-0.2-2.1-0.5-3.2c-0.2-0.9-0.5-1.8-0.9-2.7
	c-0.3-0.7-0.6-1.3-1-2c-0.8-1.4-1.8-2.6-2.9-3.7c-1.2-1.3-2.4-2.4-3.7-3.5c-0.8-0.7-1.7-1.3-2.6-1.8c-0.6-0.3-1.3-0.6-2-0.9
	c-0.9,0-1.7-0.1-2.6-0.2c-2-0.5-1.5-0.1-1.9-0.1c-1-0.1-0.9,0.3-2.6,0.5c-0.5,0.1-0.9,0.8-1.4,2c-1.2,3.1-2.2,8.9-2.7,10.1
	c0,0.1-0.1,0.2-0.2,0.3c-0.6,0.2-4.5-7.8-6.9-8.3c-1.1-0.4-2.3-0.2-3.4,0.4c-1.2,0.7-2.3,1.7-3.1,2.8c0,0,6,5.2,5,7.6l0,0
	C168.9,171.2,161.2,169.8,160.6,171.5L160.6,171.5z"/>
<path class="st0" d="M165.6,172.6c1.1-0.2,2.1-0.2,3.2-0.1c2.1,0,3.4,0.1,3.8-1c0.8-2.1-2-5.1-3.6-6.6c0.3-0.3,0.7-0.6,1.1-0.9
	c0.2-0.2,0.5-0.3,0.7-0.5c0.6-0.2,1.2-0.3,1.8-0.1c0.9,0.2,2.8,3.1,3.6,4.4c1.2,1.9,1.7,2.6,2.6,2.3c0.3-0.1,0.6-0.4,0.7-0.8
	c0.2-0.5,0.4-1.4,0.7-2.7c0.4-1.9,0.9-3.7,1.5-5.5c0.1-0.4,0.3-0.7,0.5-1c0.4-0.1,0.8-0.2,1.2-0.3c0.2-0.1,0.3-0.1,0.5-0.1
	c0.2,0,0.4,0,0.6-0.1c0.3,0,0.5,0.1,0.8,0.2c0.6,0.1,1.3,0.2,1.9,0.2c0.1,0,0.1,0,0.2,0c0.5,0.2,0.9,0.4,1.4,0.6
	c0.7,0.4,1.3,0.8,1.9,1.4c1,0.8,2,1.7,2.9,2.7c0.8,0.9,1.6,1.8,2.2,2.9c0.3,0.5,0.5,1,0.7,1.5c0.3,0.6,0.5,1.3,0.6,2
	c0.2,0.8,0.3,1.6,0.3,2.4c0.1,1.1,0,2.1-0.1,3.2c-0.1,1.4-0.4,2.7-0.8,4.1c-0.4,0.9-0.8,1.8-1.3,2.6c-0.5,0.7-1,1.3-1.5,1.9
	c-0.7,0.8-1.5,1.4-2.3,2.1c-0.6,0.4-1.2,0.8-1.8,1.2c-0.7,0.4-1.5,0.8-2.2,1.1c-0.6,0.2-1.1,0.4-1.7,0.6c-0.6,0.2-1.2,0.3-1.9,0.4
	c-0.4,0.1-0.7,0.1-1.1,0.1l0.1-0.6c0.5-5.2,0.4-6.7-0.8-7s-1.9,0.8-3.5,5c-0.2,0.6-0.5,1.3-0.8,2.1c-0.6,0.1-1.2,0-1.7-0.3
	c-0.5-0.2-1-0.3-1.5-0.6l0-1.1c0.1-3.5-0.1-5.2-1-5.9c-0.3-0.2-0.7-0.3-1.1-0.3c-1,0.2-1.7,1.1-2.7,2.6l-0.3,0.4
	c-0.3-0.3-0.6-0.7-0.8-1.1c-0.4-0.5-0.7-1-1-1.6c-0.2-0.4-0.5-0.9-0.7-1.3l0.9-0.5c2-1.2,3.3-2.1,3.7-3c0.1-0.3,0.1-0.5,0.1-0.8
	c-0.3-1.6-2.5-1.7-4.6-1.9c-0.4,0-0.9-0.1-1.2-0.1C165.5,174,165.5,173.3,165.6,172.6 M164.7,172.2l0,0.1c-0.1,1-0.2,2.1-0.1,3.2
	c0,0.7,5.5,0.1,5.8,1.6c0,0.1,0,0.2,0,0.2c-0.4,1.1-4.7,3.2-4.8,3.6l0,0c0.3,0.7,0.6,1.4,1,2.1c0.3,0.6,0.7,1.2,1.1,1.7
	c0.5,0.7,1,1.3,1.6,1.9c0.5,0.5,2.5-4.2,3.6-3.4c0.9,0.7,0.4,6.6,0.6,6.7c0.7,0.4,1.3,0.7,2.1,0.9c1.4,0.5,2.7,0.6,3-0.3l0,0
	c0.3-0.8,0.6-1.5,0.8-2.1c4.4-11.5,2,3.3,2.3,3.3c0.8,0,1.6-0.1,2.4-0.2c0.7-0.1,1.3-0.2,2-0.4c0.6-0.2,1.2-0.4,1.8-0.6
	c0.8-0.3,1.6-0.7,2.3-1.1c0.7-0.4,1.3-0.8,1.9-1.3c0.9-0.6,1.7-1.4,2.5-2.2c0.6-0.6,1.2-1.3,1.6-2.1c0.6-0.9,1.1-1.8,1.4-2.8l0,0
	c0.5-1.4,0.8-2.9,0.9-4.3c0.1-1.1,0.2-2.2,0.1-3.3c-0.1-0.9-0.2-1.7-0.4-2.6c-0.2-0.7-0.4-1.5-0.7-2.2c-0.2-0.5-0.5-1.1-0.8-1.6
	c-0.7-1.1-1.5-2.1-2.4-3c-0.9-1-1.9-2-3-2.8c-0.6-0.6-1.3-1.1-2.1-1.5c-0.5-0.3-1-0.5-1.6-0.7c-0.7,0-1.4-0.1-2.1-0.2
	c-1.6-0.4-1.2-0.1-1.5-0.1c-0.8-0.1-0.7,0.2-2.1,0.4c-0.4,0.1-0.7,0.7-1.1,1.6c-1,2.5-1.8,7.2-2.2,8.2c0,0.1-0.1,0.2-0.1,0.2
	c-0.5,0.2-3.6-6.3-5.6-6.7c-0.9-0.3-1.9-0.2-2.7,0.3c-1,0.6-1.8,1.3-2.5,2.2c0,0,4.8,4.2,4.1,6.2l0,0
	C171.4,171.9,165.2,170.8,164.7,172.2L164.7,172.2z"/>
</svg>
