<svg id="Layer_1" data-name="Layer 1" xmlns="http://www.w3.org/2000/svg" viewBox="0 0 198 198"><defs><style>.cls-1{fill:#fff;}.cls-2{fill:none;stroke:#fff;stroke-miterlimit:10;stroke-width:18px;}</style></defs><title>time</title><path class="cls-1" d="M100,19a81,81,0,1,1-81,81,81,81,0,0,1,81-81m0-18a99,99,0,1,0,99,99A99,99,0,0,0,100,1Z" transform="translate(-1 -1)"/><line class="cls-2" x1="95.5" y1="106.5" x2="148.5" y2="53.5"/><line class="cls-2" x1="66" y1="77" x2="95.5" y2="106.5"/><circle class="cls-1" cx="95.5" cy="106.5" r="1.5"/><path class="cls-1" d="M96.5,106a1.5,1.5,0,1,0,1.5,1.5,1.5,1.5,0,0,0-1.5-1.5Z" transform="translate(-1 -1)"/></svg>