<svg id="Layer_1" data-name="Layer 1" xmlns="http://www.w3.org/2000/svg" viewBox="0 0 2184 2496"><defs><style>.cls-1{fill:#c76395;}</style></defs><title>sass</title><path class="cls-1" d="M671.2,1527.5c-39.7,24.8-99.5,65-145.7,108.7-75.9,71.7-91.8,171.2-51.8,194.4,37.1,21.5,123.5-4.1,185.4-71.6,65-70.9,91.8-160.7,64.1-262.7l-9.6,5.7h.1l-4.2,2.4-38.3,23Zm1114.7-32.2c-22.4,48.9-23.6,64.6-16.7,69.5,32.6-11.7,86.5-40,86.9-115.6.1-11.4-2.4-23.5-6.4-36.2C1814.8,1443.8,1794.8,1476.2,1785.9,1495.3Zm349.9-147.6c-87.1-10.2-155.1,2-207.8,24,9.8,25.4,17.3,51.9,18.3,78.6,2.5,58.5-37.8,101.9-79.8,132.8a262.8,262.8,0,0,1-72.6,37.3c-17.5,7.4-40.8,15.1-57.3,11.7-36.4-7.4-55.8-39.8-31-111.2,13.4-38.6,52-97.4,114.3-148-14.2-29.3-30-59.1-38.1-86.5-15.9-53.9-20.7-86.6-20.7-86.6s-51.4,106.6-117.7,203.4c-3.8,5.7-7.6,11.2-11.4,16.7,13,30.2,23.3,62.2,24.6,94.5,2.5,58.5-22.9,102.8-64.9,133.7a269.1,269.1,0,0,1-67.9,35.7c-13.4,5.8-40.5,15.4-79,18-21.1,1.4-41.4.1-52.7-8.5-15.6-11.7-17.4-26.3-9.4-46.1,6.9-16.9,57.9-75.2,100.7-126.2q17.1-20.6,33.2-41.8l-.3-.6s7.8-10,20.4-27.5c-15.7-33.7-35.5-68.7-44.8-100.5-15.9-54-20.7-86.6-20.7-86.6s-52.1,133.5-106.4,240c-42,82.6-70,132.6-82.6,154.5l-.2.9s-1.8,3.2-5.1,8.2l-2.4,4.1v-.4c-14.1,20.8-45.7,61.5-77.1,61.5-86.2,0-54.6-175.1-54.6-175.1s-25.2,64.9-53.6,120.5c-23.1,45.4-44.2,83.9-90.3,83.9-13.3,0-34.3-.4-51.8-17-39.6-37.6-69.9-133.2-64-207.2,5.1-62.9,14.8-106.5,28.1-142.9q-39.7,21.8-78.9,44.6l-42.8,25.2,1.4,2.5c35.4,68.5,44.9,218.6-32.4,333.8s-220.9,185.4-361,146.5c-45.2-12.6-113.4-106.1-54.5-236.4,51.9-114.9,259.5-223.6,314.2-250.7l15-8.2c-109.1-95.5-381.4-224.2-419.6-422-10.8-55.6,15.3-188.8,178.8-341.8C568.8,559.8,760,461.3,936.7,398.5c296.8-105.5,610.4-43.3,658.6,145.9,47.4,186.1-114,408.7-320.8,488.8-184.6,71.4-337.2,60.1-399.9,39.5-71.3-23.4-113.1-70.5-123.3-97-4-10.4-10.9-27.9,0-33.9,6.7-3.7,9.4-2.8,27.3,17s85.5,69.2,215.5,54.6C1335.4,975.1,1540.9,709.8,1476,567c-45.5-99.9-308.5-145-637.1,18.9-401.2,200-423,364.9-426.4,427.5-9.4,172.2,212.5,262.9,332.5,391l4.6,5c22.5-12.4,46.2-25.5,69.5-38.2q72-39.6,144.2-79c42.2-61.4,127.9-129.2,189.8-129.2,99,0,65,142.2,65,142.2s2-6.5,4.7-6.5,13.7-18.8,44.2-7.6,24.3,33.5,24.5,35.8c.4,4.4-37.1,130.8-52.7,211.9-7.5,38.7-3.1,66.9-.9,66.9s9.3-9.9,15.1-20.4v-.4s4.4-8,11.7-22.4l1.4-3v.2q18.2-36,34.8-72.6c27.4-60.6,132.3-294.3,141.2-320.2s13.5-52.6,17.9-64,41.3-20.1,84.6-19.8,47.7,18.8,48,22.6-20.6,55.1-25.4,91.3-.2,54.4,3.8,84.8c2.5,19.9,15,45.2,29.7,73.8,44.8-73.3,123.6-213.4,131.2-252.7,5.2-26.8,13.5-52.6,17.9-64s41.4-20.1,84.7-19.8,47.7,18.8,48,22.6-20.7,55.1-25.4,91.3-.2,54.4,3.7,84.8c3.4,26.1,23.6,61.1,43.5,100.9,54.5-26.9,118.7-44.9,193.8-45.3,31.1-.2,67.2,3,85.8,8.8V683.1c0-42.2-21.6-81.2-58.2-102.3L1148.4,16a117.5,117.5,0,0,0-117.8,0L56.1,580.6C19.5,601.7,0,640.7,0,682.9V1813c0,42.2,19.6,81.2,56.1,102.3l976.1,565a116.3,116.3,0,0,0,117.4,0l976.6-565c36.5-21.2,57.8-60.1,57.8-102.3V1356.3c-12.4-3.7-30.5-6.6-48.2-8.6Zm-1051.3-59.2c-21,23.5-56.7,84-73.4,134.7-33.2,100.6-18.9,202.9,4.7,209,27.4,7.2,72.5-127.3,94.1-179.9,13.5-32.9,66.1-179.1,54.6-198.7-9-15.2-46.3-2.9-80,34.9Zm380.2,339.1s-6.7,6.3-3.8,8,12.3-.6,21.4-5.4c25.9-16.3,83.9-56.8,84-116.9,0-1.8-.1-3.4-.2-5.3-12,15.8-24.2,31.3-36.5,46.7C1511.3,1577.5,1464.7,1627.6,1464.7,1627.6Z" transform="translate(0 -0.2)"/></svg>