<svg id="Layer_1" data-name="Layer 1" xmlns="http://www.w3.org/2000/svg" viewBox="0 0 144 144"><defs><style>.cls-1{fill:#fff;}</style></defs><title>linked-in</title><path class="cls-1" d="M134.8,0H12.1A10.5,10.5,0,0,0,1.5,10.4V133.6A10.6,10.6,0,0,0,12.1,144H134.8a10.6,10.6,0,0,0,10.7-10.4V10.4A10.5,10.5,0,0,0,134.8,0ZM44.2,122.7H22.8V54H44.2ZM33.5,44.6A12.4,12.4,0,1,1,45.9,32.2,12.5,12.5,0,0,1,33.5,44.6Zm90.7,78.1H102.9V89.3c0-8-.2-18.2-11.1-18.2S78.9,79.7,78.9,88.7v34H57.6V54H78.1v9.4h.3c2.8-5.4,9.8-11.1,20.2-11.1,21.6,0,25.6,14.2,25.6,32.7Z" transform="translate(-1.5)"/></svg>