<svg id="Layer_1" data-name="Layer 1" xmlns="http://www.w3.org/2000/svg" viewBox="0 0 132 130"><defs><style>.cls-1{fill:none;}</style></defs><title>new-tab-icon</title><rect x="80.2" y="75.5" width="85" height="12.27" rx="3.6" ry="3.6" transform="translate(-55.8 80.2) rotate(-46.8)"/><path d="M167,61.5V40.6a4.5,4.5,0,0,0-4.6-4.6H141.5a8.4,8.4,0,0,0-8.5,7.8,1.6,1.6,0,0,0,.4,1.2l9.2,10.4h.2l7.1,7.1a.2.2,0,0,0,.2.2l7.3,6.3a3.2,3.2,0,0,0,2.8.8A8.6,8.6,0,0,0,167,61.5Z" transform="translate(-35 -35)"/><path class="cls-1" d="M50,59v81a12,12,0,0,0,12,12h78a12,12,0,0,0,12-12V117H130a12,12,0,0,1-12-12V47H62A12,12,0,0,0,50,59Z" transform="translate(-35 -35)"/><path d="M160,146a12,12,0,0,1-12,12H54a12,12,0,0,1-12-12V53A12,12,0,0,1,54,41h64V36a.9.9,0,0,0-1-1H47A12,12,0,0,0,35,47V153a12,12,0,0,0,12,12H153a12,12,0,0,0,12-12V118.5a1.5,1.5,0,0,0-1.5-1.5H160Z" transform="translate(-35 -35)"/><path d="M42,53v93a12,12,0,0,0,12,12h94a12,12,0,0,0,12-12V117h-6.3a1.6,1.6,0,0,0-1.7,1.7V140a12,12,0,0,1-12,12H62a12,12,0,0,1-12-12V59A12,12,0,0,1,62,47h55a.9.9,0,0,0,1-1V41H54A12,12,0,0,0,42,53Z" transform="translate(-35 -35)"/></svg>