<svg id="Layer_1" data-name="Layer 1" xmlns="http://www.w3.org/2000/svg" viewBox="0 0 132 130"><defs><style>.cls-1{fill:#e3e3e3;}</style></defs><title>new-tab-icon</title><rect class="cls-1" x="45.2" y="40.5" width="85" height="12.27" rx="3.6" ry="3.6" transform="translate(-6.3 78.7) rotate(-46.8)"/><path class="cls-1" d="M132,26.5V5.6A4.5,4.5,0,0,0,127.6,1H106.5A8.4,8.4,0,0,0,98,8.8a1.7,1.7,0,0,0,.4,1.2l9.2,10.4h.2l7.1,7.1a.2.2,0,0,0,.2.2l7.3,6.3a3.2,3.2,0,0,0,2.8.8A8.7,8.7,0,0,0,132,26.5Z" transform="translate(0 0)"/><path class="cls-1" d="M128.5,82h-9.8a1.6,1.6,0,0,0-1.7,1.5V105a12,12,0,0,1-12,12H27a12,12,0,0,1-12-12V24A12,12,0,0,1,27,12H82a.9.9,0,0,0,1-.8V1a.9.9,0,0,0-.8-1H12A12,12,0,0,0,0,12V118a12,12,0,0,0,12,12H118a12,12,0,0,0,12-12V83.5A1.5,1.5,0,0,0,128.5,82Z" transform="translate(0 0)"/></svg>